<mxfile host="app.diagrams.net" modified="2024-04-14T14:17:04.955Z" agent="Mozilla/5.0 (Macintosh; Intel Mac OS X 10_15_7) AppleWebKit/537.36 (KHTML, like Gecko) Chrome/123.0.0.0 Safari/537.36" version="24.2.1" etag="LrU1T_AxuEjf7f8pYuSk" type="device">
  <diagram id="h4_Rvsuh-rK-ylbFgxOM" name="data_architecture">
    <mxGraphModel dx="999" dy="648" grid="1" gridSize="10" guides="1" tooltips="1" connect="1" arrows="1" fold="1" page="1" pageScale="1" pageWidth="1100" pageHeight="850" math="0" shadow="0">
      <root>
        <mxCell id="0" />
        <mxCell id="1" parent="0" />
        <mxCell id="SieIvqfDEVxvewcRxORI-1" value="Data Source (EL)" style="swimlane;whiteSpace=wrap;html=1;" vertex="1" parent="1">
          <mxGeometry x="20" y="130" width="130" height="290" as="geometry" />
        </mxCell>
        <mxCell id="SieIvqfDEVxvewcRxORI-2" value="raw csv files" style="image;aspect=fixed;html=1;points=[];align=center;fontSize=12;image=img/lib/azure2/general/Files.svg;" vertex="1" parent="SieIvqfDEVxvewcRxORI-1">
          <mxGeometry x="20" y="125" width="64" height="70" as="geometry" />
        </mxCell>
        <mxCell id="SieIvqfDEVxvewcRxORI-3" value="Data Transformation (T)" style="swimlane;whiteSpace=wrap;html=1;" vertex="1" parent="1">
          <mxGeometry x="185" y="130" width="440" height="290" as="geometry" />
        </mxCell>
        <mxCell id="SieIvqfDEVxvewcRxORI-4" value="" style="strokeWidth=2;html=1;shape=mxgraph.flowchart.database;whiteSpace=wrap;" vertex="1" parent="SieIvqfDEVxvewcRxORI-3">
          <mxGeometry x="36" y="40" width="384" height="240" as="geometry" />
        </mxCell>
        <mxCell id="SieIvqfDEVxvewcRxORI-5" style="edgeStyle=orthogonalEdgeStyle;rounded=0;orthogonalLoop=1;jettySize=auto;html=1;entryX=0;entryY=0.5;entryDx=0;entryDy=0;" edge="1" parent="SieIvqfDEVxvewcRxORI-3" source="SieIvqfDEVxvewcRxORI-6" target="SieIvqfDEVxvewcRxORI-9">
          <mxGeometry relative="1" as="geometry" />
        </mxCell>
        <mxCell id="SieIvqfDEVxvewcRxORI-6" value="Raw" style="rounded=0;whiteSpace=wrap;html=1;" vertex="1" parent="SieIvqfDEVxvewcRxORI-3">
          <mxGeometry x="55" y="160" width="70" height="50" as="geometry" />
        </mxCell>
        <mxCell id="SieIvqfDEVxvewcRxORI-19" style="edgeStyle=orthogonalEdgeStyle;rounded=0;orthogonalLoop=1;jettySize=auto;html=1;entryX=0;entryY=0.5;entryDx=0;entryDy=0;exitX=0.75;exitY=1;exitDx=0;exitDy=0;" edge="1" parent="SieIvqfDEVxvewcRxORI-3" source="SieIvqfDEVxvewcRxORI-7" target="SieIvqfDEVxvewcRxORI-18">
          <mxGeometry relative="1" as="geometry">
            <Array as="points">
              <mxPoint x="220" y="210" />
              <mxPoint x="220" y="233" />
            </Array>
          </mxGeometry>
        </mxCell>
        <mxCell id="SieIvqfDEVxvewcRxORI-7" value="staging" style="rounded=0;whiteSpace=wrap;html=1;" vertex="1" parent="SieIvqfDEVxvewcRxORI-3">
          <mxGeometry x="191" y="160" width="60" height="50" as="geometry" />
        </mxCell>
        <mxCell id="SieIvqfDEVxvewcRxORI-8" style="edgeStyle=orthogonalEdgeStyle;rounded=0;orthogonalLoop=1;jettySize=auto;html=1;" edge="1" parent="SieIvqfDEVxvewcRxORI-3">
          <mxGeometry relative="1" as="geometry">
            <Array as="points">
              <mxPoint x="200" y="240" />
              <mxPoint x="210" y="240" />
            </Array>
            <mxPoint x="200" y="240" as="sourcePoint" />
            <mxPoint x="210" y="210" as="targetPoint" />
          </mxGeometry>
        </mxCell>
        <mxCell id="SieIvqfDEVxvewcRxORI-9" value="" style="shape=image;verticalLabelPosition=bottom;verticalAlign=top;imageAspect=0;image=data:image/png,iVBORw0KGgoAAAANSUhEUgAAC7gAAAgLCAYAAADco44/AAAAGXRFWHRTb2Z0d2FyZQBBZG9iZSBJbWFnZVJlYWR5ccllPAAA8ONJREFUeNrswQEBAAAAgJD+r+4ICgAAAAAAAAAAAAAAAAAAAAAAAAAAAAAAAAAAAAAAAAAAAAAAAAAAAAAAAAAAAAAAAAAAAAAAAAAAAAAAAAAAAAAAAAAAAAAAAAAAAAAAAAAAAAAAAAAAAAAAAAAAAAAAAAAAAAAAAAAAAAAAAAAAAAAAAAAAAAAAAAAAAAAAAAAAAAAAAAAAAAAAAAAAAAAAAAAAAAAAAAAAAAAAAAAAAAAAAAAAAAAAAAAAAAAAAAAAAAAAAAAAAAAAAAAAAAAAAAAAAAAAAAAAAAAAAAAAAAAAAAAAAAAAAAAAAAAAAAAAAAAAAAAAAAAAAAAAAAAAAAAAAAAAAAAAAAAAAAAAAAAAAAAAAAAAAAAAAAAAAAAAAAAAAAAAAAAAAAAAAAAAAAAAAAAAAAAAAAAAAAAAAAAAAAAAAAAAAAAAAAAAAAAAAAAAAAAAAAAAAAAAAAAAAAAAAAAAAAAAAAAAAAAAAAAAAAAAAAAAAAAAAAAAAAAAAAAAAAAAAAAAAAAAAAAAAAAAAAAAAAAAAAAAAAAAAAAAAAAAAAAAAAAAAAAAAAAAAAAAAAAAAAAAAAAAAAAAAAAAAAAAAAAAAAAAAAAAAAAAAAAAAAAAAAAAAAAAAAAAAAAAAAAAAAAAAAAAAAAAAAAAAAAAAAAAAAAAAAAAAAAAAAAAAAAAAAAAAAAAAAAAAAAAAAAAAAAAAAAAAAAAAAAAAAAAAAAAAAAAAAAAAAAAAAAAAAAAAAAAAAAAAAAAAAAAAAAAAAAAAAAAAAAAAAAAAAAAAAAAAAAAAAAAAAAAAAAAAAAAAAAAAAAAAAAAAAAAAAAAAAAAAAAAAAAAAAAAAAAAAAAAAAAAAAAAAAAAAAAAAAAAAAAAAAAAAAAAAAAAAAAAAAAAAAAAAAAAAAAAAAAAAAAAAAAAAAAAAAAAAAAAAAAAAAAAAAAAAAAAAAAAAAAAAAAAAAAAAAAAAAAAAAAAAAAAAAAAAAAAAAAAAAAAAAAAAAAAAAAAAAAAAAAAAAAAAAAAAAAAAAAAAAAAAAAAAAAAAAAAAAAAAAAAAAAAAAAAAAAAAAAAAAAAAAAAAAAAAAAAAAAAAAAAAAAAAAAAAAAAAAAAAAAAAAAAAAAAAAAAAAAAAAAAAAAAAAAAAAAAAAAAAAAAAAAAAAAAAAAAAAAAAAAAAAAAAAAAAAAAAAAAAAAAAAAAAAAAAAAAAAAAAAAAAAAAAAAAAAAAAAAAAAAAAAAAAAAAAAAAAAAAAAAAAAAAAAAAAAAAAAAAAAAAAAAAAAAAAAAAAAAAAAAAAAAAAAAAAAAAAAAAAAAAAAAAAAAAAAAAAAAAAAAAAAAAAAAAAAAAAAAAAAAAAAAAAAAAAAAAAAAAAAAAAAAAAAAAAAAAAAAAAAAAAAAAAAAAAAAAAAAAAAAAAAAAAAAAAAAAAAAAAAAAAAAAAAAAAAAAAAAAAAAAAAAAAAAAAAAAAAAAAAAAAAAAAAAAAAAAAAAAAAAAAAAAAAAAAAAAAAAAAAAAAAAAAAAAAAAAAAAAAAAAAAAAAAAAAAAAAAAAAAAAAAAAAAAAAAAAAAAAAAAAAAAAAAAAAAAAAAAAAAAAAAAAAAAAAAAAAAAAAAAAAAAAAAAAAAAAAAAAAAAAAAAAAAAAAAAAAAAAAAAAAAAAAAAAAAAAAAAAAAAAAAAAAAAAAAAAAAAAAAAAAAAAAAAAAAAAAAAAAAAAAAAAAAAAAAAAAAAAAAAAAAAAAAAAAAAAAAAAAAAAAAAAAAAAAAAAAAAAAAAAAAAAAAAAAAAAAAAAAAAAAAAAAAAAAAAAAAAAAAAAAAAAAAAAAAAAAAAAAAAAAAAAAAAAAAAAAAAAAAAAAAAAAAAAAAAAAAAAAAAAAAAAAAAAAAAAAAAAAAAAAAAAAAAAAAAAAAAAAAAAAAAAAAAAAAAAAAAAAAAAAAAAAAAAAAAAAAAAAAAAAAAAAAAAAAAAAAAAAAAAAAAAAAAAAAAAAAAAAAAAAAAAAAAAAAAAAAAAAAAAAAAAAAAAAAAAAAAAAAAAAAAAAAAAAAAAAAAAAAAAAAAAAAAAAAAAAAAAAAAAAAAAAAAAAAAAAAAAAAAAAAAAAAAAAAAAAAAAAAAAAAAAAAAAAAAAAAAAAAAAAAAAAAAAAAAAAAAAAAAAAAAAAAAAAAAAAAAAAAAAAAAAAAAAAAAAAAAAAAAAAAAAAAAAAAAAAAAAAAAAAAAAAAAAAAAAAAAAAAAAAAAAAAAAAAAAAAAAAAAAAAAAAAAAAAAAAAAAAAAAAAAAAAAAAAAAAAAAAAAAAAAAAAAAAAAAAAAAAAAAAAAAAAAAAAAAAAAAAAAAAAAAAAAAAAAAAAAAAAAAAAAAAAAAAAAAAAAAAAAAAAAAAAAAAAAAAAAAAAAAAAAAAAAAAAAAAAAAAAAAAAAAAAAAAAAAAAAAAAAAAAAAAAAAAAAAAAAAAAAAAAAAAAAAAAAAAAAAAAAAAAAAAAAAAAAAAAAAAAAAAAAAAAAAAAAAAAAAAAAAAAAAAAAAAAAAAAAAAAAAAAAAAAAAAAAAAAAAAAAAAAAAAAAAAAAAAAAAAAAAAAAAAAAAAAAAAAAAAAAAAAAAAAAAAAAAAAAAAAAAAAAAAAAAAAAAAAAAAAAAAAAAAAAAAAAAAAAAAAAAAAAAAAAAAAAAAAAAAAAAAAAAAAAAAAAAAAAAAAAAAAAAAAAAAAAAAAAAAAAAAAAAAAAAAAAAAAAAAAAAAAAAAAAAAAAAAAAAAAAAAAAAAAAAAAAAAAAAAAAAAAAAAAAAAAAAAAAAAAAAAAAAAAAAAAAAAAAAAAAAAAAAAAAAAAAAAAAAAAAAAAAAAAAAAAAAAAAAAAAAAAAAAAAAAAAAAAAAAAAAAAAAAAAAAAAAAAAAAAAAAAAAAAAAAAAAAAAAAAAAAAAAAAAAAAAAAAAAAAAAAAAAAAAAAAAAAAAAAAAAAAAAAAAAAAAAAAAAAAAAAAAAAAAAAAAAAAAAAAAAAAAAAAAAAAAAAAAAAAAAAAAAAAAAAAAAAAAAAAAAAAAAAAAAAAAAAAAAAAAAAAAAAAAAAAAAAAAAAAAAAAAAAAAAAAAAAAAAAAAAAAAAAAAAAAAAAAAAAAAAAAAAAAAAAAAAAAAAAAAAAAAAAAAAAAAAAAAAAAAAAAAAAAAAAAAAAAAAAAAAAAAAAAAAAAAAAAAAAAAAAAAAAAAAAAAAAAAAAAAAAAAAAAAAAAAAAAAAAAAAAAAAAAAAAAAAAAAAAAAAAAAAAAAAAAAAAAAAAAAAAAAAAAAAAAAAAAAAAAAAAAAAAAAAAAAAAAAAAAAAAAAAAAAAAAAAAAAAAAAAAAAAAAAAAAAAAAAAAAAAAAAAAAAAAAAAAAAAAAAAAAAAAAAAAAAAAAAAAAAAAAAAAAAAAAAAAAAAAAAAAAAAAAAAAAAAAAAAAAAAAAAAAAAAAAAAAAAAAAAAAAAAAAAAAAAAAAAAAAAAAAAAAAAAAAAAAAAAAAAAAAAAAAAAAAAAAAAAAAAAAAAAAAAAAAAAAAAAAAAAAAAAAAAAAAAAAAAAAAAAAAAAAAAAAAAAAAAAAAAAAAAAAAAAAAAAAAAAAAAAAAAAAAAAAAAAAAAAAAAAAAAAAAAAAAAAAAAAAAAAAAAAAAAAAAAAAAAAAAAAAAAAAAAAAAAAAAAAAAAAAAAAAAAAAAAAAAAAAAAAAAAAAAAAAAAAAAAAAAAAAAAAAAAAAAAAAAAAAAAAAAAAAAAAAAAAAAAAAAAAAAAAAAAAAAAAAAAAAAAAAAAAAAAAAAAAAAAAAAAAAAAAAAAAAAAAAAAAAAAAAAAAAAAAAAAAAAAAAAAAAAAAAAAAAAAAAAAAAAAAAAAAAAAAAAAAAAAAAAAAAAAAAAAAAAAAAAAAAAAAAAAAAAAAAAAAAAAAAAAAAAAAAAAAAAAAAAAAAAAAAAAAAAAAAAAAAAAAAAAAAAAAAAAAAAAAAAAAAAAAAAAAAAAAAAAAAAAAAAAAAAAAAAAAAAAAAAAAAAAAAAAAAAAAAAAAAAAAAAAAAAAAAAAAAAAAAAAAAAAAAAAAAAAAAAAAAAAAAAAAAAAAAAAAAAAAAAAAAAAAAAAAAAAAAAAAAAAAAAAAAAAAAAAAAAAAAAAAAAAAAAAAAAAAAAAAAAAAAAAAAAAAAAAAAAAAAAAAAAAAAAAAAAAAAAAAAAAAAAAAAAAAAAAAAAAAAAAAAAAAAAAAAAAAAAAAAAAAAAAAAAAAAAAAAAAAAAAAAAAAAAAAAAAAAAAAAAAAAAAAAAAAAAAAAAAAAAAAAAAAAAAAAAAAAAAAAAAAAAAAAAAAAAAAAAAAAAAAAAAAAAAAAAAAAAAAAAAAAAAAAAAAAAAAAAAAAAAAAAAAAAAAAAAAAAAAAAAAAAAAAAAAAAAAAAAAAAAAAAAAAAAAAAAAAAAAAAAAAAAAAAAAAAAAAAAAAAAAAAAAAAAAAAAAAAAAAAAAAAAAAAAAAAAAAAAAAAAAAAAAAAAAAAAAAAAAAAAAAAAAAAAAAAAAAAAAAAAAAAAAAAAAAAAAAAAAAAAAAAAAAAAAAAAAAAAAAAAAAAAAAAAAAAAAAAAAAAAAAAAAAAAAAAAAAAAAAAAAAAAAAAAAAAAAAAAAAAAAAAAAAAAAAAAAAAAAAAAAAAAAAAAAAAAAAAAAAAAAAAAAAAAAAAAAAAAAAAAAAAAAAAAAAAAAAAAAAAAAAAAAAAAAAAAAAAAAAAAAAAAAAAAAAAAAAAAAAAAAAAAAAAAAAAAAAAAAAAAAAAAAAAAAAAAAAAAAAAAAAAAAAAAAAAAAAAAAAAAAAAAAAAAAAAAAAAAAAAAAAAAAAAAAAAAAAAAAAAAAAAAAAAAAAAAAAAAAAAAAAAAAAAAAAAAAAAAAAAAAAAAAAAAAAAAAAAAAAAAAAAAAAAAAAAAAAAAAAAAAAAAAAAAAAAAAAAAAAAAAAAAAAAAAAAAAAAAAAAAAAAAAAAAAAAAAAAAAAAAAAAAAAAAAAAAAAAAAAAAAAAAAAAAAAAAAAAAAAAAAAAAAAAAAAAAAAAAAAAAAAAAAAAAAAAAAAAAAAAAAAAAAAAAAAAAAAAAAAAAAAAAAAAAAAAAAAAAAAAAAAAAAAAAAAAAAAAAAAAAAAAAAAAAAAAAAAAAAAAAAAAAAAAAAAAAAAAAAAAAAAAAAAAAAAAAAAAAAAAAAAAAAAAAAAAAAAAAAAAAAAAAAAAAAAAAAAAAAAAAAAAAAAAAAAAAAAAAAAAAAAAAAAAAAAAAAAAAAAAAAAAAAAAAAAAAAAAAAAAAAAAAAAAAAAAAAAAAAAAAAAAAAAAAAAAAAAAAAAAAAAAAAAAAAAAAAAAAAAAAAAAAAAAAAAAAAAAAAAAAAAAAAAAAAAAAAAAAAAAAAAAAAAAAAAAAAAAAAAAAAAAAAAAAAAAAAAAAAAAAAAAAAAAAAAAAAAAAAAAAAAAAAAAAAAAAAAAAAgNm7m+M20msNwB9UNwDcDKAILhSBm9vemBOBwWWvCEYgMgJCKyzJiUD0BlvBEQiOQJ2BkUHf71O3PBqNSIEkfvrneapOtVyuskevLOm46u3TAAAAAAAAAAAAAAAAAAAAAAAAAAAAAAAAAAAAAAAAAAAAAAAAAAAAAAAAAAAAAAAAAAAAAAAAAAAAAAAAAAAAAAAAAAAAAAAAAAAAAAAAAAAAAAAAAAAAAAAAAAAAAAAAAAAAAAAAAAAAAAAAAAAAAAAAAAAAAAAAAAAAAAAAAAAAAAAAAAAAAAAAAAAAAAAAAAAAAAAAAAAAAAAAAAAAAAAAAAAAAAAAAAAAAAAAAAAAAAAAAAAAAAAAAAAAAAAAAAAAAAAAAAAAAAAAAAAAAAAAAAAAAAAAAAAAAAAAAAAAAAAAAAAAAAAAAAAAAAAAAAAAAAAAAAAAAAAAAAAAAAAAAAAAAAAAAAAAAAAAAAAAAAAAAAAAAAAAAAAAAAAAAAAAAAAAAAAAAAAAAAAAAAAAAAAAAAAAAAAAAAAAAAAAAAAAAAAAAAAAAAAAAAAAAAAAAAAAAAAAAAAAAAAAAAAAAAAAAAAAAAAAAAAAAAAAAAAAAAAAAAAAAAAAAAAAAAAAAAAAAAAAAAAAAAAAAAAAAAAAAAAAAAAAAAAAAAAAAAAAAAAAAAAAAAAAAAAAAAAAAAAAAAAAAAAAAAAAAAAAAAAAAAAAAAAAAAAAAAAAAAAAAAAAAAAAAAAAAAAAAAAAAAAAAAAAAAAAAAAAAAAAAAAAAAAAAAAAAAAAAAAAAAAAAAAAAAAAAAAAAAAAAAAAAAAAAAAAAAAAAAAAAAAAAAAAAAAAAAAAAAAAAAAAAAAAAAAAAAAAAAAAAAAAAAAAAAAAAAAAAAAAAAAAAAAAAAAAAAAAAAAAAAAAAAAAAAAAAAAAAAAAAAAAAAAAAAAAAAAAAAAAAAAAAAAAAAAAAAAAAAAAAAAAAAAAAAAAAAAAAAAAAAAAAAAAAAAAAAAAAAAAAAAAAAAAAAAAAAAAAAAAAAAAAAAAAAAAAAAAAAAAAAAAAAAAAAAAAAAAAAAAAAAAAAAAAAAAAAAAAAAAAAAAAAAAAAAAAAAAAAAAAAAAAAAAAAAAAAAAAAAAAAAAAAAAAAAAAAAAAAAAAAAAAAAAAAAAAAAAAAAAAAAAAAAAAAAAAAAAAAAAAAAAAAAAAAAAAAAAAAAAAAAAAAAAAAAAAAAAAAAAAAAAAAAAAAAAAAAAAAAAAAAAAAAAAAAAAAAAAAAAAAAAAAAAAAAAAAAAAAAAAAAAAAAAAAAAAAAAAAAAAAAAAAAAAAAAAAAAAAAAAAAAAAAAAAAAAAAAAAAAAAAAAAAAAAAAAAAAAAAAAAAAAAAAAAAAAAAAAAAAAAAAAAAAAAAAAAAAAAAAAAAAAAAAAAAAAAAAAAAAAAAAAAAAAAAAAAAAAAAAAAAAAAAAAAAAAAAAAAAAAAAAAAAAAAAAAAAAAAAAAAAAAAAAAAAAAAAAAAAAAAAAAAAAAAAAAAAAAAAAAAAAAAAAAAAAAAAAAAAAAAAAAAAAAAAAAAAAAAAAAAAAAAAAAAAAAAAAAAAAAAAAAAAAAAAAAAAAAAAAAAAAAAAAAAAAAAAAAAAAAAAAAAAAAAAAAAAAAAAAAAAAAAAAAAAAAAAAAAAAAAAAAAAAAAAAAAAAAAAAAAAAAAAAAAAAAAAAAAAAAAAAAAAAAAAAAAAAAAAAAAAAAAAAAAAAAAAAAAAAAAAAAAAAAAAAAAAAAAAAAAAAAAAAAAAAAAAAAAAAAAAAAAAAAAAAAAAAAAAAAAAAAAAAAAAAAAAAAAAAAAAAAAAAAAAAAAAAAAAAAAAAAAAAAAAAAAAAAAAAAAAAAAAAAAAAAAAAAAAAAAAAAAAAAAAAAAAAAAAAAAAAAAAAAAAAAAAAAAAAAAAAAAAAAAAAAAAAAAAAAAAAAAAAAAAAAAAAAAAAAAAAAAAAAAAAAAAAAAAAAAAAAAAAAAAAAAAAAAAAAAAAAAAAAAAAAAAAAAAAAAAAAAAAAAAAAAAAAAAAAAAAAAAAAAAAAAAAAAAAAAAAAAAAAAAAAAAAAAAAAAAAAAAAAAAAAAAAAAAAAAAAAAAAAAAAAAAAAAAAAAAAAAAAAAAAAAAAAAAAAAAAAAAAAAAAAAAAAAAAAAAAAAAAAAAAAAAAAAAAAAAAAAAAAAAAAAAAAAAAAAAAAAAAAAAAAAAAAAAAAAAAAAAAAAAAAAAAAAAAAAAAAAAAAAAAAAAAAAAAAAAAAAAAAAAAAAAAAAAAAAAAAAAAAAAAAAAAAAAAAAAAAAAAAAAAAAAAAAAAAAAAAAAAAAAAAAAAAAAAAAAAAAAAAAAAAAAAAAAAAAAAAAAAAAAAAAAAAAAAAAAAAAAAAAAAAAAAAAAAAAAAAAAAAAAAAAAAAAAAAAAAAAAAAAAAAAAAAAAAAAAAAAAAAAAAAAAAAAAAAAAAAAAAAAAAAAAAAAAAAAAAAAAAAAAAAAAAAAAAAAAAAAAAAAAAAAAAAAAAAAAAAAAAAAAAAAAAAAAAAAAAAAAAAAAAAAAAAAAAAAAAAAAAAAAAAAAAAAAAAAAAAAAAAAAAAAAAAAAAAAAAAAAAAAAAAAAAAAAAAAAAAAAAAAAAAAAAAAAAAAAAAAAAAAAAAAAAAAAAAAAAAAAAAAAAAAAAAAAAAAAAAAAAAAAAAAAAAAAAAAAAAAAAAAAAAAAAAAAAAAAAAAAAAAAAAAAAAAAAAAAAAAAAAAAAAAAAAAAAAAAAAAAAAAAAAAAAAAAAAAAAAAAAAAAAAAAAAAAAAAAAAAAAAAAAAAAAAAAAAAAAAAAAAAAAAAAAAAAAAAAAAAAAAAAAAAAAAAAAAAAAAAAAAAAAAAAAAAAAAAAAAAAAAAAAAAAAAAAAAAAAAAAAAAAAAAAAAAAAAAAAAAAAAAAAAAAAAAAAAAAAAAAAAAAAAAAAAAAAAAAAAAAAAAAAAAAAAAAAAAAAAAAAAAAAAAAAAAAAAAAAAAAAAAAAAAAAAAAAAAAAAAAAAAAAAAAAAAAAAAAAAAAAAAAAAAAAAAAAAAAAAAAAAAAAAAAAAAAAAAAAAAAAAAAAAAAAAAAAAAAAAAAAAAAAAAAAAAAAAAAAAAAAAAAAAAAAAAAAAAAAAAAAAAAAAAAAAAAAAAAAAAAAAAAAAAAAAAAAAAAAAAAAAAAAAAAAAAAAAAAAAAAAAAAAAAAAAAAAAAAAAAAAAAAAAAAAAAAAAAAAAAAAAAAAAAAAAAAAAAAAAAAAAAAAAAAAAAAAAAAAAAAAAAAAAAAAAAAAAAAAAAAAAAAAAAAAAAAAAAAAAAAAAAAAAAAAAAAAAAAAAAAAAAAAAAAAAAAAAAAAAAAAAAAAAAAAAAAAAAAAAAAAAAAAAAAAAAAAAAAAAAAAAAAAAAAAAAAAAAAAAAAAAAAAAAAAAAAAAAAAAAAAAAAAAAAAAAAAAAAAAAAAAAAAAAAAAAAAAAAAAAAAAAAAAAAAAAAAAAAAAAAAAAAAAAAAAAAAAAAAAAAAAAAAAAAAAAAAAAAAAAAAAAAAAAAAAAAAAAAAAAAAAAAAAAAAAAAAAAAAAAAAAAAAAAAAAAAAAAAAAAAAAAAAAAAAAAAAAAAAAAAAAAAAAAAAAAAAAAAAAAAAAAAAAAAAAAAAAAAAAAAAAAAAAAAAAAAAAAAAAAAAAAAAAAAAAAAAAAAAAAAAAAAAAAAAAAAAAAAAAAAAAAAAAAAAAAAAAAAAAAAAAAAA8JSRCABok6rIp/ExjpP98G+tm2c5Wq5KSQEA8N0OmfbHafMvv+2T32zibNMz7pFbaQEAAAAAAAC0m4I7ACdRFXkWH5M4/xfqEtKkmV19Kyr9K04Z6sLSRrIAAIPYIdP8LdRF9ukz/2PWzf7472anVHwHAAAAAAAAaBEFdwAOrrnKnoU/yuzTA/7XrUNdVErF97WyEgBAZ3fIyXc7ZHbgHbJs9sh/NzukFycBAAAAAAAATkTBHYC9+67Q/rfmOT7hP04qJ/0zzoOiEgBA6/fI8+92yOmJ/3HWzR6p8A4AAAAAAABwRAruALxaVeSpwJ7KSH8Ppy+0P6UMTVFptFw9+JUDAGjFLvltjzxv8R6ZvgqU9sf0laAHXwkCAAAAAAAAOBwFdwBepCrySahLSP8Ip7+u+RJlqEtKH0bLVelXFADgqLtk2h8vQ7tL7U9JF91/D3XZ3S4JAAAAAAAAsEcK7gDsrAel9ses4/w+Wq7u/SoDABx0n5w1u2TWo5/Wt7L7vcvuAAAAAAAAAK+n4A7Ak6oiTxc1U6k9Xdic9vynW4a6nLRQTgIA2Os+OWv2yUnPf7rpC0H/9OIkAAAAAAAAwMspuAPwU1WRZ6G+rpnK7eOB/fRTuf1DUHQHAHjtTnkd6mL7EPfJ+7RTxn2y9L8EAAAAAAAAgN0puAPwXwO71r4LRXcAgJftlbP4eB/6f7F9F+tQF90fRAEAAAAAAADwawruAKQC0iQ+ZmGY1zV3kcrtN6PlaiEKAIAn98os1MX2TBp/UaadMs6DlycBAAAAAAAAHqfgDjBgTbE9FZBm0thJGef34KI7AMCPe2UWFNt35StBAAAAAAAAAE9QcAcYIMX2V3PRHQAgKLbvYadUdAcAAAAAAAD4gYI7wIAotu9dGeqi+70oAICB7ZVZUGzfF0V3AAAAAAAAgO8ouAMMQFXk4/i4DYrth1LGuRotVw+iAAB6vldO4uMuKLYfgq8EAQAAAAAAAAQFd4Bea4rt8ziXccYSObh1qEtJa1EAAD3bKyfBl4COpQxengQAAAAAAAAGTMEdoKeqIj8P9dX2iTSObh3nYrRclaIAADq+U6aXJFOxfS4NOyUAAAAAAADAMSi4A/RMc13zLk4mjZO7D/X1za0oAICO7ZS+BNQeN3EWdkoAAAAAAABgKBTcAXqkKvLrUF/YpD1SEelDUEoCALqzU86anXIijdYoQ/3i5IMoAAAAAAAAgL5TcAfogarIs1BfbZ9Io7VSuT2Vku5FAQDYKXmhVHC/8OIkAAAAAAAA0GcK7gAdVhX5ONTXNefS6Iwy1KWktSgAgJbslFmzU2bS6IRts0+65g4AAAAAAAD0koI7QEdVRT6Nj4/Bhc2uWof6ovtGFADAifbJtEemYvtMGp3kmjsAAAAAAADQSwruAB1UFfl1qMtIdN99qIvuikkAwLF2yfQVoLl9shfK4OtAAAAAAAAAQM8ouAN0SFNGSlfbM2n0Siq3f4izUHQHAA68T34rto+l0Ss3cY+8FgMAAAAAAADQBwruAB1RFXkW6nK7MlJ/laEuJ92LAgDY8y55Hh+3cSbS6K11nN+8MAkAAAAAAAB0nYI7QAdURX4d6kubDMM61EX3tSgAgFfukVmzR2bSGIRUbj+Le+RGFAAAAAAAAEBXKbgDtFhV5Ola+12cc2kM0kOcq9FyVYoCAHjmHjkJdbF9Jo1BuvBVIAAAAAAAAKCrFNwBWqoq8mmoy+1TaQzeTZzFaLnaigIA+MUOmV6QnMe5jDOWyKDdx/3xQgwAAAAAAABA1yi4A7RQVeRZfHwMSkn8IZXbb0bL1UIUAMAjO+QsPm7tkHxnE+fMi5IAAAAAAABAlyi4A7RMU0y6kwSPKONcjJartSgAgGZ/zEJdbPflH35m0+yPG1EAAAAAAAAAXaDgDtAiVZFfx8d7SbCDdaiLSqUoAGCwu+Mk1C9GZtLgF9IF9zMldwAAAAAAAKALFNwBWqIq8lROmkmCZ1rEuRktV1tRAMBg9sZxqF+KnEuDZ0j7YnpB8kEUAAAAAAAAQJspuAO0gHI7r5TKSqnkvhAFAPR+b7yOj8s4Y2nwQqnkfi8GAAAAAAAAoK0U3AFOqLm++TFOJg32oIxz5SonAPRybzyPj9s4E2mwB0ruAAAAAAAAQGspuAOcSFNu/xRnKg32bB3qovtGFADQ+Z0x7Yqp2J5Jgz1TcgcAAAAAAABaScEd4ASU2zmS+1AX3beiAIBO7oup2D6TBgek5A4AAAAAAAC0joI7wJEpt3Nkqdz+YbRcXYsCADqzK87jXMYZS4QjUHIHAAAAAAAAWkXBHeCIlNs5oTLU19wfRAEArd0VZ/HxPs5EGhyZkjsAAAAAAADQGgruAEei3E5LrENddN+IAgBasydmoS62Z9LghJTcAQAAAAAAgFZQcAc4AuV2Wug+1EX3rSgA4GQ74iTUxfaZNGgJJXcAAAAAAADg5BTcAQ5MuZ0WS+X2D6Pl6loUAHD0/XAe5zLOWCK0jJI7AAAAAAAAcFIK7gAHVhX5x/g4lwQtVob6mvuDKADg4LvhLNRX2yfSoMWU3AEAAAAAAICTUXAHOKCqyO/iYyYJOmId6jJTKQoA2PtemIW62J5Jg45QcgcAAAAAAABOQsEd4ECU2+mwRZyb0XK1FQUAvHonnIS62G4vpIvexZ1wIwYAAAAAAADgmBTcAQ6gKvJ5fNxKgg5L5fZUcl+IAgBetA+O4yPthJdxxhKhwzvhmZI7AAAAAAAAcEwK7gB7VhX5LD7uJEFPlHEuRsvVWhQA8Kx9MF1tn0iDHkgl97e+7gMAAAAAAAAci4I7wB5VRT6Nj0/BlU76Zx3qonspCgB4dBfMQl1sz6RBz6QL7mdK7gAAAAAAAMAxKLgD7ElV5KnU/iUot9Nvizg3yk0A8Kc9cBLqYvtMGvTYQ9wBfxMDAAAAAAAAcGgK7gB70JTb0+X2qTQYgFRuTyX3hSgAsAOGeZzL4CVHhmERd8ArMQAAAAAAAACHpOAOsAdVkd8FFzsZnk2cq9FytRYFAAPc/9Lul662T6TBwFzE/e9eDAAAAAAAAMChKLgDvFJTbrqTBAP2EOqieykKAAaw+2WhLrZn0mCg0td8zuLutxEFAAAAAAAAcAgK7gCvUBX5ND4+SwK+uomzGC1XW1EA0MO9bxwft8FXeyBJ5fYzex8AAAAAAABwCG9EAPAyTcnpoyTgv9I12y/NVw0AoE9733X6Oy4ot8M36UVfX7ECAAAAAAAADsIFd4AXqoo8ldvPJQE/la56Xo2Wq7UoAOjwvpd2vXS1fSIN+Km07y3EAAAAAAAAAOyTgjvACzQXql0shF+7j3MzWq5KUQDQoV0vXadOxfZMGvCkbZyzuOttRAEAAAAAAADsi4I7wDNVRT6Jj89xxtKAnaTi04c4i9FytRUHAC3e89J+l4rtM2nAzjZxx3snBgAAAAAAAGBf3ogA4NnS5Xbldthd+v3yPs7n5usHANA68e+oeXx8Ccrt8FzT+PvnVgwAAAAAAADAvrjgDvAMTfFJeQNeZx3narRcbUQBQAv2uyzULzBOpAGvchb3u7UYAAAAAAAAgNdScAfYUVXkk/j4HFxvh325D3XRfSsKAE6026VieyYN2Isyzju7HQAAAAAAAPBab0QAsLNUgFJuh/2ZxflSFfm1KAA4lvj3zjhO+iLPl6DcDvs0ifNeDAAAAAAAAMBrueAOsIOqyM/j46Mk4GDKOBej5WotCgAOuNPNQ13A9dIiHM6ZnQ4AAAAAAAB4DQV3gF9IVz5DfeFTEQoObx3qonspCgD2uM9l8ZGutk+lAQe3ibvcOzEAAAAAAAAAL/VGBAC/5MonHE8W50tV5LfNyyUA8GLx75JJnPQVnk9BuR2OZRp/312LAQAAAAAAAHgpF9wBnlAVeSpCfZYEnMQ2zs1ouVqIAoBn7nDpJal5qF9UBE6zx73zVR4AAAAAAADgJVxwB3jarQjgZFI5MV1y/xwnEwcAu4h/Z8xC/YKicjucdo/zexAAAAAAAAB4ERfcAR7RFGo/SQJa4yHOlUugADyxu6VCbSYNaI2zuLutxQAAAAAAAAA8h4I7wCOqIv8SHxNJQOvcxFmMlqutKACIO9vXL37EmUkDWmcdd7YzMQAAAAAAAADP8UYEAH9VFfksKLdDW6XrvJ+b36cADHtnu46P9FKivxOgnTI7GwAAAAAAAPBcLrgD/ITr7dAZ6zhXo+VqIwqAQe1q56G+2m5fg/Yr4672VgwAAAAAAADArhTcAX7QXBi8kwR0yn2oi+5bUQD0ek+bNHtaJg3olLSnLcQAAAAAAAAA7ELBHeAHrrdDZ6Vy+4fRcnUtCoDe7Wfj+HgfZy4N6Oye9tbLiAAAAAAAAMAu3ogA4A/N9faJJKCTvpYf00sqcTJxAPRqP0svICq3Q7f3NL+HAQAAAAAAgJ244A7wHdfboVfWcS5Gy1UpCoBO7mVZfNzGmUoDesEVdwAAAAAAAGAnLrgDNFxvh97J4qRr7rdxxuIA6MxONonzMf7wU1Buhz5J+9hMDAAAAAAAAMCvKLgD/OG9CKCX5qEuus9EAdBe6WWkONfxh5/jnEsEeulSBAAAAAAAAMCvjEQA8LVQlYX6SijQb5s4V6Plai0KgFbtYqnQfht8TQeG4CLuYvdiAAAAAAAAAB6j4A4QvpaqUrk9kwQMxn2cm9FyVYoC4KQ72DTUxXZ7GAxHGXewt2IAAAAAAAAAHqPgDgxeVeST+PgiCRicbZwPcRaj5WorDoCj7l/j+HgfZy4NGKQzX9QBAAAAAAAAHvNGBADhUgQwSN/KlZ+rIj8XB8BxxD9zU6k9vVyo3A7+PxgAAAAAAADAX7jgDgxeVeT/CXXRFRi2dZyr0XK1EQXAQXauLD7u4kykAURv495VigEAAAAAAAD4kQvuwKBVRT4Lyu1ALQv1NffbOP5cANjfvjWJ8zH+8FNQbgf+4Io7AAAAAAAA8FMK7sDQ/UMEwA/mcb5URT4XBcDLpZeF4lynP1PjnEsE+MFMBAAAAAAAAMDPjEQADFW6JhrqwhXAYzZxrkbL1VoUAM/as2bx8T642A487be4Zz2IAQAAAAAAAPje/4gAGLCZCIBfmMb5VBV5Kl6lonspEoDHxT8v05+bt3EyaQA7SF/UUnAHAAAAAAAA/sQFd2CwqiJP19snkgCe4SbOYrRcbUUB8Ke9ahzqi+1zaQDP9L//z94d3DZuBWEAJg0V4FQQpoJ1KjBz5SXuwNojT5EqsLcC7U1HuYP1SVe7A20HcgdRB8y8FbNIckliyDLJ933AgDz/gAZPwLyhsxUAAAAAAADwVxciAHLUbxetJAH8T2l4cxc9ZC4KgO/nqjTUni4OGm4HXsO5CgAAAAAAAPgbA+5Arm5FALxSFbXp2uapvywDkKXogXXULl5XUZcSAfw3AwAAAAAAAE6hFAGQo65t0pbRShLACTxELcv19iAKIJNzVDpDpaH2G2kAJ/JTnKVexAAAAAAAAAAkNrgD2ek3LleSAE5kHrWP3rIQBTDxM9Rl1H28pq3thtuBU9JTAAAAAAAAgO8MuAM5qkUAnNhl1Cp9HSJKjwEmJ3pbGj5Ng+13fc8DOKVbEQAAAAAAAAB/KkUA5KZrmzScdSUJ4A09Ri3L9fZFFMDIz01VPDaFC4LA2/shzk4HMQAAAAAAAAAG3IGsdG2TNo7+LgngTD5FfTasBYz0zJS2tS+kAZzJxzgzPYgBAAAAAAAAuBABkJkbEQBnlIZDd13bzEUBjEXfs/aF4XbgvH4VAQAAAAAAAJDMRABk5loEwJlVUZuubW7juSzX268iAYYo+lQdj1XUlTSAd1CLAAAAAAAAAEhKEQA56dombSOtJAG8o4fiOOh+EAUwkPPRZXEcbJ9LA3hnP7sMCAAAAAAAAFyIAMhF1zZVYbgdeH/zqH30pIUogAGcj+5TTyoMtwPDcCMCAAAAAAAAYCYCICO1CICB+LYtuWub3+L5sVxvn0UCnFP0n3Qu2hQu/wHDci0CAAAAAAAAwIA7kBPDEsDQVFFPXds8xnNZrrcvIgHeUv9Fm1VhSzIwTLUIAAAAAAAAgFIEQC66ttkXtpQCw/Yp6nO53h5EAZz4HJS+HLGIupMGMHC/+LoNAAAAAAAA5O1CBEAO+qGuShLAwKXB0130rLkogBOeg9K29l1huB0YhysRAAAAAAAAQN4MuAO5MCQBjEUVtena5ilK7wJeLfWQ1Evi9Uvhoh8wHtciAAAAAAAAgLzNRABkohYBMMK+lba5P8RzWa63B5EA/0X/5Zq0rX0hDWCEXPADAAAAAACAzNngDuTigwiAkZpH7bu2MagK/KvoFd96RmG4HRivqr+oAwAAAAAAAGTKgDuQC1sAgTFLQ16rrm3SoHstDuCfUm+IeorXTd8zAPx/AwAAAAAAAEZpJgIgE5UIgIn0sqeubR7juSzX2xeRQN76Lcer4vi1B4CpqKOexQAAAAAAAAB5ssEdmDzbjoEJuonaRX+774dbgTzPOIt47AvD7cD0/CgCAAAAAAAAyJcBdyAHlQiACUqD7XfFcdD9RhyQj3R5L2pXHDe3u+QC+A8HAAAAAAAATMpMBEAGKhEAE+9xX7q2eY7nslxvv4oEpil+5+n3nobaXWoBpq4WAQAAAAAAAOTLBncgBx9EAGSgLo7b3FdRNjrDxMTv+j79xgvD7UA+fc95BgAAAAAAADJlwB3IgcEIICeLqH3XNgtRwPjFb7mO2sfrnTMNkJkrEQAAAAAAAECe/hCAvbvXitzK+wUszfIFcK7g1CQEJMObkbmcKjFzBS5CRQNXAHUFQKSQ8hXAJEopZ5PBJBNMQr1XYM4V6OzdJWzc7qb5qA9J+3nW2ku0x+Pu/lFCu+Cnv74TAZCAsQiAxMQSbJzk/lM4nuRVPRcJ9Es4f0fxPM5MbAfS3s8AAAAAAAAACTLBHQBguOLk09umLK7asizQceFc3QnrLHwYp7YrtwOp72MAAAAAAACABCm4AwAM3ySsu7Y0C3RUOEdjof0urFNpAAAAAAAAAACp+k4EAABJ2AnrtCmLn8LxJK/qG5FAN7RPWLgKaywNAAAAAAAAACB1Cu4AAGkZhXXdlMU8HI/yql6IBLYjnIfxxpPjzMR2AAAAAAAAAIDf/EUEQAIWIgD4k3FYD01ZnLclW2CDwnl3GA53mXI7AAAAAAAAAMAfKLgDKViIAOCr4vToWHSfiALWL5xro7Buw4fX2fKJCgAAAAAAAAAAPPOdCIAELEQA8KI4wf2qKYufwnGaV/VcJLBa7ZMS4g0lJrYDvI79CAAAAAAAACTKBHcgBf8rAoBXGYd125TFVVvGBVagfULCXabcDgAAAAAAAADwTQruQAoWIgB4k0lYD01ZHIsC3i+cQ/th3YYPr8IaSQTA+zgAAAAAAADg23IRAEPXlMU4HG4lAfAui7CO8qqeiwJevfeIT0CI09rdJALwTmHv4XtWAAAAAAAAkCg/LASS0JRFIwWAD7kJ6ySv6oUo4MU9x2G2nNi+Iw2Ad7sPe47/EQMAAAAAAACk6TsRAIlYhDUSA8C7xdLuuCmLy3C8yKv6USTwu3BuxH1GLLaPpQGwkvdvAAAAAAAAQKL+IgIgEfciAPiwOJH6NKy7dko1JC+cCzthnYUPHzLldoBV+UUEAAAAAAAAkC4FdyAV/xYBwMqMwrpuyuK2nVoNSWpv9LjLljd+ALA6blAGAAAAAACAhCm4A6mYiwBg5cZhPbTTqyEZ8caOeINH+PA6W97wAcAK5VXt/RsAAAAAAAAkLBcBkIqmLBopAKxNnLR6lFe1iasMeS+xEw7HmYntAOt0E/YTfxcDAAAAAAAApMsEdyAlcxEArM1+WHdNWZy3JWAYlPC6Poyv8Uy5HWDdfhEBAAAAAAAApE3BHUiJogTA+sXp1ndtGRh6L7yWR2Fdhw/jGkkEYO1uRAAAAAAAAABpU3AHUqIoAbAZo7Cum7K4jeVgcdBX4fV7li2ntrthA2Az7vOqXogBAAAAAAAA0paLAEhJUxa/hsOOJAA2ahrWRV7Vj6KgJ/uFcTich7UvDYCNOgn7hQsxAAAAAAAAQNpMcAdSY4o7wOadhvUQp2GH5SYjOiu+PsO6Ch/eZsrtAN6vAQAAAAAAAFuh4A6k5p8iANiKWGyPRfe7piwOxUHXhNflJBwewppIA2Ar5nlVL8QAAAAAAAAA5CIAUtOUxa/ZsmgJwPbECa0nimx0YF8wCoc4tX0sDYCtOgr7gpkYAAAAAAAAABPcgRR57D3A9sUp7nGa+7Eo2Ibw2tsJ6yxbTm0fSwRgqx69TwMAAAAAAACeKLgDKfpZBACdEJ+mcd6URSy674uDTQmvt0k43IV1Kg2ATrjJq/pRDAAAAAAAAECUiwBIUVMWcVrrSBIAnXIR1lTBjTVe/yfZstRuDwDQLX8N1/+FGAAAAAAAAIBIwR1IUlMWx+FwLgmAzonl9lhyvxAFK7zuTzLFdoCumofr/g9iAAAYht29g8Nw+DGsePz7f//zr7lU4M3n0U57Dn06l8J55Gf6AAAAJOc7EQCJmmXLotuOKAA6JX5dPm/K4qdwPMmrei4S3kuxHaAXLkUAANBvn5Xafc8d3ncejdpzKH5fdF8iAAAApM7d3kCymrK4CoeJJAA6bZYti+6PouAN1/h4fVdsB+i+RbjG/1UMAAD98my69PfZy6X2H0xwhxfPpVH2ilK7Ce4AAACkyAR3IGXTTMEdoOvi1+nDpiwu86o+EwcvUWwH6OV7MgAAeuBZqf1pUjvwvnNplJnUDgAAAN+k4A4kK6/qRVMWs0zJHaDr4g9QT8PX7PhDn6Pw9XsuEr7ib5lyO0BfxKez3IgBAKC7lNphZefSKFNqBwAAgDdRcAdSZ4o7QH+MwrptyiKW4U7ijUoi4bnwmjgJr49/hw/Ps68/Hh2AbohPZ3kUAwBAtyi1w8rOpVGm1A4AAADvlosASF1TFleZkjtA38RCXCzGnYmCL1zb4w8NrzPT3AG67P8ouAMAdENbxB1nqy+1//Df//xrLmESO5dWXmoP55Gf6QMAAJAcb4aB5DVlESfSPGQmvQL00SJbTnO/EQVfuL7fZiZkAXTRLFy7j8QAALA9G5oureBOCufSfnsejdd1Lim4AwAAkCJvhgGyTyW4s3A4lQRAb83DOsqreiEKPrvGe1ILQPf81TUbAGDzNlRqf07BnaGeS0+l9ng+jdb9+ym4AwAAkCJvhgFaTVnEKe4jSQD02jSsi7yqH0XBs2v8cTicSwKgE0xvBwDYoC2U2p9TcGdI59JGS+3PKbgDAACQou9EAPCbWIq8EgNAr8WncfzUlMU0r+qZOIjCa+EivCbiTQ+x5L4jEYCtv+8CAGCNtlxqhyGdS1srtQMAAEDq3O0N8Iwp7gCDMg/rJK/qe1HQXufjDyVvMyV3gK1dm8N1+QcxAACsXkeLuCa441xaARPcAQAASJEJ7gB/ZIo7wHCMw7pryuIifn3Pq/pRJGmLNzuE18MP7bXeBDuAzTsSAQDA6pguDc4lAAAAGCp3ewN8xhR3gEGK5fY4zX0mCsK1Pk5wj5PcldwBNmcWrsMK7gAAH9SzIq4J7nT5XBqHw499OJdMcAcAACBFJrgD/Jkp7gDDEwvNV01ZxB8Ax2nuc5GkK07zbye5K7kDbPZ9FgAA72C6NKzsXIrn0FOpfUciAAAA0F3u9gb4AlPcAQZvli0nuj+KIunr/acbH7LlDzUBWON11/R2AIC3eVbEHWf9/V61Ce506VzqbandBHcAAABSZII7wJeZ4g4wbJOwDpuyiNPcL8SRpvYGh7+H18FV+5oAYPXi19oTMQAAfJvp0uBcAgAAAJbc7Q3wFaa4AyTjPltOc5+LIunrvpI7wHrEm8nOxAAA8GUDL+Ka4I5zaQVMcAcAACBFJrgDfF2cMngtBoDB2w/rtimLm2xZdF+IJD3h834UXgPxw4k0AFYmTm/3pBQAgM+YLg3OJQAAAOBl7vYGeEFTFrfhMJYEQDJiEe/SpNmkr/0muQOsTrxxTMEdAEje7t5BLN7GAu73WVpFXBPcWcf5lFyp3QR3AAAAUuTNMMALmrIYh8OtJACSswjrKK/quSiSvP4ruQOs4FoarqN/FQMAkKpnpfanIm6KFNxxLq2AgjsAAAAp8mYY4BtMcQdI2k22nD67EEVy138ld4CP+Xu4ft6IAQBIiSLunyi441xaAQV3AAAAUuTNMMA3NGUxCocHSQAkbRrWRV7Vj6JIag+g5A7wPvNwzfxBDABAChRxX6TgjnNpBRTcAQAASJE3wwCvoOAGQLDIltPcTaNNaw9wFw77kgB4kx/C9XIuBgBgqHb3DkbZ8qmfirjf2BcquPONc0mp/RUU3AEAAEjRdyIAeJU4uTd+c3VHFADJGoV13ZTFPByP8qpeiCQJcQLxbabkDvBaM+V2AGCI2lJ7/B7xT94jwofOJaV2AAAA4Jvc7Q3wSk1ZnIXDqSQAaF2ENc2r+lEUg98DxB+8KrkDvM5f3QQGAAyFUvuHmeDO07mk1P4BJrgDAACQIm+GAV6pLbc9ZKa4A/C7WG4/yat6JorB7wNG4XBnHwDwonjj15kYAIA+U2pfKQV351I8l77PlNo/RMEdAACAFHkzDPAGTVkch8O5JAD4zDxbFt3vRTHofUAsNsRJ7kruAH8Wb/r6qyebAAB9pNS+NgruziVWQMEdAACAFHkzDPBGTVnEKe4jSQDwBRfZcnqtct9w9wHjbFlyB+CP4o1eF2IAAPpid+8glm9jCTeWcUcSWQsF9zTOpVGm1L5WCu4AAACkyJthgDdqyiJ+o/ZaEgB8RSy3T5X8Br0XmITDlSQAfrMI172/igEA6Dql9o1TcB/uuTTKlNo3RsEdAACAFHkzDPAOTVnEya1jSQDwgvtsOc12LopB7gXOw+FYEgCf/D1c727EAAB0kVL7Vim4D+tcGmVK7Vuh4A4AAECKvBkGeIemLMbhcCsJAF5hli2L7o+iGNx+ID7R5VASQOLm4Rr3gxgAgC5Rau8MBff+n0ujTKl96xTcAQAASNF3IgB4uziNtymLOKFQqQ2Ab5nE60W4blyG68eZOAblKFsWJfyAF0jZiQgAgC7Y3TuI36v9MVs+eXMkEXj3ubTfnkdK7QAAAMDWuNsb4J2ashiFw4MkAHiDRVhH8UYpUQxmPxB/0Buf6rIjDSBBs3BNOxIDALAtz0rth96XdZIJ7v05lzz1oMNMcAcAACBF3gwDfEBTFufhcCwJAN4oPgXkJK/qhSgGsR+IP/y9lgSQmMew/se1DADYNKX2XlFw7/a5pNTeEwruAAAApMibYYAPaMoi/gAlTnH3gxQA3ioWAy/zqj4TxSD2BPHzeCoJICFT1zAAYFOU2ntLwb1755JSew8puAMAAJAib4YBPkihDYAPWmTLae43ouj9nuA2HMaSABK5dsXp7Y+iAADWYXfvIJbYYwH3+0ypvc8U3LtxPim195yCOwAAACnyZhhgBZqyiFPcR5IA4APmYR3lVb0QRW/3A7FwcWdPACQgXq9mYgAAVulZqf1pUjv9p+C+vfNJqX1AFNwBAABIkTfDACvQlEX8JvG1JABYgWlYF6bi9nZPEH+AfCcJYMDuwzXqf8QAAKyCUvvgKbhv9nxSah8oBXcAAABS5M0wwIo0ZXEbDmNJALACi7CmpuP2dk9wFg6nkgAG6odwfZqLAQB4L6X2tPaOCu5rP5+ezqVxptQ+WAruAAAApMibYYAVacpiHA63kgBgheZhneRVfS+K3u0L3PgGDNFNuCb9XQwAwHvs7h3E90j/yJTaU6Lgvr7z6ao9l3akMXwK7gAAAKToLyIAWI12iuFMEgCs0Disu6YszsPyA8t+iQXQRzEAA3MiAgDgg+9xldthNSaZcjsAAAAwYAruAKs1FQEAa3Ac1kNTFhNR9ENe1bHcfiQJYEjvdcLXtoUYAAAAAAAAgHVTcAdYobbwoeQOwDrEqVxXTVnchjUWRy/2BTfhcCEJYAAefT0DAAAAAAAANkXBHWD1YvHjUQwArMk4rFhyj2V3j6Luvnjj20IMQN+/lrVPpgAAAAAAAABYOwV3gBVrix8nkgBgzSZhPTRlcSyKzu8LjiQB9NgifC0zvR0AAAAAAADYGAV3gDXIq3qWmdYKwPrFCe7nTVnchTUWR2f3BfNs+YQXgD5ykw4AAAAAAACwUQruAOujCALApuyHdduUxXVYI3F00jRz8xvQP/P2Jh0AAAAAAACAjVFwB1iTtggylwQAG3QYVpzmfiaKzu0LHjM3vwH94+sWAAAAAAAAsHEK7gDrpRACwKbthHXalMVDWGNxdEd789tMEkBPXISvWwsxAAAAAAAAAJum4A6wRm0hZCYJALZgFNZtUxZxjcTRGSdhPYoB6Lj4dWoqBgAAAAAgVbt7BzthTcK6DmtfIgCwWQruAOunyAbANo3DitPcz8LaEcd25VX92O4NALps2n69AgAAAABIxu7ewSis41hqD7/8NayrsA6z5ROUAYANUnAHWLO2GHIpCQC27DSsu6YsDkWx9b3BLBzmkgA6ahG+Tl2IAQAAAABIwbNS+1345UNY59my1A4AbJGCO8AG5FV9Fg4LSQCwZaOwrpuyuA1rJI6tMsUd6KojEQAAAAAAQ/aVUvu+ZACgOxTcATZHkQ2ArhiH9dCUxXlYHqm4BXlV34eDCclA18zD16e5GAAAAACAodndO9gP6zysWGhXageAjlNwB9iQvKpvwmEuCQA65DhbFt0notiKaViPYgA6xE25AAAAAMBgfFZqj9Pa48/GRpIBgO5TcAfYLIURALomTnC/asriNixTKjYor+pHewOgQ2bt0yUAAAAAAHprd+/gUKkdAPpPwR1gg9rCyEwSAHTQOKy7pixi2X1HHBvbG8R9gUIpsG1uuAEAAAAAeqsttV+F9Wv45XWm1A4AvafgDrB502xZIAGALpqE9dCUxbEoNkapFNi2y/apEgAAAAAAvfCFUvskWz65GAAYAAV3gA3Lq3oRDpeSAKDD4jf/zpuyiBPdx+JY+95gHg5zSQBbsghfh87EAAAAAAB02e7ewU5Yk7Cuw2oypXYAGLTvRACwFRdh/ZR5JBYA3bYf1m1TFrNwPDHdd63iFPc7MQBb+voDAAAAANA5sdQeDodh/dgeAYBEmOAOsAVtQXAqCQB6YhLWQ1MWZ6JY297gPhxmkgA2bB6+/tyIAQAAAADoit29g1FYx3FSe/jlr2FdZcrtAJAcBXeALcmrehYOc0kA0BNxQsZpUxax6D4Wx1q4+Q3YNNPbAQAAAICte1Zqj0+7fQjrPFNqB4CkKbgDbJciGwB9MwrrtimL67BG4lidvKoXmSnuwObM2qdHAAAAAABs3FdK7fuSAQAiBXeALcqrep4psgHQT3Fqxl1TFmdh7YhjZdz8BmzCY2Z6OwAAAACwYbt7B/thnYcVC+1K7QDAVym4A2xfLLI9igGAHorF9tNsWXT3mMgVMMUd2JDL8PXGexAAAAAAYO0+K7XHae3H2fKJwQAAX6XgDrBlbZHtUhIA9NgorOumLG7DGonjw0xxB9ZpEd6DnIkBAAAAAFiX3b2DQ6V2AOAjFNwBuuEirIUYAOi5cVgPTVmchbUjjvcxxR1YsyMRAAAAAACr1pbar8L6NfzyOlNqBwA+QMEdoAPyqn7MTGsFYDhOw7prymIiinezLwDWYR7ee8zFAAAAAACswhdK7ZOwDEECAD5MwR2gI/KqnoXDvSQAGIhRWFdNWdyGtS+ON+8LFpkp7sDqmd4OAAAAALzb7t7BTliTsK7DajKldgBgTb4TAUCnnIR1KwYABmScLae5X4TjtH1qCa9zmS2/KQywChftzTMAAAAAAK8WS+3hcBjWj+0RAGDtTHAH6JC8qufhcCMJAAboOKyHpiwmonj1viA+2WUuCWAF4s1FUzEAAAAAAK+xu3cwCus4TmoPv/w1rKtMuR0A2CAT3AG658QbQwAGKk74uGrK4h/xetfe2MXL4hT3sRiAD/IEDQAAAADgRbHUni27Cj+FtS8RAGCbTHAH6Ji8qheZ6YoADFv8puhtUxax7L4jjhf3BfHJLgtJAB+wCF9LLsQAAAAAAHzu2aT2u/DLh7DOM+V2AKADFNwBuikWUExYBGDoJmE9NGVxLIoXufEN+IgjEQAAAAAAT3b3DvbDOg8rFtqV2gGATlJwB+igvKpjuf1EEgAkIE5wP2/K4i6ssTi+KE5xd+Mb8B7z8N5iLgYAAAAASNtnpfY4rT0OHxpJBgDoKgV3gI7Kq3oWDveSACARcTLIbVMW12GNxPGHPUEst99IAngH09sBAAAAIFG7eweHSu0AQF8puAN0mynuAKTmMKw4zf1MFH8wFQHwRhd5VS/EAAAAAADpaEvtV2H9Gn55nSm1AwA9peAO0GF5Vc8zE1sBSM9OWKdNWTyENRbHpz3BIhzmkgBeKT75wY0xAAAAAJCAL5TaJ9nyZy0AAL31nQgAOi9OcT8UAwAJGoV125TFPByPTCLOfg5r7GUBvMI0fM18FAMAAAAADM/u3kEsr8cOwY+ZLgEAMFAmuAN0XFvmM30RgJSNw4rT3M/CSnniSHyqi8Iq8C334T3EhRgAAAAAYDhiqT2sSVhxQnuc1H6VKbcDAAOm4A7QD7GgotAGQOpOw7pryiLJb9i205hvvAyAbzgRAQAAAAD03+7ewSisY6V2ACBFCu4APdAW2hRVACDLRmFdN2VxG9Yowb//pZcA8IKb8N5hLgYAAAAA6Kdnpfa78MuHsM4zpXYAIEEK7gA9kVf1LBzuJQEAn4zDemjK4jysnYT2A3EvsPDpB77CTbEAAAAA0DNfKbXvSwYASJmCO0C/KKwAwB8dZ8ui+yShv/PPPu3AF0zzql6IAQAAAAC6b3fvYD+s87BioV2pHQDgMwruAD2SV/U8HGaSAIA/iBPcr5qyuA0rhW/+2gsAn3sM60IMAAAAANBdn5Xa47T2OMRnJBkAgD/7TgQAvTMN6zBblvkAgN+Nw7prymIWjid5VT8O8S8ZJzSHv+N9ZpIL8LvBfs0DAAAAgD7b3TuIP9v/Plv+jH8kEQCA1zHBHaBnYqktHC4lAQBfNQnroSmL4wH/HX/2aQZa9+E9wkwMAAAAANANsdQe1lVYv4ZfXmcmtQMAvJkJ7gD9dBHWT94EA8BXxSednDdlEa+XcbLxfGB/v5v49/NpBuLXOBEAAAAAwHa1k9p/zDyNHQBgJUxwB+ihvKofw2EqCQD4pv2wbpuyuAprMN9Qbp/ocu/TC8mbDfAGHgAAAADovN29g52wJmFdh9Vky0ntk0y5HQBgJRTcAXoqr+pZOMwlAQCvMgnroSmLswH9nX72aYWkuekVAAAAALYnFtqvsuXEdgAAVkzBHaDfFFoA4PXi1JTTpixi0X08gL/PjU8pJO2yfZoDAAAAAAAAwKAouAP0WF7V83CYSQIA3mQU1m1TFtdhjXq8D1iEw8KnE5IUz/0LMQAAAAAAAABDpOAO0H9xivujGADgzeJjQ++asjgLa6enfwdT3CHR9wB5VXsPAAAAAAAAAAySgjtAz7XTWy8lAQDvEovtp9my6H7Ywz//P30KITnz8B5gJgYAAAAAAABgqBTcAYbhIqyFGADg3UZhXTdlcRvWqC9/6Lyq55knuUBqTkQAAAAAAAAADJmCO8AA5FUdi21TSQDAh43DemjK4iysnZ78mec+bZCMWdj734sBAAAAAAAAGDIFd4CByKt6lim4AcCqnGbLovukB3/WX3y6IAnxplbT2wEAAAAAAIDBU3AHGBaFFwBYnTjB/aopi9uw9jv857zxqYIkXLZPbgIAAAAAAAAYNAV3gAHJq/o+HGaSAICVGod115TFeVg7Hbz+L8Jh4dMEg7YI5/qZGAAAAAAAAIAUKLgDDE+c4m6yIwCs3nFYD01ZTDr4Z5v79MCgHYkAAAAAAAAASIWCO8DA5FUdy+2XkgCAtYgT3K+asogT3ccd+nP94lMDgzUPe/y5GAAAAAAAAIBUKLgDDFBe1WfhsJAEAKzNfli3TVnEsvtOB/48c58SGCzT2wEAAAAAAICkKLgDDNeJCABg7SZhPTRlcbzNP0Re1YtwePTpgMG5aM9vAAAAAAAAgGQouAMMVF7VN5lprgCwCXGC+3lTFrHoPt7in8N1H4Yl3rQyFQMAAAAAAACQGgV3gGEzxR0ANmcU1m1TFtdhjbbw+//iUwCDMs2r2pMZAAAAAAAAgOQouAMMWF7V9+FwIQkA2KjDsO6asjjb8O97L3oYjPuwl7ePBwAAAAAAAJKk4A4wfNOwTH4EgM3aCeu0KYuHsMab+A3zqp6LHQbDk5gAAAAAAACAZCm4AwxcXtWx3D6VBABsxSis26Ys4hpt4PczxR3678YNKwAAAAAAAEDKFNwBEpBX9UU4LCQBAFszDitOcz8La2eNv4+CO/Sf6e0AAAAAAABA0hTcAdJxJAIA2LrTsO6asjhc03//3yKGXpvmVb0QAwAAAAAAAJAyBXeARORVPQ+HuSQAYOtGYV03ZXEb1v6K/9smuEN/LcK6EAMAAAAAAACQOgV3gLSY4g4A3THOltPcz8PaWdF/U8Ed+itOb38UAwAAAAAAAJA6BXeAhORVvchMhQSArjkO66Epi8kKrvWxHLsQKfTOPJy/MzEAAAAAAAAAKLgDpGgalsmQANAtcYL7VVMWt2Htf/C/tRAn9M6JCAAAAAAAAACWFNwBEtNOdlWgAYBuGod115RFLLvvvPO/8YsYoVdmYY9+LwYAAAAAAACAJQV3gATlVT0LByUaAOiuSVgPTVkcv+P/60kt0B9uPgUAAAAAAAD4jII7QLoUaQCg2+IE9/OmLOJE9/Eb/n9uYoP+uGyfsAQAAAAAAABAS8EdIFF5Vc/D4UYSANB5+2HdNmVxFdboFf++gjv0wyLsyc/EAAAAAAAAAPBHCu4AaYtT3E2MBIB+mIQVp7mfvfQvmQYNvXEkAgAAAAAAAIA/U3AHSFhe1YtwuJQEAPTGTlinTVk8hDV+4d8zxR26bd4+UQkAAAAAAACAzyi4A3AR1kIMANAro7Bum7K4Dmv0hf/dFHfoNtPbAQAAAAAAAL5CwR0gcXlVxwLcVBIA0EuHYd01ZXEW1s6zf26CO3TXtH2SEgAAAAAAAABfoOAOQCy5z8JhLgkA6KVYbD/NlkX3w/af/T+xQCfFm0svxAAAAAAAAADwdQruADwxxR0A+m0U1nVTFreigM46aZ+gBAAAAAAAAMBXKLgD8Ele1fNwmEkCAHpvnC0nugPdct8+OQkAAAAAAACAFyi4A/DcSVgmSgIAwHr22gAAAAAAAAB8g4I7AL/JqzqW2y8lAQAAKzVrn5gEAAAAAAAAwDcouAPwB3lVn4XDQhIAALAS8SbSqRgAAAAAAAAAXkfBHYAvOREBAACsxGVe1QsxAAAAAAAAALyOgjsAf5JX9U04zCUBAAAfsmifkAQAAAAAAADAKym4A/A1RyIAAIAP8WQkAAAAAAAAgDdScAfgi/KqXoTDhSQAAOBd5u2TkQAAAAAAAAB4AwV3AF4yDetRDAAA8GaeiAQAAAAAAADwDgruAHxVXtWx3H4iCQAAeJOL9olIAAAAAAAAALyRgjsAL8qrehYO95IAAIBXiTeJTsUAAAAAAAAA8D4K7gC8hinuAADwyr1z+yQkAAAAAAAAAN5BwR2Ab8qreh4ON5IAAIAX3bdPQAIAAAAAAADgnRTcAXitOMXdJEoAAHh5zwwAAAAAAADAByi4A/AqeVUvwuFSEgAA8EWz9slHAAAAAAAAAHyAgjsAb3ER1kIMAADwB/FJR1MxAAAAAAAAAHycgjsAr5ZXteIOAAD82WX7xCMAAAAAAAAAPkjBHYA3yat6Fg5zSQAAwCeLsEc+EwMAAAAAAADAaii4A/AeJyIAAAB7YwAAAAAAAIBVU3AH4M3yqr4Ph5kkAABI3DzsjW/EAAAAAAAAALA6Cu4AvFecVPkoBgAAEnYkAgAAAAAAAIDVUnAH4F3yqo7l9qkkAABI1EXYEy/EAAAAAAAAALBaCu4AvFte1RfhsJAEAACJcbMnAAAAAAAAwJoouAPwUUciAAAgMSftE40AAAAAAAAAWDEFdwA+JK/qeTjMJQEAQCLmYQ88EwMAAAAAAADAeii4A7AKprgDAJCKqQgAAAAAAAAA1kfBHYAPy6t6kSn6AAAwfLP2CUYAAAAAAAAArImCOwCrchHWoxgAABiouNc9EQMAAAAAAADAeim4A7ASeVUr/AAAMGSX7Z4XAAAAAAAAgDVScAdgZfKqnoXDXBIAAAzMIux1z8QAAAAAAAAAsH4K7gCs2lQEAAAMzJEIAAAAAAAAADZDwR2Alcqreh4OM0kAADAQ83aPCwAAAAAAAMAGKLgDsA4nYT2KAQCAATC9HQAAAAAAAGCDFNwBWLm8qmO5/VISAAD03DTsbRdiAAAAAAAAANgcBXcA1iKv6rNwWEgCAICeinvZCzEAAAAAAAAAbJaCOwDrdCQCAAB6ato+mQgAAAAAAACADVJwB2Bt8qqeh8NcEgAA9Mw87GVnYgAAAAAAAADYPAV3ANbNFHcAAPrmRAQAAAAAAAAA26HgDsBa5VW9CIepJAAA6ImLsIe9FwMAAAAAAADAdii4A7AJF2E9igEAgI6Le1Y3ZwIAAAAAAABskYI7AGuXV3UsCp1IAgCAjpu2e1cAAAAAAAAAtkTBHYCNyKt6Fg5zSQAA0FH3Yc96IQYAAAAAAACA7VJwB2CTpiIAAKCjPHEIAAAAAAAAoAMU3AHYmLyq5+EwkwQAAB0za/eqAAAAAAAAAGyZgjsAmxYnYz6KAQCAjoh7U08aAgAAAAAAAOgIBXcANiqv6lggupQEAAAdcRn2qAsxAAAAAAAAAHSDgjsAG5dX9Vk4LCQBAMCWLdq9KQAAAAAAAAAdoeAOwLYciQAAAHtSAAAAAAAAAJ5TcAdgK/KqnofDXBIAAGzJvN2TAgAAAAAAANAhCu4AbJOJmQAA2IsCAAAAAAAA8BsFdwC2Jq/qRThMJQEAwIZN270oAAAAAAAAAB2j4A7Atl2E9SgGAAA2ZNHuQQEAAAAAAADooO9EAMA25VX92JTFSfjwShoAAGzASdyDigEAPm5372AUDqMP/Cce//uff91LEgAY0P5oPxx22rXf/uP/+9me6aN7qG+J+6vn3/tYhPW/T/uv9n//9O+FvZjvkQAAAJ2k4A7A1uVVPWvK4qfw4VgaAACs0TzsPW/EAAB/9pUy1t/aX2ef/fNV/r5f+seLdj355fn1vD0qZAEA29o3jbPfS+p/e7ZP2unIH3H/DX+X53uvuGIR/lNBPuy15j7bAADAtii4A9AV00zBHQCA9ToRAQAp60EZ68nTn/HJ+NnHp8/+PvGwyBSyAID17J322z1JPH6frX/yelf2Xs/3Wk8T3+P6d9xz2WcBAACboOAOQCfkVT1vymIWPpxIAwCANbgIe857MQCQgraM9VTIGnIZK8teLmQt2vVLe4xT3+0HAIAv7Z/iDX/j7PcyexdvAtyGp1zGn+2znpfe5/ZYAADAqim4A9AlcaLmYeYbhgAArFacNjYVAwBD9KzM/rf2OJbKb0btGj/LKx7m2e+FLKV3AEhzD/VU3P4++73YzuvtP8/s2R7rl3afFUvvj2ICAADeS8EdgM7Iq/qxKYtYPDqXBgAAK3QS95piAGAI2kL7OPu9jGVQwNuNsz+W3uM+YZ79PoF0LiIAGOQ+Kl7/f8wU2je1x7pv91i/hP3VjXgAAIC3UHAHoFPyqr5oyuIf2XAfmw0AwGbNwx5zJgYA+kqhfSNipoftOn02gfSf2bLwbsI7APRzH/V0jf/RPmornqa8H9tfAQAAb6XgDkAXHYV1KwYAAFbgRAQA9ElbxBpnvxexRlLZinG7nia8x6mjv8Tjf//zL0+GAYDu7qXi3ul5qZ1u7q8WT/sr090BAIAvUXAHoHPyqp43ZRG/mXUoDQAAPmAW9pYmggHQec+KWN9nvh/SRfGmg0m7rsLna54tp4/GsvtCPACw9b3U06T2+ITgfYn0Qtz/HmfL6e5PNxP+U9kdAAB4ouAOQFfFSZt+oAsAwHs9Zqa3A9Bhz0rtP2WKWH0zbtd5+DzGm+l+zpTdAWAb+6mnvZSfJ/XbbzcTKrsDAABPFNwB6KS8qhdNWUzDh6fSAADgHaZhT/koBgC6pJ0uOsmU2odkv11PZffLbFl2tw8BgPXsp0bZclJ73FPtSGRwvlR2/znsreaiAbbsp/B1aSyGTpu7XgAMi4I7AF12kS1/4DsSBQAAb3CfV/WFGADoit29g0k4/JiZLjp0seh+FVf4nD+VsUweBYDV7afiz4zG0kjG87L7Ils+NWfmqTnAlkxE0AtzEQAMh4I7AJ0VJ242ZXESPryWBgAAb3AiAgC2bXfvIJadYwlrkpkumqJ4M8OhMhYAfGg/NWr3Uv+wn0pefC3Epz6fupEQAADSoOAOQKflVX3TlMU8M5EDAIDXmYU95FwMAGyL6aJ8ZpT9sYx16ZHpAPDN/VS8UTCW2ifS4AvcSAgAAAlQcAegD+IEzjsxAADwDY+Z6e0AbIHporzS8zLWNKyb//7nX49iAYDf9lTjbHlj2FgavMIo+/1Gwlm2nOo+FwsAAAzDX0QAQNflVX0fDheSAADgG6Zh76gkBsDGxBJWWFfhw4dsWa5Rbuc1RmF9et2E189ZWF43ANhT7R3chg/jGkuEd5jE1098HbVPVAIAAHrOBHcA+iJOtZpkflAMAMCX3edV7aZIADbCdFFWZKd9Hf2jnTp6+d///GshFgDsqeDd4msp3jARX1eemAMAAD1mgjsAvdBO4jyRBAAAX2GvCMDaxWmQYcVp7aaLskqx6H6cLSe6X4U1EgkAA99TmdjOusX9lCfmAABAjym4A9AbeVXPwuFeEgAAfGYW9opzMQCwLs+K7bEkM5IIazTJfi+6K2IBMLQ9lWI7m/b0xBxFdwAA6BkFdwD6xmROAACei0/6mYoBgHVQbGeLJpkiFgDD2VMptrNtiu4AANAzCu4A9Eo7mXMmCQAAWpdhj7gQAwCr1Jaw7jLFdrZLEQuAvu+pRvGpJJliOx3dX4kDAAC6S8EdgD6KU9wfxQAAkLxFXtVnYgBgVT6bLrovETriqYh1F58qIA4AerCn2mnLw/FJOK5ddHZ/FZ/WZH8FAADdpOAOQO/kVR3L7ZeSAABI3pEIAFgF00XpiVFYV/EmjHgzhjgA6Oi+apIti+2n0qBH+6sH+ysAAOgWBXcAeqmd1LmQBABAsm7CnnAuBgA+4tl00bvMdFH6YxxWLLnHMtaOOADoyL5qv30STrxp0PWJvhm1+6u4RuIAAIDtU3AHoM9M7AQASFN8os+JGAD4iN29g8NsWWyP00WVsOijSVhx2uixKADY4p4q3jB43u6rxhKh58bt/urcjYQAALBdCu4A9FY7sfNGEgAAybkMe8GFGAB4jziRsZ0uep0tJzVCn8Xi1blpowBsaV81zpbFdjdbMTTxNR2L7hNRAADAdii4A9B3JncCAKRlkVf1mRgAeI/dvYN4DTFdlCGKr+mH9jUOAOveUz1NbY83DY4kwkDFGwmv2hsJ98UBAACbpeAOQK+1kzunkgAASMaRCAB4q1hICSsW20+zZVEFhuo0vtaVsABY475qnJnaTlo+vebdSAgAAJul4A7AEFyEtRADAMDg3eRVPRcDAG/xbGq7wi+piK/1OGlU8RCAdeyrTG0nVW4kBACADVJwB6D38qp+DIcTSQAADJo9HwBv8tnUdkhNfFLBeTgHYtHdUwsA+Oi+amRfBZ/Ecrtp7gAAsAEK7gAMQl7VN+EwlwQAwGBNw55vIQYAXqOdXB2ni5quSOrGYT2Ec2IsCgDeua86zDwNBz532t5IOBIFAACsh4I7AENioicAwDDd51V9IQYAviVOqg7rOnx4ni0nWAPLc+HWpFEA3rG3inuqa/sq+KJxtpzmPhEFAACsnoI7AIORV/V9OCg+AQAMjxsZAfimdkL1Q1iH0oAvepo0qqQIwLf2VfGmwfg0nGNpwIvivuoqnC9X9lgAALBaCu4ADM00rEcxAAAMxiyv6rkYAHhJO5k6lrCUSuBl42w5aXRfFAB8ZV8VrxF37TUDeJ2JPRYAAKyWgjsAg5JXdSy3m/AJADAM9nYAvOjZdNFTacCrjcKKk9wnogDgs71VfBLObXutAN6+x7qzxwIAgNVQcAdgcPKqnoXDXBIAAL03bW9gBIA/MV0UPiQ+7eAqnEfnogCg3VtNwuE680Qc+Ki4x4rLuQQAAB+g4A7AUJn0CQDQb/d5VV+IAYAvaQtYsdw+kgZ8yLECFgDtDU9XkoCVie9X4hNzvF8BAIB3UnAHYJDyqr4PB4UoAID+OhIBAF8Sy7iZAhas0iRbFrCU3AHS3VsdSwJW7tMTp8I5NhYFAAC8nYI7AEM2DetRDAAAvXPR3rAIAL+J5duw4tT2iTRg5WIBK5bc90UBkNTe6treCtZqp91jOc8AAOCNFNwBGKy8qmO5fSoJAIBesYcD4E/a0m0styvfwvoouQOks7f6VLoN61AasBFX7dMSAACAV1JwB2DQ8qq+CAfTPwEA+uOkvVERAD7Z3TsYZ8sC1kgasHZPU0aV3AGGu7d6Krf7Wg+bNQnn3217DgIAAN+g4A5ACk5EAADQC/O8qmdiAODJ7t7BJFsWsJRAYHOU3AGGu7dSboftGrf7rJEoAADgZQruAAxeXtXzcJhJAgCg845EAMCT3b2Ds3C4kgRsxVPJ/VAUAIPZWym3QzfEc/DOzYQAAPAyBXcAUhGnuD+KAQCgs6Z5VS/EAEC0u3cQi+2nkoCtikXI6/ZJCgD0e2+l3A7d22fFmwnHogAAgC9TcAcgCXlVx3L7VBIAAJ20CPu1MzEAEMtXbbl9Ig3ojHMTRgF6T7kduuep5O69DwAAfIGCOwDJyKv6IhzuJQEA0DlHIgDg2WTRiTSgU57KV4qRAP3cY8WbB30Nh+66UnIHAIA/U3AHIDUnIgAA6JSbvKrnYgBI27Nyu/IVdJOSO0A/91iejAP9oOQOAACfUXAHIClteWomCQCAznADIkDilNuhN5TcAfq1xzrLlNuhT2LJ/VwMAACwpOAOQIpiiepRDAAAWzfNq3ohBoB0KbdD78Rz9ro9dwHo7h5rEg6nkoDeOW6fvAAAAMlTcAcgOXlVx3L7VBIAAFsV92QXYgBIl3I79NYoW05yV3IH6OYeK+6tFGShvyZK7gAAoOAOQKLyqo5lqoUkAAC2ZtreeAhAgpTbofeUJwG6uccatXssoN+U3AEASJ6COwApOxEBAMBWLNobDgFIkHI7DMah4hX8f/buH7ttK/8bMDRn+tG7gmAaFmyidOyMtGyirCB0ycryCmSvQEmlUsoKIjdqQ3fsfnLDghWzA2UFfC9iKCM7EsU/AAnc+zzn8CAzk+SMP4LAL8jPvYDWzVi/hZcnbEAclNwBAEiagjsAyTq6vL0Jh4kkAAD27r0IANKk3A7RKYtXIzEAtMKFGQuinLXOxAAAQIoU3AFInXIVAMB+lbu3X4sBID3K7RCtq/D7XYgB4KBz1igcRpKAKF1YUAgAQIoU3AFI2tHl7SSzizsAwD69FQFAepTbIXq/hd/zXAwAB5mzyvnqShIQtSsldwAAUqPgDgBZ9loEAAB7MTm6vL0RA0CSytKVcjvEq1zE8psYAParWkTo+guJ3FMpuQMAkBIFdwCSd3R5uwiHa0kAADTuVxEApKfXH5Tl9lNJQPROwu/7hRgA9qqcs3IxQDIuqqc2AABA9BTcAeCz9yIAAGjU4ujy9loMAGmpyq4jSUAyzsLvvQUtAPuZs8oZyzUX0lI+teF3JXcAAFKg4A4AmV3cAQD2wIJCgMRUpaszSUByrsLvfy4GgEbnrPI666kZkKay5P5buA4ciwIAgJgpuAPA/yhdAQA0w+7tAImpdnC+kgQk6a/SlRgAGnVVXW+BNOXZ553cXQcAAIiWgjsAVKpd3CeSAAConYWEAAnp9QcnmXI7pO4kXAveiQGgkVmrfEJOIQkwb2We5AAAQMQU3AHgS8pXAAD1ug+vGzEApKHaQfD3zI6iQJadVwteAKhv1srL66skgMrIokIAAGKl4A4Ajxxd3k4yu7gDANTplzBj3YsBIH7K7cATrqprAwA1XVfNWsBXykWFIzEAABAbBXcA+KdfRQAAUJtrEQAk4yK87NYMPFZeE+w0DFCDXn9wGg6FJICn7sU8OQcAgNgouAPAV44ub6/DYSEJAICdXYfZylwFkIBef3AWDiNJAE84U7gC2HnWKndtv5IE8IzyGvGbJ+cAABATBXcAeNovIgAA2Jkn4wAkoNpN9EISwApKmQC7KZ+GobgKrJKH129iAAAgFv8WAQA86TrzgTHQTpPwuguvPx/9d99mnx/7nosHaJHF0eXtRAwAcev1B+UMqrgKvMQ9K8Bu89aZJIA1FOGa8W4+m74TBQAAXafgDgBPOLq8vV+OhzeZx6sD7XAdXh/Ctelm1d8Urlt5dd36KVMcAA7PE3EAItfrD8pF4eUOgRaHA+twrQDYjsWEwCbOw73aZD6bTkQBAECX/UsEAPAspSzg0MpC+3+PLm9fv1RuL4W/p9wt+V14/Tf8x7fhdS9C4ICuRQAQvYvs867MAAA0pxABsKHfqgXJAADQWQruAPCMo8vbu3C4kwRwAGUx/cdwHSpfiy2vYT+HQ1l0n4gTOIDr8ok4YgCIV68/GGWeegYAANBGD0/bAgCAzlJwB4DV7OIO7Fu5sOa7dXZsf0lZLg2v7zO7KAP790EEAPHq9Qflru0XkgAAAGitIty7vRMDAABdpeAOAKuVBVO7jwL7Upbbv9921/bnhH/f60zJHdifRR2LdABop+ox91fZ5x0BAQAAaK/zcA9XiAEAgC5ScAeAFcrdj7PPJXeApj2U2xtZVKPkDuyR2QkgbufhdSIGAACATriqFioDAECnKLgDwMs+iABoWKPl9gdK7sCe/CoCgDj1+oPTcDiTBAAAQGfk4XUhBgAAukbBHQBecHR5W+5CupAE0JC9lNsfXdOU3IEmLcJ15k4MAPGpdvy7kgQAAEDnjKoFywAA0BkK7gCwnhsRAA3Ya7n9gZI7YGYCYAtlud1j7QEAADp6T1ctXAYAgE5QcAeA9fwqAqBmBym3P1ByB8xMAKyr1x+chYPd/gAAALrLU7kAAOgUBXcAWMPR5W1ZRF1IAqjJQcvtj65tSu5AnRbVzARARHr9QR4O55IAAADovNNwj2fxMgAAnaDgDgDruxEBUINWlNsfKLkDZiUAXlDu8Ocx9gAAAJHc4/X6A/d4AAC0noI7AKzvVxEAO2pVuf2BkjtgVgLgKb3+4CwcCkkAAABEoyy3e0oXAACtp+AOAGs6urwti6kLSQBbamW5/dE1Tskd2MWimpUAiESvP8gzpQcAAIAYnYV7vkIMAAC0mYI7AGzmRgTAFlpdbn+g5A7sYCICgOhcZJ939gMAACDOez4AAGgtBXcA2MxHEQAb6kS5/YGSO7ClDyIAiEevPzgNh1NJAAAAROsk3Pu9EwMAAG2l4A4AGzi6vC13cL+XBLCmTpXbH13rlNyBTU1EABCHXn9Q7tpuJz8AAID4vQn3gLkYAABoIwV3ANjcRATAGjpZbn+g5A5sMht19VoHwJPOwysXAwAAQPSOq3tAAABoHQV3ANjcBxEAL+h0uf2Bkjuwpo8iAIhDrz84CYczSQAAACRjFO4FCzEAANA2Cu4AsLmJCIAVoii3P1ByB9ZwIwKAaFyIAAAAIDl2cQcAoHUU3AFgQ0eXt4twWEgCeEJU5fZH1z0ld+A59+EacScGgO7r9QejcCgkAQAAkJyiuicEAIDWUHAHgO1MRAB8Jcpy+wMld8BMBBCvXn9wnNmxDwAAIGXn1b0hAAC0goI7AGznowiAR6Iutz9Qcgee8EkEAFE4C69cDAAAAMnKq3tDAABoBQV3ANjORARAJYly+wMld8BMBBCXXn+Qh8MbSQAAACTvjV3cAQBoCwV3ANjC0eXtIhwWkoDkJVVuf3QNVHIHHq4HEykAdN55eCkwAAAAUN4b2sUdAIBWUHAHgO1NRABJS7Lc/kDJHTALAXRfrz84CYeRJAAAAKjYxR0AgFZQcAeA7X0SASQr6XL7AyV3cC0UAUDnXYgAAACAR47dKwIA0Ab/FgEAbG0iAkiScvsjZcl9OR6WfzmSBiTnowgAuqvXHxThUEgCAIDITapj+bnun9VfL6rXKuXTjlbtYv3to/89r14Qi1G4Z3w/n00XogAA4FAU3AFgS0eXt3dVqRNIh3L709dDJXdI95oIQHedi4COu6/mkfL46dF88vf92nw2nTz1D/b6gzxbr4RWltZOqr/+pvpnHv93AEC75oJyMf6ifD03B2xgq3++WkhaKo//qeaGdWcPaNs942sxAABwKAruALCbSWbHO0iFcvsKSu6QnPvwe78QA0A32b2djt6PTcLrj+qv7+az6db3ZtVOlOvOMjfP/B7l2eeiWvm7VJbfTzLFdwDYl0U1G5SF9kmbdpl+VKyffDU7HD+aF76tZojcj5IWs4s7AAAHpeAOALspv1QtxABJ/K4rt79AyR2Suy4C0F0XIqDlJtn/CmuTNv4ffFSS/+L/36MFJA/FtWM/TgDY2X31nvsha1mhfYPZ4eHPMHk0NxxX88Kr8DrNFN5pn1F4vRMDAACHoOAOALv5JAKInnL7BpTcIalrIwAd1OsPyjnNLtO0zSL7vFP6x/lsetPlP0hVyJ88+p0rf9/KwtoPfvcAYCP31XzwoevzwYq54eHPWL7eVk+IKaq54dQpQAu8Ceflz7s8PQkAALal4A4Au1Hugvh/x5XbN6TkDkmwyA+gu96IgJZYZJ/LXL/OZ9NoP1+p/mzl653SGgCs5aHUfp3aH7zamb78c19Xu7ufmhs4sPI8PMvs4g4AwAEouAPADo4ub++qEicQH+X23a6PSu4Qt4UIALqn1x8UmR2kOayHXUp/ibnU/pwnSmvl/dJPfi8B4K/PGX4t3yOr98vkVTtmmxtog3KR9DsxAACwbwruALC78gtZHyhCfL/Xyu07UnKHqH+/J1IA6KRzEXDAe6xfwuumKmslr8rh5/LV6w/Kz5XK4lC5O+uxdABIyCT7/DSXa1FsPDeMJMOeHIfzbuT3FACAffuXCABgZwsRQFSU22tUltyzzzsNAfFwfQTooGr39kIS7Fl5L/D9fDb9rizEKLc/rdzNPrzKe6f/hld5XEgFgMhNqhnhe6XZreeG/xde7zOf07AfFksDALB3dnAHgN19yj7vsAV0n3J7A+zkDlFeKwHonjciYI+uw+v9fDZdiGJ91QKAMrvrXn9wWv3eFpIBICKTakaYiKKWueFdmBnKnd3PqrnBk2BoSl4umva7S+LeZj4bb7uFCADiouAOALtzIwvx/C4rtzdEyR3MPgAcTq8/yDMLs9mP60yxvRYhw5twuKmevlDumFlIBYAOKz9LeKsc28jMoOjOvpQzqd9hkn4v8z4GAPv1LxEAwM6UYaH7lNv3oCy5Z58LL0C3/SkCgM7xOHmaVs75/53Ppq+V2+tVFijC6/vynjWz0BCA7ik/by3ng++UAhufGe7D6105k4XXzxKhAUW1eBoAAPZCwR0AdnR0eTuRAnSacvt+r5lK7tB9Zh+ADun1B+XujXZvp8m54HvF9uZVRffvwl+W91SyBqAL3mefF8Bdi2KvM0NZdH+bfS66TyRCzSyeBgBgbxTcAQBImXL7ASi5AwDs1Si8jsVAzR52Y/3ebqz7VZUEy6L7e2kA0FLlZ67lju3vyrK1OA42Myyqp8D8mHkSMfU5rRZRAwBA4xTcAaAeExFA5yi3H5CSO3T699fcA9Atb0RAzco53m6sB1TtzPouszMrAO1Sfs76tnziSHjdiaM1c8NNNTPcSIMalOX2kRgAANgHBXcAAFKk3N4CSu4AAM3q9Qen4ZBLgposyvuo+Wz62m6s7fBoZ9a3mZ1ZATisu2pO+FkUrZwZysVx5U7udnOnDhZRAwCwFwruAFCPjyKAzlBubxEld+jkNRSA7vhJBNSknNnL3Vgnomifqkz4XWY3dwAO42e7tndmZnjYzd3MwC7yXn9QiAEAgKYpuAMAkBLl9hZScodOcf0E6Ihef5CHw6kkqOG9/0e7trffV7u5A8C+5oRy13bvPd2aGe6rmeG9NNiBXdwBAGicgjsA1MPOJNCN31Pl9pZScofOcA0F6I6RCKjhHuq7aqdPOuLRbu4+qwJgH3PCRBSdnRnehcOPmc962M5ptagaAAAao+AOAPXwASC0m3J7Byi5Qyd8EgFAZ9hRj138PJ9Ny9LaQhTdE35uf90Du78CoCHX5oRoZoabamawMI5teGIYAACNUnAHACB2yu0douQOALC7Xn9QFg2OJcEWyvum1/PZ9K0oui38DO/Dq7y/8rMEoE5vq/cX4pkZHhbGKbmzKYuqAQBolII7ANTg6PJ2IgVoJeX2bl5TldyhvVxPAbrhJxGw5fv89/PZ1CwekfDz/Dn7XFozxwGw65zwunpfIb55oVwY913mM1k2k/f6g0IMAAA0RcEdAIBYKbd3mJI7tPraCkCL9fqDPPOoeLZ7j/9vtYMnkQk/10n2ueS+kAYAW7AILp2ZwWeybMriagAAGqPgDgBAjBaZcnvnKbkDAGxFuZ1N/bU4uNy5UxTxqhYvfJdZsAjAZh7K7d4/0pkZfCbLRvefvf7gWAwAADRBwR0A6uMDXmiH8kuXH5Xb41CV3CeSAABY2xsRsIHr+Wz6nXJ7Gqqfc7mTu8+wAFjHIlNuT3VmUHJnXWW53SJrAAAaoeAOAPXxZTC0w/ujy1tfusTlR9dYAICX9fqDk3DIJcGarqvyEglRcgdgTX89+UO5PemZQcmddf0kAgAAmqDgDgBATBZHl7c/iyEu1W787yUBreCLbYB2s3s761JuT5iSOwAv+OsJmZ7wgpI7ayp6/UEuBgAA6qbgDgBATJSgI1UtXFhIAg7+u+jLbYB282h41qHcjpI7AM/56/0hvE8sREE1Myi5414UAICDUHAHACAW5e7t12KI2q8iAAB4Wq8/KAsFx5LgBcrt/E3JHYCvPJTbvS/w9cxQzo8TSbCCp4kBAFA7BXcAqM9CBHBQNyKI3rUIAACe9ZMIeGmeVm7na0ruADyi3M4qP5oXWCHv9QcnYgAAoE4K7gBQnz9EAAf1UQRxO7q8XWQWEwEA/EOvPyh3bvdIeFYpy0hvxcBTHpXc76UBkKzXyu2sMS/8aF5gBYuuAQColYI7AACxmIggCb5oAwD4J+V2Xpqhv69KSfAkJXeApL0P7wPXYmCNeWFRzQvgvhQAgMYpuAMAEIWjy1tfwqfhkwgAAP7hBxHwjPI+6bVyO+uodu59LQmApNyE6/87MWBeoAZ5rz84EQMAAHVRcAcAAAAA6Khef3Cc2SmP572uSkiwlnC+3ITDe0kAJGGRKSqz3bxwHQ7XkuAJP4kAAIC6KLgDAAAAAHSXcjvPeV+VlWEj1U6+zh2A+P3oKS/s4G14WUiJ+1MAABqj4A4AAHTJf0QAAPCFH0TAEyZVSRm2Ve7ouxADQLTeesoLu6gWR3gCAF/Le/3BiRgAAKiDgjsAAFFYjoc+NE2DnzMAQKXXHxxndsjjn5SN2FlVWvtREgBRKhfC/SwGapgXykUSbyXBV9yjAgBQCwV3AABiofichkIEAABmI1Z6PZ9NF2JgV1Vp7b0kAKJiIRx1zwvlYomJJHjEU8YAAKiFgjsAALHwoWnkluOhnV8AAMzArHYzn01vxEBdwvn0LlNaA4jJewvhaEC5aOJeDFROev1BLgYAAHal4A4A9fmPCOCgTpfjYS6GqClwAQB8NQOLgEfsyEpTlNYA4jCpdtuGWlWLJn6RBO5VAQCok4I7ANTnRARwcCMRxKlavODnC4f/XSykANAOvf6gvCYfS4JHXs9nUyVkaleV1t5LAqD7s4IIaHBeeBcOd5Kg8koEAADsSsEdAICYvLGLe7QuRAAA8AVPt+Gxm/lseiMGmlLt+Ku0BtBd76sFS9CktyKgctrrDyzIBgBgJwruAADEpPzA9EoMcVmOh+XjTD3SFADgS+YjHpS7tisTsQ92/gXopkV4/SwGmjafTSfhcC0JKoUIAADYhYI7AACxKZbj4TsxxCH8LE8yixYAAL7Q6w/ycMglQeUXO7KyD+E8K3dwV5AE6J634Rp+Lwb2db5lnxdggqeOAQCwEwV3AKiPR+1Be5wvx8ORGLot/AwfduR3fYX2OBEBQCvYvZ0Hi/ls+k4M7NH7TGkNoEsmYVa4EQP7Ui2m+EUSZHZwBwBgRwruAFAfhS9olysl9+6qyu2/u7ZC61hwAtAOr0RA5a0I2KeqtOa8A+iO9yLgAMonvizEkLy81x/4fB8AgK0puAMAEDMl9w5SbgcAeJEd3CnZkZWDCOfddaa0BtAF1+GaPREDB5gVygVxFldQKkQAAMC2FNwBAIidknuHKLdD630jAoDD6vUHhRSoKA1xSHZxBzArwLMsiKPi6WMAAGxNwR0AarAcDxUxod2U3LtxLVVuh/bLRQBwcD+IgOzz7u0TMXAo1dMDnIMA7VXu3r4QAwdmkQWePgYAwNYU3AGgHscigNZTcm8x5XYAgLUVIiB4LQJaQGkNwDUanmUXd0qeQgYAwLYU3AEASImSewspt0OnFCIAOJxef3BsZiKzIystUT1FYCIJALMCrGCxBYUIAADYhoI7ANSjEAF0hpJ7iyi3AwC492Rjv4qAFlFaA3BthmdVu7jfSyJpr0QAAMA2FNwBAEiRknsLKLdDZ393/c4CHI5iAJNq12xohep8XEgCoFWzgusybfOLCJJWiAAAgG0ouANAPb4VAXSOkvsBKbdDpx2LAOBgChEkz46sOC8BcE2ma34WQdp6/YF7WQAANqbgDgD1UPSCblJyPwDldug8v7sAB9DrD45dg5N3Z/d22iicl9eZXdwB2mBhVqCls8J9OFxLImmFCAAA2JSCOwDUQ8kAukvJfY+U2yEKFvYBHEYhguT9IgJa7FcRAByc3dsxy9JWr0QAAMCmFNwBoB6KXtBtSu57oNwO0fCFFMBhmKHSdl/tkg1t9bMIAA47K4TXjRhoqzDL3oXDnSTczwIAwLoU3AFgR8vxsJACREHJvdlrpXI7xMPCPoDDsMAobdcioM3ms+m98xTgoG6qazG0mV3c03Xc6w98NwAAwEYU3AFgd0peEA8l9wYot0N0/C4DHEYhgqQpA9EFv4oAwKwAK3jKQNp8pggAwEYU3AFgdz6QgbgouddIuR2i/d32Ow2wR73+oJBC0ibz2XQhBtounKeTcHCuAuzfXbgG34mBDswKnviSNk8lAwBgIwruALC7b0QA0VFyr4FyO0QtFwHAXpmn0mZXbJyvALj2EosPInBfCwAA61BwB4Dd5SKAKCm570C5HaLndxtgv74VQbLu57PptRjoEOcrgGsvPCvMtjfljCuJJPk8EQCAjSi4A8DuChFAtJTct6DcDklQtARw38l+3IiALpnPpotwuJMEwP5mhXDtVRbGjEsn9PoD97YAAKxNwR0AdrAcD5U3IX5K7ptdF5XbIQ1+xwH2pNcflPNVLolkfRABHfSrCADMCuC85QmFCAAAWJeCOwDsJhcBJEHJfQ3K7ZDWDFT9zgPQPLNVuu7ns6ndLeki5y2Aay48q5pxPXkgTZ4KCQDA2hTcAWA3igaQDiX3FZTbwRwEQGMKESTrWgR00Xw2XYTDnSQAGncTrrlKwnT2/BVBknIRAACwLgV3ANjNKxFAUpTcn6DcDskqRACwF3a4S9dHEdBhv4oAoHEfRIDzl47xHQIAAGtTcAeA3fggBtKj5P6IcjskTeESYD9yESTpfj6b2tWSLnP+AjRvIgKcv3RNrz8opAAAwDoU3AFgS8vxMA+HY0lAkpTcM+V2wA7uAHti1kqTcjCdNp9NF+FwJwmAxtxV11ro6qxwnym5u8cFAIAVFNwBYHuFCCBpSZfclduB4DhcC1wDABpkZ7ukfRABEZiIAMCsAM5jvvKNCAAAWIeCOwBs71sRQPKSLLkrtwOPuA4ANCsXQbImIiACSmsAZgVwHvM1nycCALAWBXcA2F4hAiBLrOSu3A585ZUIABqViyBJk/lsei8Gui6cxxMpADTi3jWWSGaFu/J8lkRyfLcAAMBaFNwBYAtVwdMHMMCDJEruyu3AEwoRADTKQqI0fRQBEbkRAUDtJiLA+UyHHff6g2MxAADwEgV3ANhOIQLgK1GX3JXbgWfk4fqQiwGgueusCJKkEExMLNgAcG0F5zNf8z0DAAAvUnAHgO3YRQ94SpQld+V24AWFCAAak4sgOffz2fRODERkIgIA11ZwPvMV3zUAAPAiBXcA2E4hAuAZUZXclduBNfwgAoD69foD951pmoiAmFiwAVA7i+EwKxCDYxEAAPASBXcA2FBV9lT0BFaJouSu3A6sqRABQCNyESTpkwiI0EQEALVRBsasQAw8KRsAgBcpuAPA5k5FAKyh0yV35XZgA8fhmlGIAaB2uQiSNBEBEfooAgDXVHBe434XAIBNKLgDwObsKgCsq5Mld+V2YAs/iACgdt+KID3z2XQiBSLkvAZwTYVVPJkgPbkIAAB4iYI7AGzODu7AJjpVclduB7ZUiACgdsciSM5EBERKaQ3ANRWc13yh1x/4DgIAgJUU3AFgA8vxsPywRckA2FQnSu7K7cAOTsI1JBcDQK0KESRHsYcozWfT+3BYSAJg91mhuqZCbLNCOSc4t9Pj+1YAAFZScAeAzfwkAmBLrS65K7cDNfCUGwDYzScREDELOABcS8H5zWO+iwAAYCUFdwDYTCECYAetLLkrtwM1sRAQoCa9/sC9Z5qUeoiZBRwAu/tDBETsowiSYwd3AABWUnAHgDUtx8M8U/4EdteqkrtyO1Cjk2peAgC2MJ9NFdyJ2UQEAK6lsMJCBMn5VgQAAKyi4A4A6zsVAVCTVpTcldsB8xJAaxUiSM5EBETOAg4A11JwfvOYHdwBAFhJwR0A1veTCIAaHbTkrtwOmJcAoFUUeojafDa9D4d7SQBs7b66lkKss4J5OD25CAAAWEXBHQDWsBwP80wJFKjfQUruyu1Ag06quQmA3bwSQXL+EAEJUFwDcA2FVRYiSEouAgAAVlFwB4D1nIoAaMheS+7K7YC5CQBaSWkN5zkArqGkbiGCtPT6g2MpAADwHAV3AFjPGxEADdpLyV25HTA3AXSGeS09Smuk4E8RAGzN015IwUcRuPcFAIAHCu4A8ILleFh+uJJLAmhYoyV35XZgj/JqfgJge3axS8x8Nr2XAgmYiABgaxbDkQIzMQAA8DcFdwB42U8iAPakkZJ7+HfmmXI7sF92cQeA9U1EQCKU1gC2txABCbCQIz2+swAA4FkK7gDwspEIgD0qS+4Xdf3Lwr/rNBz+L/NBMbBfp9WTIwDYUK8/KKSQnIUISMF8NlVaA9j+GmpeIAUWw6XH54cAADxLwR0AVqh2UvbhCrBvZ+H683/hVexw/SrCq9y1/TfXMeAAyuvOqRgAYC1/iICELEQA4NoJT7EYDgAAeOzfIgCAlX4SAXAg5Y7rvy/Hw/JD/V/Ca3J0ebtY9Q+EvzfPPhdKf8rs2A4c3pvwuhYDwMYsTkzPQgQkdr7nYgAwK8Az7t0TJeWVCAAAeI6COwA8oyqKFpIADqwsql9V16VF9vkLrY9f/T3lh8B5piQAtOz6Fa5bJ0eXt3bfAth8/iMtCxHgfAfAtRP+Un6OVIgBAABQcAeA570RAdAyefUqRAF0aJ56LQYAWGkhAhLyhwgAXDsBAADgJf8SAQA8ayQCAIDd5qnleOix0gCwwnw2XUiBhNyLAGBjZgVS8lEESfEEMwAAnqXgDgBPWI6Ho3BQxgIA2N2ZCAA28koESVH2JTV3IgDY2EIEQKR8FwsAwLMU3AHgaW9EAABgrgKAhin7AgDA/1gACgAA/EXBHQC+shwPi8wj8QAA6nJcPR0HAAAs6gDY0Hw2nUgBswIAAJAaBXcA+Ce7jAIA1OtcBADwJAUekjKfTe3KCgDA33r9gU3HAAB4koI7ADyyHA/zcDiVBABArXK7uAOsrRBBUv4UAQCwgoVBOOeJ3bEIAAB4ioI7AHzJ7qIAAM3wlBwAAEoTEQCszdNeSMp8NnXOAwAAf1FwB4BKtXv7SBIAAI04CfNWIQYA+MJEBAAAAAAA8CUFdwD4H7u3AwCYtwAAAAAAAAA4IAV3AMjs3g4AsCeFXdwBAJJ3JwIA10xYYSECAABAwR0APrObKADAflyJAOBpvf4gl0Jy7kVAgv4UAYBrJqywEEFSChEAAPAUBXcAkmf3dgCAvcrD/GX2AnjmGimCtMxnU7uyAgAAAADAVxTcAcDu7QAA5i8AAAAAAAAAWkHBHYCk2b0dAOAgyl3cz8QAAJCkhQgAXDMBAABgFQV3AFJ3IQIAgIM4X46Hx2IAAEjOQgQArpmwwr0IAAAABXcAkrUcD4twOJUEAMBBlOV2u7gDkDLFHQAA+KdPIgAAABTcAUjZuQgAAA47jy3Hw1wMACTqTgQAAAAAAPBPCu4AJGk5Ho7CoZAEAMDBXYkAAAAAAAAAgAcK7gAkZzkeHmd2bwcAaIsizGeFGAAAAAAAAAAoKbgDkKKz8MrFAADQGlfVIkQAAAAAAAAAEqfgDkBSluNhntm9HQCgbcoZ7UwMAABJuBcBAAAAALCKgjsAqbkSAQBAK51XixEBAIjYfDa9kwLA2hYiAAAAIEUK7gAkYzkenoZDIQkAgNayGBEAAAAq89l0IQUAAABSpOAOQBKW4+FxpjAFANB2RZjbRmIAAAAAAAAASJeCOwCpOA+vYzEAALTeRbU4EQAAAAAAAIAEKbgDEL3leHgSDmeSAADohLLcfi4GAAAAAAAAgDQpuAOQgisRAAB0ytlyPCzEAAAAAAAAAJAeBXcAorYcD8ud208kAQDQORciAAAAAAAAAEiPgjsA0VqOh8fhcC4JAIBOOqkWKwIAAAAAAACQEAV3AGJW7vp5LAYAgM46rxYtAgAAQHJ6/UEuBQAAAFKk4A5AlJbjYREOI0kAAHRaWW6/EAMAAACJykUAAABAihTcAYjVlQgAAKIwqhYvAgAQgV5/4Ak9AAAAAMBKCu4ARGc5Hr7L7GoCABATu7gDAMTjRAQAAAAAwCoK7gBEZTke5uHwRhIAAFE5qRYxAgAAABC3b0QAAAAouAMQm3J3T485BgCIz5tqMSMAxKIQAQAA/EMuAgAAQMEdgGgsx8MiHE4lAQAQpXIR44UYAAAAAAAAAOKm4A5ATK5EAAAQtdNqUSMAAAAAAAAAkVJwByAKy/HwXeaRhQAAKbCoEQAAgFQciwCI3L0IAAB4ioI7AJ23HA/zcHgjCQCAJOTV4kYAALpJWRNgfSciACJ3JwIAAJ6i4A5ADC4yX4wBAKTkTbXIESAq89l0IoW09PoDpTVS5LwHAFYpRAAAACi4A9Bpy/GwCIdTSQAAJKVc3HghBgAieU8DAAAAAAAeUXAHoOuuRAAAkKTTarEjAAAAAAAAABFRcAegs5bj4btwyCUBAJAsu7gD0HV2cCdF/xEBwNq+FQEAAAApUnAHoJOW42EeDm8kAQCQtJMwF56JAYAuv5eJAOc9ACtYDEdSev1BIYXkLEQAAMBTFNwB6Kpyt04f7AIAcL4cD82FQEwWIgAAACAF89nUPTAAAE9ScAegc5bjYREOp5IAACD7vOjxQgxARBYiSMp/RAAAvHDPCwAAAMlRcAegi65EAADAI6NqESQAdM2JCEiQuQ3ArADmBAAAYCUFdwA6ZTkenoVDLgkAAL5iF3cAAAAA6I57EQAA8BwFdwA6Yzkelo/iPJcEAABPOKkWQwJ03UIEab1/iYCU9PqDYykAbHztzKVAQv4jgqTciQAAgOcouAPQJeWunL4EAwDgOefVokiALvtDBEnxvkVqLOoA2FwuAswKAABAahTcAeiE5XhYhMNIEgAArFCWBC/EAECX2JUVAAAAAAC+pOAOQFcoKgEAsI5RtTgSoKvuRZCcXAQkxK6sAJtzj4vznVh9FAEAAM9RcAeg9Zbj4Vnmyy8AANZ3LgKgw+5EkJxjEeB8BwAAAAD4HwV3AFptOR6WX3opKAEAsIkizJEjMQDQERb1k5JvRACwsW9FQAp6/YG5OD2eYAYAwLMU3AFou4vMzk4AAGwxR1aLJQG6xhf86VH4JSW5CAA25t4W5zqx8gQzAACepeAOQGstx8Nyp4aRJAAA2IInAQGdNJ9NfcGfnlwEJMTOrACuneBcBwAAXqTgDkCbXYgAAIAdnFWLJgGgzbxXkRI7swK4doJznQcWeAMA8CwFdwBaaTkejsKhkAQAADuyaBLoIl/yp0WRhyT0+gOLOQBcQ2GVVyJIy3w2vZcCAADPUXAHoHWW42H5xa4iEgAAdSjCfHkqBqBjfMmfmF5/UEiBBFjMAeAaCs5z3PcCALAWBXcA2ug88yEWAAD1uagWUQJ0xUIEyclFQAIKEQC4hsIKnlSQFk8uAwBgJQV3AFplOR7m4XAmCQAAamTGBLrmDxEk+V4FsftGBACuofCUXn9gHk6PHdwBAFhJwR2AtrkSAQAADTivFlMCdMFCBMl5JQISYBYDcA0F5zgPPokAAIBVFNwBaI3leHiaecwmAADNsZgS6IqFCJJzIgISUIgAwDUUnONU7OAOAMBKCu4AtMJyPDwOhwtJAADQoCLMnYUYgA5YiCA5x73+4FgMxCqc37kUAFxLYYVvRZCcOxEAALCKgjsAbXGWefwgAADNs4s70Hrz2XQhhSTZxR3nNwCr5CLA+U1E7OAOAMBKCu4AHNxyPMzD4VwSAADsQR7mz3diADpgIYLkFCIgYgruAGYFMCvwt/lsagd3AABWUnAHoA0uRAAAwB69qRZZArTZQgTJ+VYEOL8BcC0lNb3+oJCC+10AAPiagjsAB7UcD4twOJUEAAB7dJx5ghDQfnazS49dK3F+A+BainObFCxEAADASxTcATi0KxEAAHAAo2qxJUBb/SmC5OS9/iAXA7EJ53W5uNC5DVDPrHAsBiLk6QTpsaAbAIAXKbgDcDDL8fBd5sstAAAO50IEQItNRJAku1cSo0IEAGYFcF7ziAXdAAC8SMEdgINYjoflLiNvJAEAwAGdhLn0TAxASy1EkKRXIiDGmUsEALUpREBMqqcSmBXSMxEBAAAvUXAH4FDK3TI9ShMAgEM7rxZfArTKfDZdSCFJhQiIkIUbAK6p8Bzl9jS53wUA4EUK7gDs3XI8LMJhJAkAAFqgLLefiwFoqTsRJOek2sUSYlKIAKC+WUEEmBPoOgu6AQBYh4I7AIdwIQIAAFrkbDkeKgkAbbQQQZIKERCLXn/gfAao13G4trp/JSaeSpCeiQgAAFiHgjsAe7UcD0eZHUYAAGgfizCBNvokgiQp+RCTQgQArq3gfOaRhQgAAFiHgjsAe7McD8tHbCsOAQDQRkWYV0/FALTMRARJ8n5ETCzYAHBthSd50kuy/hABAADrUHAHYJ/Ow+tYDAAAtNRFtSgToC0WIkhS3usPcjEQiUIEAK6t8IwfRJCkiQgAAFiHgjsAe7EcD/NwOJMEAAAtZmYFWmU+my6kkCy7uNN5dmUFaMxxuMaeiIEImBXSdCcCAADWoeAOwL5ciQAAgA44rxZnArTFRARJeiUCImBXVoDmWAxHp/X6g/IJehZqpGcxn03vxQAAwDoU3AFo3HI8LD9oLSQBAEBHXIgAaBG726VJaY0YFCIAaIxFRJh36aKFCAAAWJeCOwCNWo6H5Q4MCkIAAHTJaZhjCzEALfFJBGnq9QdKP3T5/M0zu7ICNOmk2gEbusoTi9L0UQR0mPddANgzBXcAmnYWXrkYAADomCsRAC1hB/d02ZmVLrNAA8C1Fpy/uL8lJhbwAsCeKbgD0JjleJiHwxtJAADQQXmYZ8/EABzafDZVAEiX0g9dZldWgOZZDEcnVU8qshNymtzfAgCwNgV3AJp0kfmACgCA7jpfjofmWaANJiJI0nFV/oFOCedtOT85dwGa51pLV1mckab7+Wy6EAMAAOtScAegEcvxsMh8uAoAQLeV5awLMQAtYJe7dCn/0EU+EwTYE4vhMCvQIRP36nScp1QBwJ4puAPQFEUgAABiMFqOhydiAA7sowiSdVrthg1dYmEGgGsuPKlalGG+TdOnCP9Mf/qxAgA0R8EdgNotx8OzcFACAgAgFhZvAodmV7h0leUfO1zSGdWCDOcswP6MLIajYyzKSNdEBHRcLgIA2C8FdwBqtRwPyw9SzyUBAEBEijDnjsQAHMp8Nl2Ew0ISyfpJBHSIcjuAay84X3nqvnYiBTouFwEA7JeCOwB1K8vtdgsBACC6ObdazAlwKHZxT1fR6w9yMdARFmQAuPbCk8JMO8p8h+h+Frp9HXNvDgB7pOAOQG2W4+FJOJxJAgCACOVmXeDAPoogaSMR0HZV2aOQBMDeWQxHV/wggmRNREAkvN8CwB4puANQpwsRAAAQsXIX91wMwIFMRJA0O7PSBSMRALgGw1OqRRinkkiWBdvE4kQEALA/Cu4A1GI5HpYfShWSAAAgchZ1Agcxn0090j1tea8/GImBlrMQA8A1GJ5jlk1brPezEz/a5HwjAgDYHwV3AHa2HA+PM0UfAADScBrm30IMwIFMRJA0xTVaq9cflJtf5JIAOJi8uhaDWZa2Wcxn04UYiIQd3AFgjxTcAajDWeYLLAAA0nElAuBAPNY9bUWvP/BlOm2ltAZweG9EQBtVTyLKJZGsiQiIiHtyANgjBXcAdrIcD/PMh6YAAKQlD3PwmRiAA5iIIHk+g6F1ev1BHg52DQY4vKK6JkPbWAiXNgu1icmx91oA2B8FdwB2dVHeyIkBAIDEnC/HQ3MwsFfz2XQiheSNfJlOG+ciEQC4JsNTwuxahEMhiaTFfB9758ebJNc0ANgTBXcAtrYcD8ubN7szAQCQorLcfiEG4ABuRJA8u7jTGr3+oJyJfD4I0B4Ww9E2dm9P2918Nl3E+ocLf7Z7P+IkfSsCANgPBXcAdqHQAwBAykbL8fBEDMCeebw7o6pUDG1wlnm6I0DrZgUR0AbVYgvnY9omIiBChQgAYD8U3AHYynI8LL+8UuYBACB1Fn0C+zYRQfLKMvGZGGgJTxQAaOG12WI4WuJcBMlLYYG2XdzTc+J9FgD2Q8EdgI0tx8Pyhs2HUgAAkGVFmI9HYgD2ZT6b3mW+QEdxjRYI52A5AzkPAdrHYjjaMCfkmd3bSWOB9p0fc5JORQAAzVNwB2AbZbndl1cAAFDNx9UiUIB9uRFB8hTXaMUMJAKA1rIYDnMChzaZz6YWZxOrVyIAgOYpuAOwkeV4eJL5AhUAAB7LzcjAnn0UAcF5tTMm7F21e7vzD6C9PImXQ84J5YwwkkTyPiTy51TiT5Md3AFgDxTcAdjUhQgAAOAfyl3cczEAe2IHd/5+/xEB+1btCOwzQoD2O7MYjgMxJ1CaJPLn/ORHnaTj8B6r5A4ADVNwB2Bty/GwvEkrJAEAAE/yBS6wF9Vj3u8kQTDq9QcnYmDPyifXHIsBoBMshmOvwmxaZHY2JssW4b7VPSux+0EEANAsBXcANqGwAwAAzztdjoeFGIA9+SACKj6vYW+q3dvfSAKgM0ZV4Rj2xaIKSpOE/qyK/OmymAcAGqbgDsBaluPhu3DIJQEAACspGQL7ciMCKkWvPxiJgT0pS2t2bwdwnwr/UM2khSTI0lqQfe/Hnaxj9+IA0CwFdwBetBwP88zOTAAAsI6TMD+fiQFoWvW494UkqFxUO2tDY8I5dhIO5hyADt6nhmu46zdNzwnlLGoxBaX7cL+a0oJs9+Vp+0kEANAcBXcA1mFnJgAA2GB+Xo6H5mdgH+zizoPyfedcDDRMaQ2gw/epvf4gFwNNnmOZ7xL5bJLSH3Y+my78yJNWeH8FgOYouAOw0nI8LMJhJAkAAFibkiGwLx9FwCNnvf6gEANNCOfWKBycXwDdvk+1UImm5oRyRvCUAB58SPDPfO/HnjSfAwNAQxTcAXiJDzwBAGBzZ8vx8EQMQJOqx777Ip3HfI5D7Xr9gVIkQBxOwzX9VAyYQWlYik8au/NjT/791RMsAKABCu4APGs5Ho7CQSkHAAC24wteYB9uRMAjJ73+4J0YqNlV9nnnXwAiuKYr4VGnavb0XSJ/35/OZ9MUF2FbeJ628n3VUywAoAEK7gA8aTke2pkJAAB2U4S52u54QNM+iICvnPf6g0IM1KE6l8wzAPEov/v5TQzUNCeUxfZzSeD+NPvkR5+8NxaQAUD9FNwBeE65ythNGAAA7MaiUaBR89m03MHdbnF8ze6s7Kw6h5QgAeJThGu8nWYxJ9CEVJ8wtvCjT57NAwGgAQruAPzDcjzMMzsuAABAHfIwX78TA9CwGxHw9ftPeF2JgR2V55CFEgBxuqh234atz6Fq5oS/70vns2mqi68XfvwEo/De6roIADVScAfgKb4ABQCA+rypFpECNOWDCHjCaa8/GImBbVTnzqkkAKL2uye+sMOcYM7Efen/3PnxU9GzAIAaKbgD8IXleFiEQyEJAACoTVkY8IQkoDHz2bTcwf1eEjzB7qxsrDpnLiQBkMS96m9iwJxATZJ9sljCO9fzT4WF5gBQHwV3AL5mVTEAANRvVC0mBWjKjQh4wl/FNbuzsq7qXLmqzh0A4lcW8ZSV2WRO+M2cwFP3o0re2cRpQOXCPTgA1EPBHYC/LcfDs3DIJQGtshABAETDLu5Akz6IgGfkmd1ZWV9ZcrTrP0Bazuw2y5p+y3yPiPvR5yxEQMUTUgCgJgruAPxlOR6WN1oKN9A+34XXezEAQBSKMHePxAA0YT6blju4eyw6z74H9foDT+1jpXCOvAsHswpAmq7C+4AFTqyaE8pZspAETyjvQz1RLMv+EAFf3YOfiQEAdqPgDsCDcncmj8qC9jk5urx9F47/zTzeEACimLurxaUATbgWASuMfMHOc6qde21+AZC235XcWTEnjCTBM27ms6nF1r7D458uwvWzEAMAbE/BHYBy9/byA8uRJKCV/irAHV3eLsLr+/CX5WshFgDo9Hu7ciHQlF9FwAsuqoIS/K0qM15IAsD9anj9Ft4XLMrm8ZxQzo6eBIT70JctRMATfrN4DAC2p+AOQMkXWNBeX3zocXR5Owmvcjf399nnxz4CAN1zvhwPczEAdZvPpneZL9V52ZWSOw+qssXvmSc7AvBZea/6u5I71Zxwmim3s9oi3IdOxPDX/bh7cZ5yXN2De18FgC0ouAMkbjkelh9OFZKA1vrmqf/y6PL2XTh8F143IgKATrLIFGjKLyJgDUruZFXJQrkdgK/9tfhJGS/5OaE8D5TbeYnd2780EQHeVwGgPgruAAlbjoflTZRiDbRb/tz/cHR5uwivH8Nffh9ed6ICgE45DfN4IQagARbBsi4l94QptwPwAmW8tOcET3hhXdci+ILv6vC+CsD/Z+/u0Ro51r8BV/ty/uIVHJE4cHIgc2aRKjGswChUNLACYAXgSOFoVmCcdOp2RmZOQkBinRVY/xXorRo1ZzBmGD700d1139dVp3U8/pj5IZWqu596miVS4A6Qt6PwRPEs0Ag7X/obinFZxZG6uR/HMRMZALSGTmjA0tWPRVfkzrO/ixS55+decfuONAB4gmK8PNcJ/aC4neep6vNPPvmPCPC9CgDLo8AdIFPz0aAXD+8kAY23VT9t4YuKcXkRD9tBxwwAaIte/J4/EgOwAr+KgBdQ5J4Rxe0AvJBivLzWCYdBcTvP90EE/6CDO8/5Xv2zflIGAPAFCtwB8nUSXKCCtnj2RY5iXM7iGMaXe8GFNABoxbr8uZvZAJ7r9uZqEjzdiZdJRe6nYui2uojij6C4HYCX+fj9oRiv8+uEw+BJczzfrD7v5O/n4u7L8RwfNx3baA4AX6bAHSBD89GgHw9OmKA9XnzjoBiXVRy78WUqdlfYAgDNlW5onIgBWIGJCHihk2+/+15RU0fVRYmpI2tPGgC8Qvr++E2Re2fXCedBcTvON5elEgHPkK4Jp43m7z0lBQA+T4E7QJ7ORQCt8u/X/oPFuJzEw3YcF2IEgMY6mo8GPTEAS/azCHiFw2+/+/4PN9i7pe4MmIrb/VwBeIv0PfKHjrOdWiNs1Rscj6SB882l0cWdF52DBxvIAOCzFLgDZGY+GqSTJCdI0C69t/zDxbicxXEcX6aO7pU4AaCRdEoDlur25mpq/c8rpetGf7jB3g3x53hUrzMUtwOwtPPXuuM37V4j9MJiA9yhNHihqj7f5HG/i4BXnoOfigIA/k6BO0BG5qNBupHloiO0T38Z/5JiXF7HsRdfDuOYihUAmvV9H9fr+2IAluyDCHilXtChtdXqjqy/BNcCAViNI099afU6IV1/+CNoiMXr6N7+NB3cea2T+ru1LwoAWFDgDpCX1LHJxUZooflosLQLzcW4nIRFN/czyQJAoyhAA5bq9uYqrf1nkuANUofWXxSvtUvdfT91ZLV5DoBVSt83f9bF0rRnnZCuPaRNcNZ3vMY0nmdeiuHJ8/Bp0GSKt323/hbn6vf1kzYAIGsK3AEyMR8N0gnQiSSgtZbaSaUYl7M4TuPL7Tgq8QJAI/Tiuv1UDMCS6a7HW33s8KmLXDvEn1NqcJGK23VkBWAdUpF02gx3bkNc49cIvdQZOCyaYcFreUrY81Qi4I0O6/PwU9+vAORMgTtAPnSDhHb79yr+pcW4nMaxF18eBB0lAKAJ3s1HAzctgGWaiIAl6IVFFznFaw2Vfi6p235YXAP0MwJg3Y7qtYINVs1cJ6SfTypu9/PhLdLTwS7E8Cy/i4AlSOd1qYHhnwrdAciVAneADMxHg37wSGJou/4q/+XFuLyMI3VzPwuLi5QAwGakGxU2pwJLUz8e3SPkWZaPxVG6uTdL/HkcxsOfwfU/ADZrp14n2BDXnDVC6tqenuxiAxzLcBnPL90/ep5KBCzRw0L3nkge/c7bkg1A9yhwB8jDexFA662ls0oxLk/jYTcogAGATTqcjwa6qgHL9LMIWKJeWHRofa94bbPuFa2la39+FgA0xd2GOBuvNrdGSEV+p2GxAa4vEZbkTATPU280n0qCJbtf6P4+943n9fnwYZ1FekrJX3EcepsAdEshAoBum48G6UKiDpDQDXvFuKzWOH/0w+ImeU/0ALB2Vfze3xMDsCz1zT6bZ1i21MHx59ubq1NRrPXznAob0jW/E2nQcHtxfqjEsJJ5YC4F2nJuG8ewLvZkPfND2liQ7gv2pMEyP8vxc+w61cs+i+n+2qEkWLH0/Zqaln2In9Hrjp8Dp2ta/Tj+XR8f2+R95voEQLcocAfosPlokBb1fwYdnKArzuoO6+ueS9J/8525BADWbhi/+ydiAJYhdbUKnvDG6kzD4kay7631fJbPnaPTEgrcVzcXKHCnbdIa4TjOCTNRrGxe6IfF5re+NPCd3ojPZNps8oskWPN5eSp2/7XNn9fUmT0sNmml77NUzL4Tnr9pS4E7QMcocAfosPlokG52HUkCOmNjnVzrDTNpTjn0YwCAtZnGsRu//xUAAEvx7Xffp03wPUmwyvPWsLihXIli6Z/fdD5+4jNMyyiGW92coMCdNvr45Jc4LhS6L3U+SGuDtJG1Lw1WtcbXvf1Vn810X+0vSbDB79y0Dv89jusmrsnrjVl3ndn/FT4Vtb+FAneAjvlaBADdNB8N0gmA4nbolp1N/YfrwrphnFs+hEWh+44fBwCs3N2a/lQUwJKk9fyJGFihfhrffvd9FY8/395cXYrkbRS2A9AhW/V32rv4/ZYK3SdxrTAVy6vXCGnd9VPQlIb1nEfyQmkjT/ycXgf309jcd+5+PdJ3Rjpc1+O/9XG2qsL3+jvq7vdx9xn4973/74lkADyLDu4AHTUfDX4LujVAF6UurtcNmGNSsV26GeECBACs1qz+/p+KAniruoPcn9bxrFH6/kod1CaiePFn9TCOd0FhO+2mg/vq5gkd3OmKtEZIm+KuRfHsz/9+vUboS4N1rOfj53NbDK/+vJ4Gm8xph48F7w/+2u/18f+FL2/U6DXk3FUHd4CO0cEdoIPmo0G6uNWXBHRS+mxv/GJ/MS4v4lwzCYsLc54WAQCrc9fhbigK4K3qDnI/BzfYWZ9eHO/j+y49CUyn1i+IOaWigVSwth9sRAEgD4dp1E9/+WBT3GfXCDa/sSlnIniTS+fftMRjBex9sQCwaTq4A3TQfDRI3dh6koBOuizG5UHD5px00SMVK/T9eABgZfbiGqASA/BWurjThPPaOH5VwPa3z+RhHD+FL3fFg9atYXVwX9ncoYM7XTWr1wq6uof/dWtPa4R9bw02QPf25XyO3beH9dHBHaBjdHAH6Jj5aHDqJBk6rXEXsotxmW407MX55zAsCt0VygDA8qVuT5UYgLfSxZ2GnNfu113d74rdL3MKoC5qTzn8GBSsAcB9dxu/Ulf3ab1W+JBTsXtd1H63RnCtnU3SvX05qnpeAwDghXRwB+iQ+WigCxvkobEdXOt56CgolgGAVRjGNcBEDMBb6eJOA911a/01jiptxOjg5y51Z+8HndrJiw7uq5tTdHAn17XC7+nYpbVC/Dz36jXCj/XRGp0m0L19eZ/xtFnlF0nAWujgDtAxCtwBOmQ+GrwPdoBDDi6KcXnc8PmoFw9pTur7cQHA0qQb+NtxHTATBfBW3373/WmwMZXmqsKigK1qa3HsvYL2H4JiNfKlwH11c4wCd3J3Xa8X/lOvF6YtWyPs3Fsj9Pw4aaBh/FxNxLC0z/1fzgdgLRS4A3TM1yIA6Ib5aJAuhh1KArLQb/pvsBiX03jYi3NT6kyRHjvf82MDgDe7e1LKqSiAJbiI411wk53mnvemcfLtd9+n/1+FRSFbKmK7vr25um7Sbzb+Hvv1ee+/w6Jgre9HCAArdVckfvddPKvXCmn8tz5ON1n4Xndm79W/z39ZI9AileL2pUtPoDgUAwDAy+jgDtAR89Hgt+DCGORkuy4ib8P8dFeMpzskAGS2DgCaTRd3Wu5j4VpYFL1P6zFbRfF7XcCe9Orxr3uve34U8Fk6uK/uO1wHd3i+u3XC3frh/5749VSEvvXE2uPuiWr9R379hwfrBfD9zd33dmoG9YskYOV0cAfoGB3cATqg7pDclwRkJX3mJ234jRbjMl30P41zVfr9pm7u+358APAm6fv0QAzAEqQu7j8FBTi0013n1r+dY9Yd35O7Tq6v/Xd7ugEAdEPv3nq3Lw54UqW4fflippf1kyacYwAAvIACd4BuOBcBZOfH0JIC9zt1p9mD+WjQj8f3QRENALzWfvo+jd+tlSiAt7i9uZp9+933Z/X6HLomFY/0xQAAAM92LIKVuYzjUAwAAM/3lQgA2m0+GpwGRaKQo1TY1spOD6kYL47t+DIV0sz8KAHgVWxyBZbi9uZqEg9TSQAAAGRtEs8Pr8WwMh9EAADwMgrcAVpsPhr04uGdJCBb/Tb/5otxeRoPu6FlnegBoCF24vnAoRiAJRmKAAAAIFupGdGZGFbn9uaqCjaXAwC8iAJ3gHY7CYvHLQN5+rHtf4BiXE7jSMU0e3HoDAIAL3Pe1ie6AM1S32ivJAEAAJCln+N54VQMK6eLOwDACyhwB2ip+WjQj4dDSUDW9rvyBynGZRVH6uZ+HBadQgCAL0vF7UdiAJZEF3cAAID8TOO4EMNaTEQAAPB8CtwB2utEBJC9rflosN+lP1AxLtNF1O3gIh8APPu8IK4HemIA3qru1qeoAQAAIC/H8XxQ46H1nXdXkgAAeB4F7gAtNB8NDuOhLwkg+rFrf6BiXM7iSN0jU0f3yo8YAL7oXATAkpwFT1QCAADIRXV7c3UphrX6IAIAgOdR4A7QMvPRYCvo3g58st/VP1gxLq/j2IsvU7G7IhsAeGI9EM8T+mIA3qru2ncsCQAAgCwMRbD28+5JcM8LAOBZFLgDtM9RHD0xALWt+qkOnVWMy0k8bMdx4ccNAJ/1XgTAMtQ32ytJAAAAdNpZPP+bimEjJiIAAPgyBe4ALTIfDXrx8E4SwAM/dv0PWIzLWRypk+RuUGwDAI/pxfOFIzEAS6KLHwAAQHdNb2+uTsWwMT+LAADgyxS4A7TLSRxbYgAe2J+PBlnMDcW4vI5jL748iGPqRw8Afz9fyGVNAKxW3cXvTBIAAACdZFPz5s+5LyUBAPA0Be4ALTEfDfrxcCgJ4DOymh+KcZku/KVu7opuAOCTVNx+IgZgGepuflNJAAAAdMpFPN+rxLBxurgDAHyBAneA9lCoAjzlp9z+wMW4nMVxGl9ux1F5CwDAR0fz0aAnBmBJdPUDAADojlnQOKgR6k0G15IAAPg8Be4ALTAfDQ7joS8J4Ak7ca7YyfEPXozLaRx78WUaU28FAAjvRQAsQ33D/UISAAAAnTCM53kzMTSGLu4AAE9Q4A7QcPPRYCvo3g48z7uc//DFuKziSN3cU/cRF2gByFk/nkf0xQAsSVpfT8UAAADQape3N1eXYmiO+POYON8GAPg8Be4AzXcUR08MwDPs15tislaMy9N42I3DhVoAcqaLO7AUdXe/oSQAAABaa+q8rrHORAAA8DgF7gANNh8NeiHzjszAi6Ti9n0xfCxyn8ZxEF/uBd0vAMhTL55PHIkBWIbbm6sqHi4kAQAA0ErDevMyzTvfngT3sQAAHqXAHaDZTsKiYBXguWyKuacYl1Uc2/HlcRwu3gKQ3fmEp7sAS5S6yk3FAAAA0CoX9aZlmn2+DQDAAwrcARpqPhr04+FQEsAL7dTzB/cU4zJ1m0yF7hNpAJCRVNx+IgZgGepufweSAAAAaI3roHi6Defbk2BDOQDAPyhwB2guhSjAa/0kgn8qxuUsjmF8uRcWF3UBIAdH89GgJwZgGW5vrhRHAAAAtEPapDysNyvTfM61AQAeUOAO0EDz0eAwHvqSAF7pUCHb5xXjsopjN75Mxe4u7AKQg/ciAJbl9ubqNB4qSQAAADTaWb1JmXaca0+CLu4AAH+jwB2gYeajwVbQvR14u0MRPK0Yl5N42I7jQhoAdFw/nmf0xQAs0UGwWRQAAKCpLm9vrtz7aB9d3AEA7lHgDtA8R3H0xAC80bt6wwxPKMblLI7j+DJ1dK8kAkCH6eIOLE39iPuhJAAAABpn6nyttefak3jQdR8AoKbAHaBB5qNBLx7eSQJYglTcvi+G5ynG5XUce2Fx0XcqEQA6qBfPN47EACzL7c3VZfA0JAAAgKY5qDcl007HIgAAWFDgDtAsJ2FRlAqwrDmFFyjG5SQsurl7DCQAnVwbeMILsEy3N1fpxrvucgAAq2NDIfASw3ie5hyt3efZVfDEYQCAjxS4AzTEfDTox8OhJIAlSp1azSsvVIzLWRyn8eV2cBERgG5Jxe02wAHLlp6EpDsg8BJTEQA825m1FvBMk9ubq4kYOmEoAgAABe4ATaLQBDC3NEgxLqdxpGKdg+DmOwDdcTQfDXpiAJbl9uZqVq+ZAZ7rWAQAL1predok8CXX1lidmvun5n4AAAXuAI1Qd1juSwJYAV3c36gYl5fxsBt0SwKgO96LAFim+hHqiimA56jinHEpBoAXrbUuwqJ4FeAxHzcd1xti6I6L4J4UAJA5Be4AGzYfDbaCDsvAav0kgrcpxuUsjtOwKHR3Ix6AtuvH85C+GIBlqguvJpIAnpAKdIZiAHgVmwmBz9mrO37TrXNsa2cAIHsK3AE27yiOnhiAFVLEtiTFuJzGcRBf7sUxlQgALaaLO7B0tzdX6ea77qLA55wpvgJ49TqrCotuvgD3DeP84Bysu3N/arhUSQIAyJUCd4ANmo8GvXh4JwlgDRSxLVExLqs4tuPLs+ARkQC0Uy+ejxyKAViBPWtk4BHX9ZMeAHi9dC1yKgagdhHXVxMxdN7QOTYAkCsF7gCbdRLHlhiANVDEtgLFuDyNh1ToPpEGAC10HtcHzkeApaofo67IHXhoKAKApayzzKdAchnnhGMxZDH3T8NigxMAQHYUuANsyHw06MfDoSSANToRwfIV43IWR7qxlIp4PAoUgDZJxe1HYgCW7fbmKq2LFV8Bd47reQGAt6+zqnjwRAzIm/Ot/Ob+NO9XkgAAcqPAHWBzFJoC66aL+woV47KKYze+TF1TdKsEoDXnJXF90BMDsGy3N1eXQdEFEEJVF+QAsDypk+9UDJCl9Nnfq5/oQF7S+bWfOwCQFQXuABtQF5j2JQFsQCpi2xLD6hTjMt243w46KQHQHuciAFbh9uZqYl0MWUsFODa6ACx/jWV+hXzXVgeK27Od+6dhscEJACAbCtwB1qwuLNW9HdiUXhxHYlitYlzO4kid3FNH90oiADTcfjxP6YsBWIXbm6u0Lp5IArI0rAtxAFj+GqsKCh0hJ6moPXVuvxZF1nN/2kBeSQIAyIUCd4D1S4WlPTEAG/ROF/f1KMbldRx7waMjAWg+XdyBlbm9uUrr4UoSkJVJ/OxfigFgpWus03hQ7Ap5OFDczt17IbjfBABkQoE7wBrNR4NePLyTBLBhqbhdEdsaFeNyEg/bcVxIA4CG2onnK4diAFYo3YRXkAF5SJ/1YzEArG2NpdARum1YP7UB0uamNOcPJQEA5ECBO8B6nYRFYSnAph3OR4MdMaxPMS5ncaQb/KnQvZIIAA107ikvwKrUN+HT040UuUO3fSy4qT/zAKx+jTUNCh2hy9K6aiIGHsz96UlJGioBAJ2nwB1gTepC0kNJAA2ii/sGFONyGkcq7EndlaYSAaBBUnH7kRiAVVHkDlk4jp91n3GA9a6xUqHjmSSgcxS389Tcf+zcGgDoOgXuAOujkBRomv58NDgUw2YU4zLdeNoNbj4B0CwncX3QEwOwKorcodMuFGEBbGyNdRoPl5KAzlDcznOkc2tPTgIAOkuBO8AazEeD/XjoSwJooPM4R22JYTOKcTmL4zS+3A5uQAHQHCciAFapLnIfBjfioUuquoskAJuT1lc2EUIHPsuK23nBufWBJACArlLgDrAeurcDTZWK2xWxbVgxLqdxpIuQqdvGVCIAbNjhfDToiwFYpdubq+ug2xx0Rfo8K6wB2Pz6yiZCaD/F7bx07q/iwUZTAKCTFLgDrNh8NDiNh54kgAY7inPVjhg2rxiXVRypm/tZcCMKgM2yAQ5YOUXu0AkfiynrokoAmrG+sukI2klxO6+d+y/iwXsHAOgcBe4AKzQfDVJn5HeSAFrgvQiaoxiXp/GwG1yQBGBz+vF85lAMwKrVRVhp7XstDWilvfpzDEBz1ldVWHRyB9pDcTtvnfuHzqsBgK5R4A6wWudxbIkBaIGd+okTNEQxLqdxpAuSqaOli5IAbMJJvWkXYKVub66m1r3QSkPF7QCNXV9N4uFYEtCaNdVEDCyB82oAoFMUuAOsyHw06MXDoSSAFnlXz100SDEuqzhSR8t0Q8oj3wFYp7QuOBIDsA63N1dpretmPLSHQiyA5q+vLoInRII1FbmdV6fGSe4lAQCdoMAdYHXeiwBomS1zV3MV4zLdkNoObkoBsF7vdHEH1kWRO7TGRCEWQGvWV6nQ0ZwNzZPOfXatqVjBvH9dn1crcgcAWk+BO8AKzEeDfjz0JQG0UD/OYTq1NlQxLmdxpJtS6eJkJREA1iAVt5+LAViXe0Xul9KARprUxZIAtGd9pcgdmuXjOU9diAyrmPfTe+tAEgBA2ylwB1gNHZCBNjuZjwY7YmiuYlxWcaSiH4+aBGAdDq0NgHVKRe5xpJvxE2lAoyhuB2jv+irN3zYQwuZ97K6tuJ01zPtVWNxDAgBoLQXuAEtWdz7uSQJosdSp1UadFijG5SQetuO4kAYAK6aLO7B2dSHWmSSgERS3A7RfmscV1cLmKG5n3efUk6DIHQBoMQXuAEs0Hw1SUeiJJIAO2Ilz2qkYmq8Yl7M4juPL3TgqiQCwIv24NtgXA7ButzdX6bzEDXnYLMXtAN1YV6UnQaanQk6kARtZT+3Wn0NY59w/cU4NALSVAneA5Urd27fEAHTEyXw06IuhHYpxeR1HukF1EMdUIgCsgC7uwEbUN+TTWlcxCKyf4naAbq2rZvW8PpEGrM2Z9RQNOKf2HgQAWkeBO8CSzEeDXtC9Heie9/XTKWiJYlxehkU39zNpALBkvbguOBIDsAm3N1dVWBS5T6UBa6O4HaC7aytF7rB6aYPusH4qFWx63k9zvrU9ANAqCtwBlkc3Q6CLenG8F0O7FONyFsdpfLkdRyURAJboxOY3YFNub66uw2IzpzUurJ7idoDur60UucPqpOL2vbqoGJoy76f3ozU+ANAaCtwBlmA+GvTjYV8SQEft69baTsW4nMaRulweBJ0uAViOVNzuyVXAxtzeXM3iSGvciTRgZRS3A+Sztkrz/bEkYKnSxtzteoMuNG3eT+fS1voAQCsocAdYDgUeQNedz0eDHTG0UzEuL+NI3dzPwqJzDAC8xVFcF/TEAGxSXYzlpjws31BxO0B266oL6ypYmov4mdpNG3NFQYPn/UlYPB3N+xQAaDQF7gBvNB8NDuOhLwkgA7/EOW9LDO1VjMvTsLhoeSkNAN7oXATApt27KT+VBrxZKm4Z1p8rAPJdVyl2hLetpTwRgbbM++kJA3vmfQCgyRS4A7xBXeipezuQi14cv4ih3YpxOY3jICwuXE4lAsAr7cfzob4YgE2rb8qnYqxKGvBqqahlT3E7gHVVva66lga8yLW1FOZ9AIDlU+AO8DZHYVHwCZCL/nw00LG1A4pxWcWxHV+mjjI6dADwGjb7Ao1we3M1iyNt4DyTBrzYx6KWurgFAOuqaVg0xvAESHieSVgUt1tL0fZ5v5IGANA0CtwBXqnu3v5OEkCGjuIceCiGbijG5UU8pEL3iTQAeKG+NQHQJLc3V6fBI9bhJVLx4l5d1AIAd2uqtHkwPQHyWBrwWemc4yB+VobpMyMOOjDvp3PpC2kAAE2iwB3g9VIH4y0xALnOgfPRYEcM3VCMy1kcw7AoBtJpBoCXOKk3/wI0wu3NVRUWGzh1HYWnnaXiRQVZADyxrkqFjjYPwj/dPQHHOQddm/fTxqahJACAplDgDvAK89GgFw+HkgAylgrZflPQ1i3FuKzi2A2LC5huXAHwHOnc6EgMQJM86DpqXQt/lz4Te/UTDwDgS+uqKiw2D1bSgI/SJsFdT8Chw/P+JB7SfSLvcQBg4xS4A7zOexEAKHLvqmJcTsLixpXHUQLwHO+sB4Amutd11FOKYOGu22glCgBesKZKmwfTmupMGmRsWq+jTkVBBvP+x/OG4MloAMCGKXAHeKH5aNCPh74kAD7aCTb9dFIxLmdxpI6X6SJmJREAnpCK28/FADRRujGfOiwGBVmg2ygAb11XnYbFtUKbB8lN2ji7Wxf9Qi5z/v0nowEAbIQCd4CXU8gJ8Hf789HA3NhRxbi8jiN1aBqGxaPsAeAxh3E90BMD0FQKssjYNI493UYBWNKaKq2l0rVCT34kp3XUcSr2FQeZzvsX9bn0VBoAwLopcAd4gflocBgPPUkA/EMqajsSQ3cV43ISD9tB50sAPs+GN6DRFGSRocuw6DZaiQKAJa6pUlff43pdNZUIHZWefrNtHQX/O5fedS4NAKybAneAZ5qPBlvxcC4JgM86rzcC0VHFuJzFcRoWhe6VRAB4oB/XAn0xAE2mIItMpA6jB/G9fqDbKAArXFdVYVHwqCEGXZLe19uefgNPnks7xwAA1kKBO8Dzpc7EW2IAeNJ7Re7dV4zLaRzpIuZBUBQEwN/ZFAy0QirISh0Zg4Isuid1bU9FWZeiAGANa6pZXQicCt0ridBiqWB3GN/Pe3FMxQGfP5cOiyZIurkDACunwB3gGeajQS8e3kkC4Fne696ah2JcfnzcfVgUBenYAUCyY7Mb0CYKsuiQaRx7urYDsKE11XUqDI4vh8F1QtonXd9OGwQnooBnzfmejAYArIUCd4DnOQm6twO8xC/z0WBHDN1XjMtZHKdhURSkQyAAd+dPAK2hIIsOSEVZu3U3RQDY5LpqEhadfT0lhza4e/LNqQ2C8Ko5P51/7JrzAYBVUeAO8AV19/ZDSQC8SNoU9Jsi93wU43Iax0HQsQOAEHpxDXAqBqBt7hVkedQ6baEoC4Amrqlm9VNy0rpqIhEaqAqfnnwzFQcsbc6vJAIALJMCd4Avey8CgFdR5J6hYlxWcdx1aVJgAZCvd3EN4ClYQOvce9R66kJXSYSGug6KsgBo/rpqGsfQuooGSeumYXp6kyffwErm/NQASRMkAGBpChEAfN58NOjHw2+SAHiTVOS8V4zLa1Fk9z2aChvPgyehAOTqIn7/H4sBaLNvv/t+v17T9qRBA0zjOKufNtD2z9bcjzMLCgh9hnij+BkqOvS+7cfDSRx9P1msoaDza5Wjes7XAIN1OqufKPDa9+1raoOO43/zOv6zqeHb+b2/fl03UHjqv5c+H788WPvt+TECfKKDO8DTzkUA8GY6uWeqGJezOFKXpnQxxgYHgPwcxe//nhiANru9ubqMIz2hKK1rpxJhQ9LG8XTTfFthFgAtXldV97r7VhJhDdL6fWgNBRuZ8y/iwdN+aZv+K8bdJo6tB3/96Nvvvu994b+3/8i/D4B7FLgDfMZ8NDiMB8WYAMuhyD1jxbis4kiPIk6dClzIBMjLiQiALqgLYtKa1s151mlWv+e26wIRAOjCukqhO6s2DQrboQnz/azupq3QnVztf+HX34kI4GkK3AE+TyEGwHIpcs9cMS7vOnZMpAGQjUPf/UBXuDnPGk3D4qkBqSjrNL33RAJAB9dWCt1ZyRpKYTs4l4ZX2ntk3Hf8yK8/9QTrnz73C3V3d9fNAb6gEAHAP81Hg6N4OJcEwEp8fLR6MS4nosj6u3an/q7tSwOg89KTPPbEAHTNt999nzbxpmtIqePWlkRYgmkcZzkUZMXPz9yPOwt7qYBVDD5DvF78DBUZva/7YdF8qu8nzwtV9RrKdw44lyZvZ/VmilWtuz97flOvY3575Jd24z9z/cjffxoeabqZ09oP4Dl0cAd4YD4abAXd2wFWKc2z7+N8eyiKfBXj8roudkxdCXXrAOi2fvze74sB6JoHXehSF6+pVHilKo4D3UYByHxtddfR3RMgeY5Z/T5J6ycbqqCF59JxfBMW94icS9NlP73wrwNwjwJ3gH9Ku4XtFAZYPUXuhLqTf7ppdSENgE6ziRjorPrm/EUqTg6Lm/PXUuGZ0vnQbl2UdSkOAPi4tprGkdZUqfDxLCh85O/S+yFtLk2F7cP0fhEJtHrOn9Tn0mmDk3MiuvZ9lew//IVvv/s+PeW69+DvA+ARCtwB7qm7t7+TBMDapCL3czHkrRiXszg+3pQIi86FAHSPLu5AFuqb87vBzXk+bxoWRVnf1EVZNkQAwOPrqrsOv3ebCCupZG2S1tj1E2/S5lJPBYVuzfnpKR4H4VNDJJ9x2u7umlDv2+++f1jkfr8m6WdRAXyeAneAv0tdBXVvB1ivo/lo8F4MFONyGkcqBEoXMacSAejk+RZAFh7cnE+dR92cZxIUZQHAa9dWaRPhXvhU+DiVShbSRsCP3fzrjYGVSKDz8316isdxHOkpHumc2sZxXqJJ64MP917/+ODX9u/9fm16B3iCAneA2nw06MXDkSQANuIwzsN/1E/SIHPFuEwXLFPXyzNpAHSKLu5Aduqb86f1zflUnOPmfF4UZQHA8tdWx3VX91T4OJFK50zDYhND2hS4W29usDEQ8pzzL+uN4+l8+jgoBOZxl/fOuycNev9eh08F9//r4F53c9+693sH4AlfiwDgf3QTBNisnTh+m48Gw2JcukiVufgeSDctTuP7YRKP5+HexR8AWn/eVYkByFF9o3Xy7Xff9+r1bXokdU8ynTMNi5vUP6ciPHEAwMrWVun79jKurY7rtdWPwTXEtq+fPtQFgQD35/t0vyhtfLm4dz79U1jcVyRP6Tvj13Rs+Cao1MU9XQ/fiu/dw/q60I8Pfl3zN4AnFCIA+F/39j8lAdAI6ULEQTEuK1Fw77u6Hw/vgwIggC7Y8z0PsPDtd9+nG/Lpxvy+tW6rTYOirJe+9+dSyGPd58kFPkO8TfwMuZ//ss/GVlDs3hZpzVRZPwFvmPN7QbF7LmbhU1F7tc6i9gfr7s+e38S/rx8Pv91fw9Xv0bs6pLtO83/dfQ+mJ5U89s/5cQN8ooM7wMJ7EQA0RroJkTq5Hxfj8kIcJHUh5HZ8X5yGRadLHQ0A2ksXd4BaXcyTxnH9mOpUjNUPit3bYBoUtQObYz0Nj6+tUsHbJCyemnNX7P5DfXQ9cfPS2un3sOi4OxUH8MY5P80jd53dzfndXO/efWdct/U9Gt+b6fe+U78vf7/3yx/8iAG+zK4fIHt1R9jfJAHQSJM4UqH7TBTc++7uxcN50IUJoM224/f7VAwAj9PZvbGq8Okx6L7H3vYeP5VCFiY+K0DD1ld3xY99iazFXZf23+P3waU4AHM+z/nOCGvu0v6F99KrO7jXf/0oLO5pJunPdLf5YrsugH/0nwNgwaQIZG8+GqRHAvUkAdBY6YLGgSI4HvkO74fFRSGPngRon0n8bh+KAeDL7j12/a4THes9H61Cw26wAwBvXl+l4rJ++FT46PqitRPQ7Xm/f2/eT3O+Du++M5773nlrgXt6r/314G9Pf969p/45ABZMikDW5qPBYTy8lwRA46WLGsNiXOrywmPf56n7wUlwQRKgbXRxB3iFBzfm+xJZqut63N1g9z0FAPmtsf5dH11rfNq0Xjf9p143VSIBWjTnpyL3nfCp4N1Gp9VK93mrNn5nvLXAvf61X8LfGxYM469PvvTPARDC1yIAMnciAoBWSDcTfpmPBgeK3Hkovicu4ntjEhbd3A8lAtAa7+I4FgPAy9Q3U6u7/6/g/U1SjqmY/WPnOF1GAcAa694aqxc+FT3+uz72Ml4zTeP4b/362roJaPmcf7e5efLg3Lp3b87X6f11pvW4O9e+tnk8/Br+XuDuXjfAM9n1A2RrPhqkBeQvkgBohXSi/3MxLitR8IXv935YbGDrSwOg8dLN8NTF3U1xgCW614nu7qa8tfHiO+eugCF1jLuuCxoAAF661kprq6176627120vgryu10y/1/+/imOqKBHIfM6/m+Pv5vkf7s37uZuGT0/z+G/4VMw+69h7YBkd3NN75s/6vXMZf+3gOf8cADq4A3l7JwKAxpvEcVaMy6koeI56E0Q1Hw0Ow6Kju+4aAM2V5ug0X1+IAmB57nWi+5+66L0XPhVi3b3umvuF7P8XFGYBAMtfa1X1y390X63XXFv1WqtX/+W7Ivi78+B1rsHuitbv1kn/ebBmCp8r1APg4xw5q88rq0fm/PsbnO7m9h/q4/3vgbafXyf3Nz/NMtswfnbv9VPXFqYP/t6/vY/i++W4fk9cPvefA0AHdyBT89EgnWD8IQmAxpoEhe28/fv+rnAybWrrSQSgkabx+35bDACb8e133/fCpxvvafyrPja1I920HvcLtKr0P4qzAIAWr8meWnv9r5DwXgH9fZ3rlgvQ0fPu8Jlz7X+FL9/D6r/xt3F/w9P9v/Z/D861P762SRyAplDgDmRpPhq8D4uCNwCaZRIUtrOa7/70vX8SFLoDNNEwfvdPxADQTA8KqXqPrKnvdyV9qfs31O+r7r12cx0AAAAAIDMK3IHs1N1c/wyvv/EGwPJNgsJ21rMGOAqLju7WAQDNUcU1wJ4YAAAAAAAAgESBO5CduoPre0kANEIVx3ExLq9FwRrXAr14OI9jXxoAjbFtoxsAAAAAAACQfCUCIEPvRACwcdM4DlK3VsXtrFsqoIzjIL7cq9+LADhPAwAAAAAAABpCB3cgK3XH1j8lAbBRF3GcFeNyJgoasj44jIeTOHrSANiYWVwbfCMGAAAAAAAAQAd3IDf7IgDYmNSpPXVsP1bcTpPE9+MkHnbDYvMFAJuxNR8NnK8BAAAAAAAACtyB7PwoAoC1S8XsqWP7bhyVOGiitOkibb4Ii0J371OAzfhJBAAAAAAAAEAhAiAX89FgKx7+kgTAWl3GkTq2T0VBy9YNR/FwEseWNADW6htPegEAAAAAAIC86eAO5MTj7gHWZxrHXjEuDxS300bxfXsRD9txTKQB4LwNAAAAAAAAWB8F7kBOfhABwFqcxbFbjMtKFLRZ6iAcxzC+3IvjWiIAztsAAAAAAACA1StEAORiPhr8GQ89SQCsTBXHUMd2OryWOIqHkzi2pAGwMmlz0TdiAAAAAAAAgHwpcAeyMB8NevHwpyQAVmIax3ExLi9FQQZrilTcfh7HoTQAViY9CcaTMwAAAAAAACBTX4kAyMSOCABW4iwsitAUt5OF+F5PnYWH8eVeHIovAVajLwIAAAAAAADI19ciADLxgwgAlqqKY1iMy6koyFF876fPwO58NDgMi47uW1IBWJp/iwAAAAAAAADypYM7kAsd3AGWYxrHQTEu9xS3w8dC90k8bMdxIQ2ApemJAAAAAAAAAPKlwB3IhQJ3gLc7i2O3GJeXooBP4mdiFsdx+nyExdMNAHibvggAAAAAAAAgX4UIgK6bjwa9ePhTEgCvVsUx1LEdnr322I+H86ADMcBbbFt7AAAAAAAAQJ50cAdy0BMBwKtM4zgoxuWeAjN4vvopB6mb+5k0AJzHAQAAAAAAAC+jwB3IwY4IAF4sFebu1oW6wAvFz84sjtP4cjsOnyMAAAAAAAAAgGf6WgRABrZEAPBsVRxDHdthOerP0sF8NOjH4/ugIzHAc/XrdQkAAAAAAACQGQXuQA5+EAHAF03jONaxHVYjfraqeNiejwZH8XgSbMADAAAAAAAAAHjUVyIAAMjeWRy7itth9eLn7CIetuO4kAYAAAAAAAAAwD/p4A7kYEcEAI+q4hgW43IqClif+JmbxcPxfDT4EI/ncfSlAgAAAAAAAACwoMAdyMGWCAD+ZhoWhe2VKGBz4mfwOh725qPBflgUuvekAgAAAAAAAADkToE7AEA+Utfon4txeSoKaI74mbyMh8v5aJA+m++CzXkAAAAAAAAAQMa+EgEAQBZSAe2u4nZorvrzuRvHRBoA4VoEAAAAAAAAkCcd3AEAum0ax7AYl5UooPniZ/XjZ3Y+GnyIx5M4+lIBMjUTAQAAAAAAAORJB3cgB1MRABlKRWHHxbjcVtwO7ZM+t3HsxZdDaxkgUzq4AwAAAAAAQKYUuAM5mIoAyMwkjlTYfiEKaLf4OU6f5904zoJuxkBe8585DwAAAAAAADKlwB3Igc5/QE7z3V4xLoeKwqA70uc5jtOwKHS/lAiQgUoEAAAAAAAAkK+vRQBk4P9EAHRcKmY/rjs9Ax0VP+PTeDiYjwb9eDyPY0cqQEdNRQAAAAAAAAD50sEdyEElAqDDLuLYVtwO+Yif9yqO1M19GBYbXAC65r8iAAAAAAAAgHwpcAdyMBUB0EFVHLvFuEyd2xW4QobqjS3bcZxJA+jgOgcAAAAAAADIVCECIAfz0WAuBaAjpnGkovZLUQD31jq9eDiPY18aQAd8YwMfAAAAAAAA5EsHdyAXlQiADkhdmncVtwMPxXlhGsdBfLkXx7VEgBabKW4HAAAAAACAvH0tAiATqdCrLwagpVJBe+raPhUF8JQ4T1TxsDsfDQ7DoqP7llSAFp67AQAAAAAAABnTwR3IxX9EALTQNI691JVZcTvwEnHOmMTDdlg8+UEnZKBNfhcBAAAAAAAA5E2BO5CLSgRAi6Ri1NSxfbvuxgzwYnH+mMVxGl/uxjGRCODcDQAAAAAAAGiDQgRALuajwV/xsCUJoOEmYVHcruMysOy1UD8eTuLoSwNosG+sgwAAAAAAACBvCtyBbMxHg1/iYV8SQENVcZzp2A6sYU10GBaF7j1pAA1zHddCu2IAAAAAAACAvH0lAiAjv4sAaKDUoXRYjMs9xe3AOsS5ZhIPqYD0rJ6DAJrCWggAAAAAAABQ4A5kpRIB0DCpuHS7LjYFWJs478ziOA2LQndzENAUNiUDAAAAAAAAoRABkJP5aPBXPGxJAtiwKiy6tk9FATRkjbQTD+dx9KUBbNA3aQOOGAAAAAAAACBvCtyBrMxHg1/iYV8SwIZMw6KwvRIF0NC1UlonpUL3njSANaviGmlPDAAAAAAAAMBXIgAy86sIgA1InUjPinG5rbgdaLI4R12muSrNWfXcBbAuv4sAAAAAAAAASBS4A7mpRACs2SSOVNh+KgqgLeo5a7uewwDW4VIEAAAAAAAAQFKIAMjNfDT4Ix52JAGsWBUWXdsrUQAtXzv14uF9HH1pACsyrZ8eAQAAAAAAABC+FgGQoSoocAdWZxbHcTEuJ6IAuiDOZ9N42JuPBv2wKHTvSQVYwTkaAAAAAAAAwEdfiQDI0AcRACtyFse24nagi9ITKeoOy8Ow2MwDsCy/igAAAAAAAAC4U4gAyNF8NPgz6D4KLE8Vx7DucgyQw1pqKx6O4jiRBvBGs7iG+kYMAAAAAAAAwB0d3IFcXYoAWIJpHHvFuNxT3A7kJM55qSD1NL7ctq4CnJsBAAAAAAAAy6TAHcjVBxEAbzCL46wYl9txVOIAcpU298RxEF/uhcXTLACcmwEAAAAAAABvUogAyNV8NPgzHnqSAF5oEsdx6l4sCoB/rK8O4+HEGgt4prRJZlsMAAAAAAAAwH06uAM5+1kEwAtUcewV43KouB3gcXF+nMTDbhxnYfG0C4CnXIoAAAAAAAAAeEgHdyBb89GgFw9/SgL4gmkcZ3XRJgDPX2ttxcN5HIfSAD5jO66xpmIAAAAAAAAA7lPgDmRtPhr8Eg/7kgA+I3UgvtCxHeBN662dsCh070sDuKeKa6w9MQAAAAAAAAAPfS0CIHO/BgXuwD9dxnGsoyjA28W59Doe9uajQT8e38fRkwoQfRABAAAAAAAA8Bgd3IHszUeDv+JhSxJANI1jWIzLShQAK1t7HYZFR3frL8jXLK63vhEDAAAAAAAA8JivRAAQfhYBZG8WFh3btxW3A6xWnGcn8bAdx5k0IFsTEQAAAAAAAACfo8AdQHEF5O4ijlTYfiEKgPWIc27q3nwaFoXu1mKQH5uMAQAAAAAAgM8qRAAQwnw0eB8Ph5KArFRh0bX9WhQAG1+L9ePhJI6+NKDzJnH9NRQDAAAAAAAA8Dk6uAMsfBABZGMax0ExLvcUtwM0Q5yPqzQvx5fDep4GnHsBAAAAAAAAmfr/ArB3N8dtZFcYQB9U3pshgBGYjMDQtjemIjC47BXJCChGQHKFJTERCN5gy54IBo7A7QyQQfu96aal0YgzIIif/jmn6lazZiV9lKg7VV9fuOAO0Kjy7Dm4Ggp9to7zOJotP4sCoPV7WfpZfRXnRBrQKy8vswAAAAAAAAC8ygV3gK/uRAC9NY9zrtwO0A3Nz+vTOA/SAP/PBQAAAAAAAAyLC+4A33DFHXqniHM3mi0LUQB0dj8bx8eTHQ26v5e53g4AAAAAAABs4i8iAPiNn4LyFPTBOs7NaLaciwKg2+LP8jI+PlZ5lna0+zhnUoFOcr0dAAAAAAAA2IgL7gDfqfLsl6A4BV2WylMPo9lyLQqAXu5q0/i4jTOWBnSG6+0AAAAAAADAxj6IAOB3bkQAnbSIczqaLT8rtwP0V/PpHOehfqHJz3voBtfbAQAAAAAAgI254A7wA1WePcfHRBLQCWWcy9FsWYgCYHA720l83MeZSgNay/V2AAAAAAAA4E0U3AF+oMqzSXw8SwJaLV3tvRvNlg+iABj87jaOj6fgBUVoo/O4r63EAAAAAAAAAGxKwR3gFVWefYmPC0lAK6VSeyq3r0UBwDf72yTURfexNKAV5nFfuxQDAAAAAAAA8BYK7gCvaC6B/kcS0CpFnMvRbFmKAoA/2OOm8XEf50QacDTpRcRTLyQCAAAAAAAAb/VBBAA/1hRoHyQBrZD+Pn6Kfy8/KrcDsMEeN4+P0zh3oS7ZAof3qNwOAAAAAAAAbMMFd4A/UOVZuvqZrri7/gnHkUpRqRz1WRQAbLnPjePjNs5UGnAwZdzfTsUAAAAAAAAAbMMFd4A/0FwcvJEEHMU8zqlyOwDv3OdS0fYyfnkep5AIHMSlCAAAAAAAAIBtueAOsIEqz57jYyIJOIgizs1otlyJAoA97HVpp3uKM5YG7MW8eakEAAAAAAAAYCsK7gAbqPLsLD5+kQTsVRnqYvtCFAAcYL+bxsd9nBNpwM6kT8A6bT4JCwAAAAAAAGArH0QA8OeaS9J3koC9WDd/v86V2wE44H43j4/T5t8gZVzYjUvldgAAAAAAAOC9XHAHeIMqz9IV9zNJwM7M49yNZstSFAAccccbx8dtnKk0YGuLuNN9EgMAAAAAAADwXgruAG9Q5Vkqt/8iCXi3ItTF9kIUALRs17uPM5EGvEm62n7qejsAAAAAAACwCwruAG9U5dnnUF/4BN6uDHWxfS4KAFq8703i4ynOWBqwkY9eXAQAAAAAAAB2RcEdYAtVnqUr7meSgI2la56PcR5c9gSgQzvfNNQX3U+kAa9K+92NGAAAAAAAAIBdUXAH2EKVZ6nc/hyUnWATizg3o9myFAUAHdz70r53HefK7ge/s4o73rkYAAAAAAAAgF1ScAfYUnPR80kS8KpVqIvthSgA6MHuN46P2zhTacCv0qfynHuJEQAAAAAAANg1BXeAd6jy7Et8XEgCfiOVnVKxfS4KAHq4/6VP8rmPM5EGA/cp7nsLMQAAAAAAAAC79kEEAO9yGeor1UDtLs6pcjsAfRX/jVvF+Ri/TFNKhKHufMrtAAAAAAAAwL644A7wTs0Vz+c4J9JgwFLBKV1tL0UBwMB2wWmoL7rbBRnM3hd3vk9iAAAAAAAAAPZFwR1gB5pi05MkGKD0CQap2F6IAoAB74Kp3H4d5yooutP/3e9j3P3WogAAAAAAAAD2RcEdYEeqPEuXO68lwUCkUlMqts9FAQD/3wdTuT3thFNp0NP979wn9gAAAAAAAAD7puAOsENVnj3Hx0QS9NxdnAeXOwHg1Z1wHOpP97EX0hdp70uX21eiAAAAAAAAAPZNwR1gh5qrnankfiYNemgR6qvtpSgAYKPdcBLqi+52Q7ruU9wBF2IAAAAAAAAADkHBHWDHqjxLBaZUcj+RBj2RLnWmYnshCgDYaj+cxsdtnLE06KDLuAfOxQAAAAAAAAAcioI7wB4oudMT61AX2+eiAIB374dpL7yOc2VHpEOU2wEAAAAAAICDU3AH2JPmUueTJOiouzgPo9lyLQoA2OmOmMrt6Zr7tTRoOeV2AAAAAAAA4CgU3AH2SMmdDlqE+mp7KQoA2OueOI6P+zgX0qCF0ouON2IAAAAAAAAAjkHBHWDPqjxL1znvJUHLrUJdbC9EAQAH3RUnob7oPpEGLaHcDgAAAAAAAByVgjvAAVR5lq64TyVBC61DXWyfiwIAjrovpl0xFd3H0uCILu2FAAAAAAAAwLEpuAMciJI7LXQX6guda1EAQGt2xvTpP6nofiINDky5HQAAAAAAAGgFBXeAA1JypyUWob7aXooCAFq5M6Zy+0vRHQ5BuR0AAAAAAABoDQV3gANTcueIVqEutheiAIBO7I3jUJfc7Y7sk3I7AAAAAAAA0CoK7gBHoOTOgZVx7hSXAKCzu+NZfNzHmUiDHVNuBwAAAAAAAFpHwR3gSJTcOYB1nMc4D6PZci0OAOj8/jiJj7RDjqXBDii3AwAAAAAAAK2k4A5wREru7NE81FfbS1EAQO92yLQ/3gZFd7an3A4AAAAAAAC0loI7wJEpubNjRaiL7YUoAKDXO+RJfFzHuYpzIhE2lD7V50a5HQAAAAAAAGgzBXeAFlByZwfKUBfb56IAgEHtkancnq65X0uDP5HK7R/jvrgSBQAAAAAAANBmCu4ALaHkzpZSUelxNFt+FgUADHqXHMfHfZwLafADZZxPyu0AAAAAAABAFyi4A7SIkjtvNI9zM5ot16IAAJp9chLqi+4TadBIpfaPdkYAAAAAAACgKxTcAVqmyrPrUF/fhNcUoS62u8AJALy2U140O+VYGoM2D16IBAAAAAAAADpGwR2ghao8m8bHkyT4ThnqgtJCFADAG/bKVHQ/kcbg3MW98bMYAAAAAAAAgK5RcAdoqSrPJvHxJSgjEUK6uJkKSg+iAAC22CvTPpk+JejKbjmY3fHSS5EAAAAAAABAVym4A7RYlWdnoS65j6UxWKnUnsrta1EAAO/cLVO5PV1zn0qjt1ahLrevRAEAAAAAAAB0lYI7QMs1RaRUcp9IY1DSxc2b0WxZigIA2PF+OQ510f1CGr0yb/ZHL0YCAAAAAAAAnabgDtARVZ6lEtK1JHovXdtMxaRCFADAnvfLSXzcBi9Sdt262R/nogAAAAAAAAD6QMEdoEOqPEtXNp/inEijd8o4d4pJAMCRdsz0MuVYGp2TXo68jDvkShQAAAAAAABAXyi4A3RMlWfj+PgS50wavZAubj7GeRjNlmtxAABH3DOnoS66e5myG9LLkZ/FAAAAAAAAAPSNgjtAR1V5lspH15LotHmcG8V2AKBFO+ZJs2NeBUX3tnK1HQAAAAAAAOg1BXeADqvybBIfT3HG0uiUItSlpFIUAEBL98xUbk8vVE6l0SqutgMAAAAAAAC9p+AO0HFN+SiV3C+k0Xrpyma62F6IAgDoyK45jo/boOjehj3S1XYAAAAAAABgEBTcAXrCNfdWK0N9bXMuCgCgw7tmKrpPpHFQ62aPfBAFAAAAAAAAMBQK7gA90lxzT8Wja2m0QiokPcZ5GM2Wa3EAAD3YNyfxcR/nTBp7Nw/1p//YIwEAAAAAAIBBUXAH6KEqz1LhKBWPJtI4mnlQSAIA+rtvTkP9YuVYGjtXNHvkShQAAAAAAADAECm4A/RYUzxKRfcTaRxMEedyNFuWogAABrBvpk8OurVv7kTZ7JGFKAAAAAAAAIAhU3AH6Lkqz1LZ6KV4xP4Uce4UkgCAAe+bV0HRfRtls0fORQEAAAAAAACg4A4wGFWejUNdcp9KY6fKODej2XIhCgBg4Pumovvb90jFdgAAAAAAAIDvKLgDDIyi+86UQSEJAOBH+6aiuz0SAAAAAAAAYGsK7gADpei+tXWcxzgPo9lyLQ4AgFf3TUX33ypCXWwvRAEAAAAAAADwOgV3gIFTdN+YYjsAwHb75pCL7mlvXIS62F760wAAAAAAAADw5xTcAfiVC5uvKuPcxVkotgMA2Dc3tAr1y5F2SAAAAAAAAIA3UnAH4HeqPJvGxz/jTAYcQxnqS5tzfyIAAPayb6ZPERr3bH9M19ofXWsHAAAAAAAA2J6COwCvqvLsLNRF92kYzlX3ItSlpIU/AQAAe983L0J90X3S0d9CGepS+09xf1z5jgIAAAAAAAC8n4I7ABtpykep7H7R09/iPNTFpMJ3GwDg4LvmONRF92lo/4uVqcheBKV2AAAAAAAAgL1QcAfgTao8S4WjVHL/R+h+2X0d6mJ7uthe+u4CALRi32zbi5VpTyzi/Jye9kYAAAAAAACA/VJwB2Br35Td/948TzryS0+XNh/jLEaz5dp3EgDArvndrphGoR0AAAAAAADgCBTcAdiZKs/OwtcS0qRlv7xUZF+E+lr7yncLAKCTu+ak2TXT1+Md7IcvZfb/pmfcEwtJAwAAAAAAAByXgjsAe9Fc3Py2hDQ5wi/jpdT+r9FsufBdAQDo3c75smO+PP/a7KDf74T/br5OZfa1IjsAAAAAAABAeym4A3AwzdXNNH8LX8vvu1bE+TnOwqV2AAAAAAAAAAAA6BYFdwCOqsqzcXykmYSvFzdf/ttrymZernGmr1cK7QAAAAAAAAAAAAAAAAAAAAAAAAAAAAAAAAAAAAAAAAAAAAAAAAAAAAAAAAAAAAAAAAAAAAAAAAAAAAAAAAAAAAAAAAAAAAAAAAAAAAAAAAAAAAAAAAAAAAAAAAAAAAAAAAAAAAAAAAAAAAAAAAAAAAAAAAAAAAAAAAAAAAAAAAAAAAAAAAAAAAAAAAAAAAAAAAAAAAAAAAAAAAAAAAAAAAAAAAAAAAAAAAAAAAAAAAAAAAAAAAAAAAAAAAAAAAAAAAAAAAAAAAAAAAAAAAAAAAAAAAAAAAAAAAAAAAAAAAAAAAAAAAAAAAAAAAAAAAAAAAAAAAAAAAAAAAAAAAAAAAAAAAAAAAAAAAAAAAAAAAAAAAAAAAAAAAAAAAAAAAAAAAAAAAAAAAAAAAAAAAAAAAAAAAAAAAAAAAAAAAAAAAAAAAAAAAAAAAAAAAAAAAAAAAAAAAAAAAAAAAAAAAAAAAAAAAAAAAAAAAAAAAAAAAAAAAAAAAAAAAAAAAAAAAAAAAAAAAAAAAAAAAAAAAAAAAAAAAAAAAAAAAAAAAAAAAAAAAAAAAAAAAAAAAAAAAAAAAAAAAAAAAAAAAAAAAAAAAAAAAAAAAAAAAAAAAAAAAAAAAAAAAAAAAAAAAAAAAAAAAAAAAAAAAAAAAAAAAAAAAAAAAAAAAAAAAAAAAAAAAAAAAAAAAAAAAAAAAAAAAAAAAAAAAAAAAAAAAAAAAAAAAAAAAAAAAAAAAAAAAAAAAAAAAAAAAAAAAAAAAAAAAAAAAAAAAAAAAAAAAAAAAAAAAAAAAAAAAAAAAAAAAAAAAAAAAAAAAAAAAAAAAAAAAAAAAAAAAAAAAAAAAAAAAAAAAAAAAAAAAAAAAAAAAAAAAAAAAAAAAAAAAAAAAAAAAAAAAAAAAAAAAAAAAAAAAAAAAAAAAAAAAAAAAAAAAAAAAAAAAAAAAAAAAAAAAAAAAAAAAAAAAAAAAAAAAAAAAAAAAAAAAAAAAAAAAAAAAAAAAAAAAAAAAAAAAAAAAAAAAAAAAAAAAAAAAAAAAAAAAAAAAAAAAAAAAAAAAAAAAAAAAAAAAAAAAAAAAAAAAAAAAAAAAAAAAAAAAAAAAAAAAAAAAAAAAAAAAAAAAAAAAAAAAAAAAAAAAAAAAAAAAAAAAAAAAAAAAAAAAAAAAAAAAAAAAAAAAAAAAAAAAAAAAAAAAAAAAAAAAAAAAAAAAAAAAAAAAAAAAAAAAAAAAAAAAAAAAAAAAAAAAAAAAAAAAAAAAAAAAAAAAAAAAAAAAAAAAAAAAAAAAAAAAAAAAAAAAAAAAAAAAAAAAAAAAAAAAAAAAAAAAAAAAAAAAAAAAAAAAAAAAAAAAAAAAAAAAAAAAAAAAAAAAAAAAAAAAAAAAAAAAAAAAAAAAAAAAAAAAAAAAAAAAAAAAAAAAAAAAAAAAAAAAAAAAAAAAAAAAAAAAAAAAAAAAAAAAAAAAAAAAAAAAAAAAAAAAAAAAAAAAAAAAAAAAAAAAAAAAAAAAAAAAAAAAAAAAAAAAAAAAAAAAAAAAAAAAAAAAAAAAAAAAAAAAAAAAAAAAAAAAAAAAAAAAAAAAAAAAAAAAAAAAAAAAAAAAAAAAAAAAAAAAAAAAAAAAAAAAAAAAAAAAAAAAAAAAAAAAAAAAAAAAAAAAAAAAAAAAAAAAAAAAAAAAAAAAAAAAAAAAAAAAAAAAAAAAAAAAAAAAAAAAAAAAAAAAAAAAAAAAAAAAAAAAAAAAAAAAAAAAAAAAAAAAAAAAAAAAAAAAAAAAAAAAAAAAAAAAAAAAAAAAAAAAAAAAAAAAAAAAAAAAAAAAAAAAAAAAAAAAAAAAAAAAAAAAAAAAAAAAAAAAAAAAAAAAAAAAAAAAAAAAAAAAAAAAAAAAAAAAAAAAAAAAAAAAAAAAAAAAAAAAAAAAAAAAAAAAAAAAAAAAAAAAAAAAAAAAAAAAAAAAAAAAAAAAAAAAAAAAAAAAAAAAAAAAAAAAAAAAAAAAAAAAAAAAAAAAAAAAAAAAAAAAAAAAAAAAAAAAAAAAAAAAAAAAAAAAAAAAAAAAAAAAAAAAAAAAAAAAAAAAAAAAAAAAAAAAAAAAAAAAAAAAAAAAAAAAAAAAAAAAAAAAAAAAAAAAAAAAAAAAAAAAAAAAAAAAAAAAAAAAAAAAAAAAAAAAAAAAAAAAAAAAAAAAAAAAAAAAAAAAAAAAAAAAAAAAAAAAAAAAAAAAAAAAAAAAAAAAAAAAAAAAAAAAAAAAAAAAAAAAAAAAAAAAAAAAAAAAAAAAAAAAAAAAAAAAAAAAAAAAAAAAAAAAAAAAAAAAAAAAAAAAAAAAAAAAAAAAAAAAAAAAAAAAAAAAAAAAAAAAAAAAAAAAAAAAAAAAAAAAAAAAAAAAAAAAAAAAAAAAAAAAAAAAAAAAAAAAAAAAAAAAAAAAAAAAAAAAAAAAAAAAAAAAAAAAAAAAAAAAAAAAAAAAAAAAAAAAAAAAAAAAAAAAAAAAAAAAAAAAAAAAAAAAAAAAAAAAAAAAAAAAAAAAAAAAAAAAAAAAAAAAAAAAAAAAAAAAAAAAAAAAAAAAAAAAAAAAAAAAAAAAAAAAAAAAAAAAAAAAAAAAAAAAAAAAAAAAAAAAAAAAAAAAAAAAAAAAAAAAAAAAAAAAAAAAAAAAAAAAAAAAAAAAAAAAAAAAAAAAAAAAAAAAAAAAAAAAAAAAAAAAAAAAAAAAAAAAAAAAAAAAAAAAAAAAAAAAAAAAAAAAAAAAAAAAAAAAAAAAAAAAAAAAAAAAAAAAAAAAAAAAAAAAAAAAAAAAAAAAAAAAAAAAAAAAAAAAAAAAAAAAAAAAAAAAAAAAAAAAAAAAAAAAAAAAAAAAAAAAAAAAAAAAAAAAAAAAAAAAAAAAAAAAAAAAAAAAAAAAAAAAAAAAAAAAAAAAAAAAAAAAAAAAAAAAAAAAAAAAAAAAAAAAAAAAAAAAAAAAAAAAAAAAAAAAAAAAAAAAAAAAAAAAAAAAAAAAAAAAAAAAAAAAAAAAAAAAAAAAAAAAAAAAAAAAAAAAAAAAAAAAAAAAAAAAAAAAAAAAAAAAAAAAAAAAAAAAAAAAAAAAAAAAAAAAAAAAAAAAAAAAAAAAAAAAAAAAAAAAAAAAAAAAAAAAAAAAAAAAAAAAAAAAAAAAAAAAAAAAAAAAAAAAAAAAAAAAAAAAAAAAAAAAAAAAAAAAAAAAAAAAAAAAAAAAAAAAAAAAAAAAAAAAAAAAAAAAAAAAAAAAAAAAAAAAAAAAAAAAAAAAAAAAAAAAAAAAAAAAAAAAAAAAAAAAAAAAAAAAAAAAAAAAAAAAAAAAAAAAAAAAAAAAAAAAAAAAAAAAAAAAAAAAAAAAAAAAAAAAAAAAAAAAAAAAAAAAAAAAAAAAAAAAAAAAAAAAAAAAAAAAAAAAAAAAAAAAAAAAAAAAAAAAAAAAAAAAAAAAAAAAAAAAAAAAAAAAAAAAAAAAAAAAAAAAAAAAAAAAAAAAAAAAAAAAAAAAAAAAAAAAAAAAAAAAAAAAAAAAAAAAAAAAAAAAAAAAAAAAAAAAAAAAAAAAAAAAAAAAAAAAAAAAAAAAAAAAAAAAAAAAAAAAAAAAAAAAAAAAAAAAAAAAAAAAAAAAAAAAAAAAAAAAAAAAAAAAAAAAAAAAAAAAAAAAAAAAAAAAAAAAAAAAAAAAAAAAAAAAAAAAAAAAAAAAAAAAAAAAAAAAAAAAAAAAAAAAAAAAAAAAAAAAAAAAAAAAAAAAAAAAAAAAAAAAAAAAAAAAAAAAAAAAAAAAAAAAAAAAAAAAAAAAAAAAAAAAAAAAAAAAAAAAAAAAAAAAAAAAAAAAAAAAAAAAAAAAAAAAAAAAAAAAAAAAAAAAAAAAAAAAAAAAAAAAAAAAAAAAAAAAAAAAAAAAAAAAAAAAAAAAAAAAAAAAAAAPyvPTggAQAAABD0/3U/QgUAAAAAAAAAAAAAAAAAAAAAAAAAAAAAAAAAAAAAAAAAAAAAAAAAAAAAAAAAAAAAAAAAAAAAAAAAAAAAAAAAAAAAAAAAAAAAAAAAAAAAAAAAAAAAAAAAAAAAAAAAAAAAAAAAAAAAAAAAAAAAAAAAAAAAAAAAAAAAAAAAAAAAAAAAAAAAAAAAAAAAAAAAAAAAAAAAAAAAAAAAAAAAAAAAAAAAAAAAAAAAAAAAAAAAAAAAAAAAAAAAAAAAAAAAAAAAAAAAAAAAAAAAAAAAAAAAAAAAAAAAAAAAAAAAAAAAAAAAAAAAAAAAAAAAAAAAAAAAAAAAAAAAAAAAAAAAAAAAAAAAAAAAAAAAAAAAAAAAAAAAAAAAAAAAAAAAAAAAAAAAAAAAAAAAAAAAAAAAAAAAAAAAAAAAAAAAAAAAAAAAAAAAAAAAAAAAAAAAAAAAAAAAAAAAAAAAAAAAAAAAAAAAAAAAAAAAAAAAAAAAAAAAAAAAAAAAAAAAAAAAAAAAAAAAAAAAAAAAAAAAAAAAAAAAAAAAAAAAAAAAAAAAAAAAAAAAAAAAAAAAAAAAAAAAAAAAAAAAAAAAAAAAAAAAAAAAAAAAAAAAAAAAAAAAAAAAAAAAAAAAAAAAAAAAAAAAAAAAAAAAAAAAAAAAAAAAAAAAAAAAAAAAAAAAAAAAAAAAAAAAAAAAAAAAAAAAAAAAAAAAAAAAAAAAAAAAAAAAAAAAAAAAAAAAAAAAAAAAAAAAAAAAAAAAAAAAAAAAAAAAAAAAAAAAAAAAAAAAAAAAAAAAAAAAAAAAAAAAAAAAAAAAAAAAAAAAAAAAAAAAAAAAAAAAAAAAAAAAAAAAAAAAAAAAAAAAAAAAAAAAAAAAAAAAAAAAAAAAAAAAAAAAAAAAAAAAAAAAAAAAAAAAAAAAAAAAAAAAAAAAAAAAAAAAAAAAAAAAAAAAAAAAAAAAAAAAAAAAAAAAAAAAAAAAAAAAAAAAAAAAAAAAAAAAAAAAAAAAAAAAAAAAAAAAAAAAAAAAAAAAAAAAAAAAAAAAAAAAAAAAAAAAAAAAAAAAAAAAAAAAAAAAAAAAAAAAAAAAAAAAAAAAAAAAAAAAAAAAAAAAAAAAAAAAAAAAAAAAAAAAAAAAAAAAAAAAAAAAAAAAAAAAAAAAAAAAAAAAAAAAAAAAAAAAAAAAAAAAAAAAAAAAAAAAAAAAAAAAAAAAAAAAAAAAAAAAAAAAAAAAAAAAAAAAAAAAAAAAAAAAAAAAAAAAAAAAAAAAAAAAAAAAAAAAAAAAAAAAAAAAAAAAAAAAAAAAAAAAAAAAAAAAAAAAAAAAAAAAAAAAAAAAAAAAAAAAAAAAAAAAAAAAAAAAAAAAAAAAAAAAAAAAAAAAAAAAAAAAAAAAAAAAAAAAAAAAAAAAAAAAAAAAAAAAAAAAAAAAAAAAAAAAAAAAAAAAAAAAAAAAAAAAAAAAAAAAAAAAAAAAAAAAAAAAAAAAAAAAAAAAAAAAAAAAAAAAAAAAAAAAAAAAAAAAAAAAAAAAAAAAAAAAAAAAAAAAAAAAAAAAAAAAAAAAAAAAAAAAAAAAAAAAAAAAAAAAAAAAAAAAAAAAAAAAAAAAAAAAAAAAAAAAAAAAAAAAAAAAAAAAAAAAAAAAAAAAAAAAAAAAAAAAAAAAAAAAAAAAAAAAAAAAAAAAAAAAAAAAAAAAAAAAAAAAAAAAAAAAAAAAAAAAAAAAAAAAAAAAAAAAAAAAAAAAAAAAAAAAAAAAAAAAAAAAAAAAAAAAAAAAAAAAAAAAAAAAAAAAAAAAAAAAAAAAAAAAAAAAAAAAAAAAAAAAAAAAAAAAAAAAAAAAAAAAAAAAAAAAAAAAAAAAAAAAAAAAAAAAAAAAAAAAAAAAAAAAAAAAAAAAAAAAAAAAAAAAAAAAAAAAAAAAAAAAAAAAAAAAAAAAAAAAAAAAAAAAAAAAAAAAAAAAAAAAAAAAAAAAAAAAAAAAAAAAAAAAAAAAAAAAAAAAAAAAAAAAAAAAAAAAAAAAAAAAAAAAAAAAAAAAAAAAAAAAAAAAAAAAAAAAAAAAAAAAAAAAAAAAAAAAAAAAAAAAAAAAAAAAAAAAAAAAAAAAAAAAAAAAAAAAAAAAAAAAAAAAAAAAAAAAAAAAAAAAAAAAAAAAAAAAAAAAAAAAAAAAAAAAAAAAAAAAAAAAAAAAAAAAAAAAAAAAAAAAAAAAAAAAAAAAAAAAAAAAAAAAAAAAAAAAAAAAAAAAAAAAAAAAAAAAAAAAAAAAAAAAAAAAAAAAAAAAAAAAAAAAAAAAAAAAAAAAAAAAAAAAAAAAAAAAAAAAAAAAAAAAAAAAAAAAAAAAAAAAAAAAAAAAAAAAAAAAAAAAAAAAAAAAAAAAAAAAAAAAAAAAAAAAAAAAAAAAAAAAAAAAAAAAAAAAAAAAAAAAAAAAAAAAAAAAAAAAAAAAAAAAAAAAAAAAAAAAAAAAAAAAAAAAAAAAAAAAAAAAAAAAAAAAAAAAAAAAAAAAAAAAAAAAAAAAAAAAAAAAAAAAAAAAAAAAAAAAAAAAAAAAAAAAAAAAAAAAAAAAAAAAAAAAAAAAAAAAAAAAAAAAAAAAAAAAAAAAAAAAAAAAAAAAAAAAAAAAAAAAAAAAAAAAAAAAAAAAAAAAAAAAAAAAAAAAAAAAAAAAAAAAAAAAAAAAAAAAAAAAAAAAAAAAAAAAAAAAAAAAAAAAAAAAAAAAAAAAAAAAAAAAAAAAAAAAAAAAAAAAAAAAAAAAAAAAAAAAAAAAAAAAAAAAAAAAAAAAAAAAAAAAAAAAAAAAAAAAAAAAAAAAAAAAAAAAAAAAAAAAAAAAAAAAAAAAAAAAAAAAAAAAAAAAAAAAAAAAAAAAAAAAAAAAAAAAAAAAAAAAAAAAAAAAAAAAAAAAAAAAAAAAAAAAAAAAAAAAAAAAAAAAAAAAAAAAAAAAAAAAAAAAAAAAAAAAAAAAAAAAAAAAAAAAAAAAAAAAAAAAAAAAAAAAAAAAAAAAAAAAAAAAAAAAAAAAAAAAAAAAAAAAAAAAAAAAAAAAAAAAAAAAAAAAAAAAAAAAAAAAAAAAAAAAAAAAAAAAAAAAAAAAAAAAAAAAAAAAAAAAAAAAAAAAAAAAAAAAAAAAAAAAAAAAAAAAAAAAAAAAAAAAAAAAAAAAAAAAAAAAAAAAAAAAAAAAAAAAAAAAAAAAAAAAAAAAAAAAAAAAAAAAAAAAAAAAAAAAAAAAAAAAAAAAAAAAAAAAAAAAAAAAAAAAAAAAAAAAAAAAAAAAAAAAAAAAAAAAAAAAAAAAAAAAAAAAAAAAAAAAAAAAAAAAAAAAAAAAAAAAAAAAAAAAAAAAAAAAAAAAAAAAAAAAAAAAAAAAAAAAAAAAAAAAAAAAAAAAAAAAAAAAAAAAAAAAAAAAAAAAAAAAAAAAAAAAAAAAAAAAAAAAAAAAAAAAAAAAAAAAAAAAAAAAAAAAAAAAAAAAAAAAAAAAAAAAAAAAAAAAAAAAAAAAAAAAAAAAAAAAAAAAAAAAAAAAAAAAAAAAAAAAAAAAAAAAAAAAAAAAAAAAAAAAAAAAAAAAAAAAAAAAAAAAAAAAAAAAAAAAAAAAAAAAAAAAAAAAAAAAAAAAAAAAAAAAAAAAAAAAAAAAAAAAAAAAAAAAAAAAAAAAAAAAAAAAAAAAAAAAAAAAAAAAAAAAAAAAAAAAAAAAAAAAAAAAAAAAAAAAAAAAAAAAAAAAAAAAAAAAAAAAAAAAAAAAAAAAAAAAAAAAAAAAAAAAAAAAAAAAAAAAAAAAAAAAAAAAAAAAAAAAAAAAAAAAAAAAAAAAAAAAAAAAAAAAAAAAAAAAAAAAAAAAAAAAAAAAAAAAAAAAAAAAAAAAAAAAAAAAAAAAAAAAAAAAAAAAAAAAAAAAAAAAAAAAAAAAAAAAAAAAAAAAAAAAAAAAAAAAAAAAAAAAAAAAAAAAAAAAAAAAAAAAAAAAAAAAAAAAAAAAAAAAAAAAAAAAAAAAAAAAAAAAAAAAAAAAAAAAAAAAAAAAAAAAAAAAAAAAAAAAAAAAAAAAAAAAAAAAAAAAAAAAAAAAAAAAAAAAAAAAAAAAAAAAAAAAAAAAAAAAAAAAAAAAAAAAAAAAAAAAAAAAAAAAAAAAAAAAAAAAAAAAAAAAAAAAAAAAAAAAAAAAAAAAAAAAAAAAAAAAAAAAAAAAAAAAAAAAAAAAAAAAAAAAAAAAAAAAAAAAAAAAAAAAAAAAAAAAAAAAAAAAAAAAAAAAAAAAAAAAAAAAAAAAAAAAAAAAAAAAAAAAAAAAAAAAAAAAAAAAAAAAAAAAAAAAAAAAAAAAAAAAAAAAAAAAAAAAAAAAAAAAAAAAAAAAAAAAAAAAAAAAAAAAAAAAAAAAAAAAAAAAAAAAAAAAAAAAAAAAAAAAAAAAAAAAAAAAAAAAAAAAAAAAAAAAAAAAAAAAAAAAAAAAAAAAAAAAAAAAAAAAAAAAAAAAAAAAAAAAAAAAAAAAAAAAAAAAAAAAAAAAAAAAAAAAAAAAAAAAAAAAAAAAAAAAAAAAAAAAAAAAAAAAAAAAAAAAAAAAAAAAAAAAAAAAAAAAAAAAAAAAAAAAAAAAAAAAAAAAAAAAAAAAAAAAAAAAAAAAAAAAAAAAAAAAAAAAAAAAAAAAAAAAAAAAAAAAAAAAAAAAAAAAAAAAAAAAAAAAAAAAAAAAAAAAAAAAAAAAAAAAAAAAAAAAAAAAAAAAAAAAAAAAAAAAAAAAAAAAAAAAAAAAAAAAAAAAAAAAAAAAAAAAAAAAAAAAAAAAAAAAAAAAAAAAAAAAAAAAAAAAAAAAAAAAAAAAAAAAAAAAAAAAAAAAAAAAAAAAAAAAAAAAAAAAAAAAAAAAAAAAAAAAAAAAAAAAAAAAAAAAAAAAAAAAAAAAAAAAAAAAAAAAAAAAAAAAAAAAAAAAAAAAAAAAAAAAAAAAAAAAAAAAAAAAAAAAAAAAAAAAAAAAAAAAAAAAAAAAAAAAAAAAAAAAAAAAAAAAAAAAAAAAAAAAAAAAAAAAAAAAAAAAAAAAAAAAAAAAAAAAAAAAAAAAAAAAAAAAAAAAAAAAAAAAAAAAAAAAAAAAAAAAAAAAAAAAAAAAAAAAAAAAAAAAAAAAAAAAAAAAAAAAAAAAAAAAAAAAAAAAAAAAAAAAAAAAAAAAAAAAAAAAAAAAAAAAAAAAAAAAAAAAAAAAAAAAAAAAAAAAAAAAAAAAAAAAAAAAAAAAAAAAAAAAAAAAAAAAAAAAAAAAAAA4CwXhu11/Xpl2AAAAAElFTkSuQmCC;" vertex="1" parent="SieIvqfDEVxvewcRxORI-3">
          <mxGeometry x="120" y="210" width="80" height="45" as="geometry" />
        </mxCell>
        <mxCell id="SieIvqfDEVxvewcRxORI-10" value="BigQuery" style="sketch=0;html=1;verticalAlign=top;labelPosition=center;verticalLabelPosition=bottom;align=center;spacingTop=-6;fontSize=11;fontStyle=1;fontColor=#999999;shape=image;aspect=fixed;imageAspect=0;image=data:image/svg+xml,PHN2ZyB4bWxucz0iaHR0cDovL3d3dy53My5vcmcvMjAwMC9zdmciIHhtbG5zOnY9Imh0dHBzOi8vdmVjdGEuaW8vbmFubyIgd2lkdGg9IjIwLjAwMTA0NTIyNzA1MDc4IiBoZWlnaHQ9IjIwLjAwMTA0NTIyNzA1MDc4IiBmaWxsLXJ1bGU9ImV2ZW5vZGQiIHZpZXdCb3g9IjAgMCAyMC4wMDEwNDUyMjcwNTA3OCAyMC4wMDEwNDUyMjcwNTA3OCI+JiN4YTsJPHN0eWxlIHR5cGU9InRleHQvY3NzIj4mI3hhOwkuc3Qwe2ZpbGw6I2FlY2JmYTt9JiN4YTsJLnN0MXtmaWxsOiM2NjlkZjY7fSYjeGE7CS5zdDJ7ZmlsbDojNDI4NWY0O30mI3hhOwk8L3N0eWxlPiYjeGE7CTxwYXRoIGNsYXNzPSJzdDAiIGQ9Ik00LjczIDguODN2Mi42M2E0LjkxIDQuOTEgMCAwIDAgMS43MSAxLjc0VjguODN6Ii8+JiN4YTsJPHBhdGggY2xhc3M9InN0MSIgZD0iTTcuODkgNi40MXY3LjUzQTcuNjIgNy42MiAwIDAgMCA5IDE0YTggOCAwIDAgMCAxIDBWNi40MXoiLz4mI3hhOwk8cGF0aCBjbGFzcz0ic3QwIiBkPSJNMTEuNjQgOS44NnYzLjI5YTUgNSAwIDAgMCAxLjctMS44MlY5Ljg2eiIvPiYjeGE7CTxwYXRoIGNsYXNzPSJzdDIiIGQ9Ik0xNS43NCAxNC4zMmwtMS40MiAxLjQyYS40Mi40MiAwIDAgMCAwIC42bDMuNTQgMy41NGEuNDIuNDIgMCAwIDAgLjU5IDBsMS40My0xLjQzYS40Mi40MiAwIDAgMCAwLS41OWwtMy41NC0zLjU0YS40Mi40MiAwIDAgMC0uNiAwIi8+JiN4YTsJPHBhdGggY2xhc3M9InN0MSIgZD0iTTkgMGE5IDkgMCAxIDAgMCAxOEE5IDkgMCAxIDAgOSAwbTAgMTUuNjlhNi42OCA2LjY4IDAgMCAxIC4wMDctMTMuMzYgNi42OCA2LjY4IDAgMCAxIDQuNzI3IDExLjQwM0E2LjY4IDYuNjggMCAwIDEgOSAxNS42OSIvPiYjeGE7PC9zdmc+;" vertex="1" parent="SieIvqfDEVxvewcRxORI-3">
          <mxGeometry x="199" y="55" width="42" height="42" as="geometry" />
        </mxCell>
        <mxCell id="SieIvqfDEVxvewcRxORI-17" value="warehouse" style="rounded=0;whiteSpace=wrap;html=1;" vertex="1" parent="SieIvqfDEVxvewcRxORI-3">
          <mxGeometry x="320" y="160" width="70" height="50" as="geometry" />
        </mxCell>
        <mxCell id="SieIvqfDEVxvewcRxORI-20" style="edgeStyle=orthogonalEdgeStyle;rounded=0;orthogonalLoop=1;jettySize=auto;html=1;exitX=1;exitY=0.5;exitDx=0;exitDy=0;" edge="1" parent="SieIvqfDEVxvewcRxORI-3" source="SieIvqfDEVxvewcRxORI-18" target="SieIvqfDEVxvewcRxORI-17">
          <mxGeometry relative="1" as="geometry" />
        </mxCell>
        <mxCell id="SieIvqfDEVxvewcRxORI-18" value="" style="shape=image;verticalLabelPosition=bottom;verticalAlign=top;imageAspect=0;image=data:image/png,iVBORw0KGgoAAAANSUhEUgAAC7gAAAgLCAYAAADco44/AAAAGXRFWHRTb2Z0d2FyZQBBZG9iZSBJbWFnZVJlYWR5ccllPAAA8ONJREFUeNrswQEBAAAAgJD+r+4ICgAAAAAAAAAAAAAAAAAAAAAAAAAAAAAAAAAAAAAAAAAAAAAAAAAAAAAAAAAAAAAAAAAAAAAAAAAAAAAAAAAAAAAAAAAAAAAAAAAAAAAAAAAAAAAAAAAAAAAAAAAAAAAAAAAAAAAAAAAAAAAAAAAAAAAAAAAAAAAAAAAAAAAAAAAAAAAAAAAAAAAAAAAAAAAAAAAAAAAAAAAAAAAAAAAAAAAAAAAAAAAAAAAAAAAAAAAAAAAAAAAAAAAAAAAAAAAAAAAAAAAAAAAAAAAAAAAAAAAAAAAAAAAAAAAAAAAAAAAAAAAAAAAAAAAAAAAAAAAAAAAAAAAAAAAAAAAAAAAAAAAAAAAAAAAAAAAAAAAAAAAAAAAAAAAAAAAAAAAAAAAAAAAAAAAAAAAAAAAAAAAAAAAAAAAAAAAAAAAAAAAAAAAAAAAAAAAAAAAAAAAAAAAAAAAAAAAAAAAAAAAAAAAAAAAAAAAAAAAAAAAAAAAAAAAAAAAAAAAAAAAAAAAAAAAAAAAAAAAAAAAAAAAAAAAAAAAAAAAAAAAAAAAAAAAAAAAAAAAAAAAAAAAAAAAAAAAAAAAAAAAAAAAAAAAAAAAAAAAAAAAAAAAAAAAAAAAAAAAAAAAAAAAAAAAAAAAAAAAAAAAAAAAAAAAAAAAAAAAAAAAAAAAAAAAAAAAAAAAAAAAAAAAAAAAAAAAAAAAAAAAAAAAAAAAAAAAAAAAAAAAAAAAAAAAAAAAAAAAAAAAAAAAAAAAAAAAAAAAAAAAAAAAAAAAAAAAAAAAAAAAAAAAAAAAAAAAAAAAAAAAAAAAAAAAAAAAAAAAAAAAAAAAAAAAAAAAAAAAAAAAAAAAAAAAAAAAAAAAAAAAAAAAAAAAAAAAAAAAAAAAAAAAAAAAAAAAAAAAAAAAAAAAAAAAAAAAAAAAAAAAAAAAAAAAAAAAAAAAAAAAAAAAAAAAAAAAAAAAAAAAAAAAAAAAAAAAAAAAAAAAAAAAAAAAAAAAAAAAAAAAAAAAAAAAAAAAAAAAAAAAAAAAAAAAAAAAAAAAAAAAAAAAAAAAAAAAAAAAAAAAAAAAAAAAAAAAAAAAAAAAAAAAAAAAAAAAAAAAAAAAAAAAAAAAAAAAAAAAAAAAAAAAAAAAAAAAAAAAAAAAAAAAAAAAAAAAAAAAAAAAAAAAAAAAAAAAAAAAAAAAAAAAAAAAAAAAAAAAAAAAAAAAAAAAAAAAAAAAAAAAAAAAAAAAAAAAAAAAAAAAAAAAAAAAAAAAAAAAAAAAAAAAAAAAAAAAAAAAAAAAAAAAAAAAAAAAAAAAAAAAAAAAAAAAAAAAAAAAAAAAAAAAAAAAAAAAAAAAAAAAAAAAAAAAAAAAAAAAAAAAAAAAAAAAAAAAAAAAAAAAAAAAAAAAAAAAAAAAAAAAAAAAAAAAAAAAAAAAAAAAAAAAAAAAAAAAAAAAAAAAAAAAAAAAAAAAAAAAAAAAAAAAAAAAAAAAAAAAAAAAAAAAAAAAAAAAAAAAAAAAAAAAAAAAAAAAAAAAAAAAAAAAAAAAAAAAAAAAAAAAAAAAAAAAAAAAAAAAAAAAAAAAAAAAAAAAAAAAAAAAAAAAAAAAAAAAAAAAAAAAAAAAAAAAAAAAAAAAAAAAAAAAAAAAAAAAAAAAAAAAAAAAAAAAAAAAAAAAAAAAAAAAAAAAAAAAAAAAAAAAAAAAAAAAAAAAAAAAAAAAAAAAAAAAAAAAAAAAAAAAAAAAAAAAAAAAAAAAAAAAAAAAAAAAAAAAAAAAAAAAAAAAAAAAAAAAAAAAAAAAAAAAAAAAAAAAAAAAAAAAAAAAAAAAAAAAAAAAAAAAAAAAAAAAAAAAAAAAAAAAAAAAAAAAAAAAAAAAAAAAAAAAAAAAAAAAAAAAAAAAAAAAAAAAAAAAAAAAAAAAAAAAAAAAAAAAAAAAAAAAAAAAAAAAAAAAAAAAAAAAAAAAAAAAAAAAAAAAAAAAAAAAAAAAAAAAAAAAAAAAAAAAAAAAAAAAAAAAAAAAAAAAAAAAAAAAAAAAAAAAAAAAAAAAAAAAAAAAAAAAAAAAAAAAAAAAAAAAAAAAAAAAAAAAAAAAAAAAAAAAAAAAAAAAAAAAAAAAAAAAAAAAAAAAAAAAAAAAAAAAAAAAAAAAAAAAAAAAAAAAAAAAAAAAAAAAAAAAAAAAAAAAAAAAAAAAAAAAAAAAAAAAAAAAAAAAAAAAAAAAAAAAAAAAAAAAAAAAAAAAAAAAAAAAAAAAAAAAAAAAAAAAAAAAAAAAAAAAAAAAAAAAAAAAAAAAAAAAAAAAAAAAAAAAAAAAAAAAAAAAAAAAAAAAAAAAAAAAAAAAAAAAAAAAAAAAAAAAAAAAAAAAAAAAAAAAAAAAAAAAAAAAAAAAAAAAAAAAAAAAAAAAAAAAAAAAAAAAAAAAAAAAAAAAAAAAAAAAAAAAAAAAAAAAAAAAAAAAAAAAAAAAAAAAAAAAAAAAAAAAAAAAAAAAAAAAAAAAAAAAAAAAAAAAAAAAAAAAAAAAAAAAAAAAAAAAAAAAAAAAAAAAAAAAAAAAAAAAAAAAAAAAAAAAAAAAAAAAAAAAAAAAAAAAAAAAAAAAAAAAAAAAAAAAAAAAAAAAAAAAAAAAAAAAAAAAAAAAAAAAAAAAAAAAAAAAAAAAAAAAAAAAAAAAAAAAAAAAAAAAAAAAAAAAAAAAAAAAAAAAAAAAAAAAAAAAAAAAAAAAAAAAAAAAAAAAAAAAAAAAAAAAAAAAAAAAAAAAAAAAAAAAAAAAAAAAAAAAAAAAAAAAAAAAAAAAAAAAAAAAAAAAAAAAAAAAAAAAAAAAAAAAAAAAAAAAAAAAAAAAAAAAAAAAAAAAAAAAAAAAAAAAAAAAAAAAAAAAAAAAAAAAAAAAAAAAAAAAAAAAAAAAAAAAAAAAAAAAAAAAAAAAAAAAAAAAAAAAAAAAAAAAAAAAAAAAAAAAAAAAAAAAAAAAAAAAAAAAAAAAAAAAAAAAAAAAAAAAAAAAAAAAAAAAAAAAAAAAAAAAAAAAAAAAAAAAAAAAAAAAAAAAAAAAAAAAAAAAAAAAAAAAAAAAAAAAAAAAAAAAAAAAAAAAAAAAAAAAAAAAAAAAAAAAAAAAAAAAAAAAAAAAAAAAAAAAAAAAAAAAAAAAAAAAAAAAAAAAAAAAAAAAAAAAAAAAAAAAAAAAAAAAAAAAAAAAAAAAAAAAAAAAAAAAAAAAAAAAAAAAAAAAAAAAAAAAAAAAAAAAAAAAAAAAAAAAAAAAAAAAAAAAAAAAAAAAAAAAAAAAAAAAAAAAAAAAAAAAAAAAAAAAAAAAAAAAAAAAAAAAAAAAAAAAAAAAAAAAAAAAAAAAAAAAAAAAAAAAAAAAAAAAAAAAAAAAAAAAAAAAAAAAAAAAAAAAAAAAAAAAAAAAAAAAAAAAAAAAAAAAAAAAAAAAAAAAAAAAAAAAAAAAAAAAAAAAAAAAAAAAAAAAAAAAAAAAAAAAAAAAAAAAAAAAAAAAAAAAAAAAAAAAAAAAAAAAAAAAAAAAAAAAAAAAAAAAAAAAAAAAAAAAAAAAAAAAAAAAAAAAAAAAAAAAAAAAAAAAAAAAAAAAAAAAAAAAAAAAAAAAAAAAAAAAAAAAAAAAAAAAAAAAAAAAAAAAAAAAAAAAAAAAAAAAAAAAAAAAAAAAAAAAAAAAAAAAAAAAAAAAAAAAAAAAAAAAAAAAAAAAAAAAAAAAAAAAAAAAAAAAAAAAAAAAAAAAAAAAAAAAAAAAAAAAAAAAAAAAAAAAAAAAAAAAAAAAAAAAAAAAAAAAAAAAAAAAAAAAAAAAAAAAAAAAAAAAAAAAAAAAAAAAAAAAAAAAAAAAAAAAAAAAAAAAAAAAAAAAAAAAAAAAAAAAAAAAAAAAAAAAAAAAAAAAAAAAAAAAAAAAAAAAAAAAAAAAAAAAAAAAAAAAAAAAAAAAAAAAAAAAAAAAAAAAAAAAAAAAAAAAAAAAAAAAAAAAAAAAAAAAAAAAAAAAAAAAAAAAAAAAAAAAAAAAAAAAAAAAAAAAAAAAAAAAAAAAAAAAAAAAAAAAAAAAAAAAAAAAAAAAAAAAAAAAAAAAAAAAAAAAAAAAAAAAAAAAAAAAAAAAAAAAAAAAAAAAAAAAAAAAAAAAAAAAAAAAAAAAAAAAAAAAAAAAAAAAAAAAAAAAAAAAAAAAAAAAAAAAAAAAAAAAAAAAAAAAAAAAAAAAAAAAAAAAAAAAAAAAAAAAAAAAAAAAAAAAAAAAAAAAAAAAAAAAAAAAAAAAAAAAAAAAAAAAAAAAAAAAAAAAAAAAAAAAAAAAAAAAAAAAAAAAAAAAAAAAAAAAAAAAAAAAAAAAAAAAAAAAAAAAAAAAAAAAAAAAAAAAAAAAAAAAAAAAAAAAAAAAAAAAAAAAAAAAAAAAAAAAAAAAAAAAAAAAAAAAAAAAAAAAAAAAAAAAAAAAAAAAAAAAAAAAAAAAAAAAAAAAAAAAAAAAAAAAAAAAAAAAAAAAAAAAAAAAAAAAAAAAAAAAAAAAAAAAAAAAAAAAAAAAAAAAAAAAAAAAAAAAAAAAAAAAAAAAAAAAAAAAAAAAAAAAAAAAAAAAAAAAAAAAAAAAAAAAAAAAAAAAAAAAAAAAAAAAAAAAAAAAAAAAAAAAAAAAAAAAAAAAAAAAAAAAAAAAAAAAAAAAAAAAAAAAAAAAAAAAAAAAAAAAAAAAAAAAAAAAAAAAAAAAAAAAAAAAAAAAAAAAAAAAAAAAAAAAAAAAAAAAAAAAAAAAAAAAAAAAAAAAAAAAAAAAAAAAAAAAAAAAAAAAAAAAAAAAAAAAAAAAAAAAAAAAAAAAAAAAAAAAAAAAAAAAAAAAAAAAAAAAAAAAAAAAAAAAAAAAAAAAAAAAAAAAAAAAAAAAAAAAAAAAAAAAAAAAAAAAAAAAAAAAAAAAAAAAAAAAAAAAAAAAAAAAAAAAAAAAAAAAAAAAAAAAAAAAAAAAAAAAAAAAAAAAAAAAAAAAAAAAAAAAAAAAAAAAAAAAAAAAAAAAAAAAAAAAAAAAAAAAAAAAAAAAAAAAAAAAAAAAAAAAAAAAAAAAAAAAAAAAAAAAAAAAAAAAAAAAAAAAAAAAAAAAAAAAAAAAAAAAAAAAAAAAAAAAAAAAAAAAAAAAAAAAAAAAAAAAAAAAAAAAAAAAAAAAAAAAAAAAAAAAAAAAAAAAAAAAAAAAAAAAAAAAAAAAAAAAAAAAAAAAAAAAAAAAAAAAAAAAAAAAAAAAAAAAAAAAAAAAAAAAAAAAAAAAAAAAAAAAAAAAAAAAAAAAAAAAAAAAAAAAAAAAAAAAAAAAAAAAAAAAAAAAAAAAAAAAAAAAAAAAAAAAAAAAAAAAAAAAAAAAAAAAAAAAAAAAAAAAAAAAAAAAAAAAAAAAAAAAAAAAAAAAAAAAAAAAAAAAAAAAAAAAAAAAAAAAAAAAAAAAAAAAAAAAAAAAAAAAAAAAAAAAAAAAAAAAAAAAAAAAAAAAAAAAAAAAAAAAAgNm7m+M20msNwB9UNwDcDKAILhSBm9vemBOBwWWvCEYgMgJCKyzJiUD0BlvBEQiOQJ2BkUHf71O3PBqNSIEkfvrneapOtVyuskevLOm46u3TAAAAAAAAAAAAAAAAAAAAAAAAAAAAAAAAAAAAAAAAAAAAAAAAAAAAAAAAAAAAAAAAAAAAAAAAAAAAAAAAAAAAAAAAAAAAAAAAAAAAAAAAAAAAAAAAAAAAAAAAAAAAAAAAAAAAAAAAAAAAAAAAAAAAAAAAAAAAAAAAAAAAAAAAAAAAAAAAAAAAAAAAAAAAAAAAAAAAAAAAAAAAAAAAAAAAAAAAAAAAAAAAAAAAAAAAAAAAAAAAAAAAAAAAAAAAAAAAAAAAAAAAAAAAAAAAAAAAAAAAAAAAAAAAAAAAAAAAAAAAAAAAAAAAAAAAAAAAAAAAAAAAAAAAAAAAAAAAAAAAAAAAAAAAAAAAAAAAAAAAAAAAAAAAAAAAAAAAAAAAAAAAAAAAAAAAAAAAAAAAAAAAAAAAAAAAAAAAAAAAAAAAAAAAAAAAAAAAAAAAAAAAAAAAAAAAAAAAAAAAAAAAAAAAAAAAAAAAAAAAAAAAAAAAAAAAAAAAAAAAAAAAAAAAAAAAAAAAAAAAAAAAAAAAAAAAAAAAAAAAAAAAAAAAAAAAAAAAAAAAAAAAAAAAAAAAAAAAAAAAAAAAAAAAAAAAAAAAAAAAAAAAAAAAAAAAAAAAAAAAAAAAAAAAAAAAAAAAAAAAAAAAAAAAAAAAAAAAAAAAAAAAAAAAAAAAAAAAAAAAAAAAAAAAAAAAAAAAAAAAAAAAAAAAAAAAAAAAAAAAAAAAAAAAAAAAAAAAAAAAAAAAAAAAAAAAAAAAAAAAAAAAAAAAAAAAAAAAAAAAAAAAAAAAAAAAAAAAAAAAAAAAAAAAAAAAAAAAAAAAAAAAAAAAAAAAAAAAAAAAAAAAAAAAAAAAAAAAAAAAAAAAAAAAAAAAAAAAAAAAAAAAAAAAAAAAAAAAAAAAAAAAAAAAAAAAAAAAAAAAAAAAAAAAAAAAAAAAAAAAAAAAAAAAAAAAAAAAAAAAAAAAAAAAAAAAAAAAAAAAAAAAAAAAAAAAAAAAAAAAAAAAAAAAAAAAAAAAAAAAAAAAAAAAAAAAAAAAAAAAAAAAAAAAAAAAAAAAAAAAAAAAAAAAAAAAAAAAAAAAAAAAAAAAAAAAAAAAAAAAAAAAAAAAAAAAAAAAAAAAAAAAAAAAAAAAAAAAAAAAAAAAAAAAAAAAAAAAAAAAAAAAAAAAAAAAAAAAAAAAAAAAAAAAAAAAAAAAAAAAAAAAAAAAAAAAAAAAAAAAAAAAAAAAAAAAAAAAAAAAAAAAAAAAAAAAAAAAAAAAAAAAAAAAAAAAAAAAAAAAAAAAAAAAAAAAAAAAAAAAAAAAAAAAAAAAAAAAAAAAAAAAAAAAAAAAAAAAAAAAAAAAAAAAAAAAAAAAAAAAAAAAAAAAAAAAAAAAAAAAAAAAAAAAAAAAAAAAAAAAAAAAAAAAAAAAAAAAAAAAAAAAAAAAAAAAAAAAAAAAAAAAAAAAAAAAAAAAAAAAAAAAAAAAAAAAAAAAAAAAAAAAAAAAAAAAAAAAAAAAAAAAAAAAAAAAAAAAAAAAAAAAAAAAAAAAAAAAAAAAAAAAAAAAAAAAAAAAAAAAAAAAAAAAAAAAAAAAAAAAAAAAAAAAAAAAAAAAAAAAAAAAAAAAAAAAAAAAAAAAAAAAAAAAAAAAAAAAAAAAAAAAAAAAAAAAAAAAAAAAAAAAAAAAAAAAAAAAAAAAAAAAAAAAAAAAAAAAAAAAAAAAAAAAAAAAAAAAAAAAAAAAAAAAAAAAAAAAAAAAAAAAAAAAAAAAAAAAAAAAAAAAAAAAAAAAAAAAAAAAAAAAAAAAAAAAAAAAAAAAAAAAAAAAAAAAAAAAAAAAAAAAAAAAAAAAAAAAAAAAAAAAAAAAAAAAAAAAAAAAAAAAAAAAAAAAAAAAAAAAAAAAAAAAAAAAAAAAAAAAAAAAAAAAAAAAAAAAAAAAAAAAAAAAAAAAAAAAAAAAAAAAAAAAAAAAAAAAAAAAAAAAAAAAAAAAAAAAAAAAAAAAAAAAAAAAAAAAAAAAAAAAAAAAAAAAAAAAAAAAAAAAAAAAAAAAAAAAAAAAAAAAAAAAAAAAAAAAAAAAAAAAAAAAAAAAAAAAAAAAAAAAAAAAAAAAAAAAAAAAAAAAAAAAAAAAAAAAAAAAAAAAAAAAAAAAAAAAAAAAAAAAAAAAAAAAAAAAAAAAAAAAAAAAAAAAAAAAAAAAAAAAAAAAAAAAAAAAAAAAAAAAAAAAAAAAAAAAAAAAAAAAAAAAAAAAAAAAAAAAAAAAAAAAAAAAAAAAAAAAAAAAAAAAAAAAAAAAAAAAAAAAAAAAAAAAAAAAAAAAAAAAAAAAAAAAAAAAAAAAAAAAAAAAAAAAAAAAAAAAAAAAAAAAAAAAAAAAAAAAAAAAAAAAAAAAAAAAAAAAAAAAAAAAAAAAAAAAAAAAAAAAAAAAAAAAAAAAAAAAAAAAAAAAAAAAAAAAAAAAAAAAAAAAAAAAAAAAAAAAAAAAAAAAAAAAAAAAAAAAAAAAAAAAAAAAAAAAAAAAAAAAAAAAAAAAAAAAAAAAAAAAAAAAAAAAAAAAAAAAAAAAAAAAAAAAAAAAAAAAAAAAAAAAAAAAAAAAAAAAAAAAAAAAAAAAAAAAAAAAAAAAAAAAAAAAAAAAAAAAAAAAAAAAAAAAAAAAAAAAAAAAAAAAAAAAAAAAAAAAAAAAAAAAAAAAAAAAAAAAAAAAAAAAAAAAAAAAAAAAAAAAAAAAAAAAAAAAAAAAAAAAAAAAAAAAAAAAAAAAAAAAAAAAAAAAAAAAAAAAAAAAAAAAAAAAAAAAAAAAAAAAAAAAAAAAAAAAAAAAAAAAAAAAAAAAAAAAAAAAAAAAAAAAAAAAAAAAAAAAAAAAAAAAAAAAAAAAAAAAAAAAAAAAAAAAAAAAAAAAAAAAAAAAAAAAAAAAAAAAAAAAAAAAAAAAAAAAAAAAAAAAAAAAAAAAAAAAAAAAAAAAAAAAAAAAAAAAAAAAAAAAAAAAAAAAAAAAAAAAAAAAAAAAAAAAAAAAAAAAAAAAAAAAAAAAAAAAAAAAAAAAAAAAAAAAAAAAAAAAAAAAAAAAAAAAAAAAAAAAAAAAAAAAAAAAAAAAAAAAAAAAAAAAAAAAAAAAAAAAAAAAAAAAAAAAAAAAAAAAAAAAAAAAAAAAAAAAAAAAAAAAAAAAAAAAAAAAAAAAAAAAAAAAAAAAAAAAAAAAAAAAAAAAAAAAAAAAAAAAAAAAAAAAAAAAAAAAAAAAAAAAAAAAAAAAAAAAAAAAAAAAAAAAAAAAAAAAAAAAAAAAAAAAAAAAAAAAAAAAAAAAAAAAAAAAAAAAAAAAAAAAAAAAAAAAAAAAAAAAAAAAAAAAAAAAAAAAAAAAAAAAAAAAAAAAAAAAAAAAAAAAAAAAAAAAAAAAAAAAAAAAAAAAAAAAAAAAAAAAAAAAAAAAAAAAAAAAAAAAAAAAAAAAAAAAAAAAAAAAAAAAAAAAAAAAAAAAAAAAAAAAAAAAAAAAAAAAAAAAAAAAAAAAAAAAAAAAAAAAAAAAAAAAAAAAAAAAAAAAAAAAAAAAAAAAAAAAAAAAAAAAAAAAAAAAAAAAAAAAAAAAAAAAAAAAAAAAAAAAAAAAAAAAAAAAAAAAAAAAAAAAAAAAAAAAAAAAAAAAAAAAAAAAAAAAAAAAAAAAAAAAAAAAAAAAAAAA8JSRCABok6rIp/ExjpP98G+tm2c5Wq5KSQEA8N0OmfbHafMvv+2T32zibNMz7pFbaQEAAAAAAAC0m4I7ACdRFXkWH5M4/xfqEtKkmV19Kyr9K04Z6sLSRrIAAIPYIdP8LdRF9ukz/2PWzf7472anVHwHAAAAAAAAaBEFdwAOrrnKnoU/yuzTA/7XrUNdVErF97WyEgBAZ3fIyXc7ZHbgHbJs9sh/NzukFycBAAAAAAAATkTBHYC9+67Q/rfmOT7hP04qJ/0zzoOiEgBA6/fI8+92yOmJ/3HWzR6p8A4AAAAAAABwRAruALxaVeSpwJ7KSH8Ppy+0P6UMTVFptFw9+JUDAGjFLvltjzxv8R6ZvgqU9sf0laAHXwkCAAAAAAAAOBwFdwBepCrySahLSP8Ip7+u+RJlqEtKH0bLVelXFADgqLtk2h8vQ7tL7U9JF91/D3XZ3S4JAAAAAAAAsEcK7gDsrAel9ses4/w+Wq7u/SoDABx0n5w1u2TWo5/Wt7L7vcvuAAAAAAAAAK+n4A7Ak6oiTxc1U6k9Xdic9vynW4a6nLRQTgIA2Os+OWv2yUnPf7rpC0H/9OIkAAAAAAAAwMspuAPwU1WRZ6G+rpnK7eOB/fRTuf1DUHQHAHjtTnkd6mL7EPfJ+7RTxn2y9L8EAAAAAAAAgN0puAPwXwO71r4LRXcAgJftlbP4eB/6f7F9F+tQF90fRAEAAAAAAADwawruAKQC0iQ+ZmGY1zV3kcrtN6PlaiEKAIAn98os1MX2TBp/UaadMs6DlycBAAAAAAAAHqfgDjBgTbE9FZBm0thJGef34KI7AMCPe2UWFNt35StBAAAAAAAAAE9QcAcYIMX2V3PRHQAgKLbvYadUdAcAAAAAAAD4gYI7wIAotu9dGeqi+70oAICB7ZVZUGzfF0V3AAAAAAAAgO8ouAMMQFXk4/i4DYrth1LGuRotVw+iAAB6vldO4uMuKLYfgq8EAQAAAAAAAAQFd4Bea4rt8ziXccYSObh1qEtJa1EAAD3bKyfBl4COpQxengQAAAAAAAAGTMEdoKeqIj8P9dX2iTSObh3nYrRclaIAADq+U6aXJFOxfS4NOyUAAAAAAADAMSi4A/RMc13zLk4mjZO7D/X1za0oAICO7ZS+BNQeN3EWdkoAAAAAAABgKBTcAXqkKvLrUF/YpD1SEelDUEoCALqzU86anXIijdYoQ/3i5IMoAAAAAAAAgL5TcAfogarIs1BfbZ9Io7VSuT2Vku5FAQDYKXmhVHC/8OIkAAAAAAAA0GcK7gAdVhX5ONTXNefS6Iwy1KWktSgAgJbslFmzU2bS6IRts0+65g4AAAAAAAD0koI7QEdVRT6Nj4/Bhc2uWof6ovtGFADAifbJtEemYvtMGp3kmjsAAAAAAADQSwruAB1UFfl1qMtIdN99qIvuikkAwLF2yfQVoLl9shfK4OtAAAAAAAAAQM8ouAN0SFNGSlfbM2n0Siq3f4izUHQHAA68T34rto+l0Ss3cY+8FgMAAAAAAADQBwruAB1RFXkW6nK7MlJ/laEuJ92LAgDY8y55Hh+3cSbS6K11nN+8MAkAAAAAAAB0nYI7QAdURX4d6kubDMM61EX3tSgAgFfukVmzR2bSGIRUbj+Le+RGFAAAAAAAAEBXKbgDtFhV5Ola+12cc2kM0kOcq9FyVYoCAHjmHjkJdbF9Jo1BuvBVIAAAAAAAAKCrFNwBWqoq8mmoy+1TaQzeTZzFaLnaigIA+MUOmV6QnMe5jDOWyKDdx/3xQgwAAAAAAABA1yi4A7RQVeRZfHwMSkn8IZXbb0bL1UIUAMAjO+QsPm7tkHxnE+fMi5IAAAAAAABAlyi4A7RMU0y6kwSPKONcjJartSgAgGZ/zEJdbPflH35m0+yPG1EAAAAAAAAAXaDgDtAiVZFfx8d7SbCDdaiLSqUoAGCwu+Mk1C9GZtLgF9IF9zMldwAAAAAAAKALFNwBWqIq8lROmkmCZ1rEuRktV1tRAMBg9sZxqF+KnEuDZ0j7YnpB8kEUAAAAAAAAQJspuAO0gHI7r5TKSqnkvhAFAPR+b7yOj8s4Y2nwQqnkfi8GAAAAAAAAoK0U3AFOqLm++TFOJg32oIxz5SonAPRybzyPj9s4E2mwB0ruAAAAAAAAQGspuAOcSFNu/xRnKg32bB3qovtGFADQ+Z0x7Yqp2J5Jgz1TcgcAAAAAAABaScEd4ASU2zmS+1AX3beiAIBO7oup2D6TBgek5A4AAAAAAAC0joI7wJEpt3Nkqdz+YbRcXYsCADqzK87jXMYZS4QjUHIHAAAAAAAAWkXBHeCIlNs5oTLU19wfRAEArd0VZ/HxPs5EGhyZkjsAAAAAAADQGgruAEei3E5LrENddN+IAgBasydmoS62Z9LghJTcAQAAAAAAgFZQcAc4AuV2Wug+1EX3rSgA4GQ74iTUxfaZNGgJJXcAAAAAAADg5BTcAQ5MuZ0WS+X2D6Pl6loUAHD0/XAe5zLOWCK0jJI7AAAAAAAAcFIK7gAHVhX5x/g4lwQtVob6mvuDKADg4LvhLNRX2yfSoMWU3AEAAAAAAICTUXAHOKCqyO/iYyYJOmId6jJTKQoA2PtemIW62J5Jg45QcgcAAAAAAABOQsEd4ECU2+mwRZyb0XK1FQUAvHonnIS62G4vpIvexZ1wIwYAAAAAAADgmBTcAQ6gKvJ5fNxKgg5L5fZUcl+IAgBetA+O4yPthJdxxhKhwzvhmZI7AAAAAAAAcEwK7gB7VhX5LD7uJEFPlHEuRsvVWhQA8Kx9MF1tn0iDHkgl97e+7gMAAAAAAAAci4I7wB5VRT6Nj0/BlU76Zx3qonspCgB4dBfMQl1sz6RBz6QL7mdK7gAAAAAAAMAxKLgD7ElV5KnU/iUot9Nvizg3yk0A8Kc9cBLqYvtMGvTYQ9wBfxMDAAAAAAAAcGgK7gB70JTb0+X2qTQYgFRuTyX3hSgAsAOGeZzL4CVHhmERd8ArMQAAAAAAAACHpOAOsAdVkd8FFzsZnk2cq9FytRYFAAPc/9Lul662T6TBwFzE/e9eDAAAAAAAAMChKLgDvFJTbrqTBAP2EOqieykKAAaw+2WhLrZn0mCg0td8zuLutxEFAAAAAAAAcAgK7gCvUBX5ND4+SwK+uomzGC1XW1EA0MO9bxwft8FXeyBJ5fYzex8AAAAAAABwCG9EAPAyTcnpoyTgv9I12y/NVw0AoE9733X6Oy4ot8M36UVfX7ECAAAAAAAADsIFd4AXqoo8ldvPJQE/la56Xo2Wq7UoAOjwvpd2vXS1fSIN+Km07y3EAAAAAAAAAOyTgjvACzQXql0shF+7j3MzWq5KUQDQoV0vXadOxfZMGvCkbZyzuOttRAEAAAAAAADsi4I7wDNVRT6Jj89xxtKAnaTi04c4i9FytRUHAC3e89J+l4rtM2nAzjZxx3snBgAAAAAAAGBf3ogA4NnS5Xbldthd+v3yPs7n5usHANA68e+oeXx8Ccrt8FzT+PvnVgwAAAAAAADAvrjgDvAMTfFJeQNeZx3narRcbUQBQAv2uyzULzBOpAGvchb3u7UYAAAAAAAAgNdScAfYUVXkk/j4HFxvh325D3XRfSsKAE6026VieyYN2Isyzju7HQAAAAAAAPBab0QAsLNUgFJuh/2ZxflSFfm1KAA4lvj3zjhO+iLPl6DcDvs0ifNeDAAAAAAAAMBrueAOsIOqyM/j46Mk4GDKOBej5WotCgAOuNPNQ13A9dIiHM6ZnQ4AAAAAAAB4DQV3gF9IVz5DfeFTEQoObx3qonspCgD2uM9l8ZGutk+lAQe3ibvcOzEAAAAAAAAAL/VGBAC/5MonHE8W50tV5LfNyyUA8GLx75JJnPQVnk9BuR2OZRp/312LAQAAAAAAAHgpF9wBnlAVeSpCfZYEnMQ2zs1ouVqIAoBn7nDpJal5qF9UBE6zx73zVR4AAAAAAADgJVxwB3jarQjgZFI5MV1y/xwnEwcAu4h/Z8xC/YKicjucdo/zexAAAAAAAAB4ERfcAR7RFGo/SQJa4yHOlUugADyxu6VCbSYNaI2zuLutxQAAAAAAAAA8h4I7wCOqIv8SHxNJQOvcxFmMlqutKACIO9vXL37EmUkDWmcdd7YzMQAAAAAAAADP8UYEAH9VFfksKLdDW6XrvJ+b36cADHtnu46P9FKivxOgnTI7GwAAAAAAAPBcLrgD/ITr7dAZ6zhXo+VqIwqAQe1q56G+2m5fg/Yr4672VgwAAAAAAADArhTcAX7QXBi8kwR0yn2oi+5bUQD0ek+bNHtaJg3olLSnLcQAAAAAAAAA7ELBHeAHrrdDZ6Vy+4fRcnUtCoDe7Wfj+HgfZy4N6Oye9tbLiAAAAAAAAMAu3ogA4A/N9faJJKCTvpYf00sqcTJxAPRqP0svICq3Q7f3NL+HAQAAAAAAgJ244A7wHdfboVfWcS5Gy1UpCoBO7mVZfNzGmUoDesEVdwAAAAAAAGAnLrgDNFxvh97J4qRr7rdxxuIA6MxONonzMf7wU1Buhz5J+9hMDAAAAAAAAMCvKLgD/OG9CKCX5qEuus9EAdBe6WWkONfxh5/jnEsEeulSBAAAAAAAAMCvjEQA8LVQlYX6SijQb5s4V6Plai0KgFbtYqnQfht8TQeG4CLuYvdiAAAAAAAAAB6j4A4QvpaqUrk9kwQMxn2cm9FyVYoC4KQ72DTUxXZ7GAxHGXewt2IAAAAAAAAAHqPgDgxeVeST+PgiCRicbZwPcRaj5WorDoCj7l/j+HgfZy4NGKQzX9QBAAAAAAAAHvNGBADhUgQwSN/KlZ+rIj8XB8BxxD9zU6k9vVyo3A7+PxgAAAAAAADAX7jgDgxeVeT/CXXRFRi2dZyr0XK1EQXAQXauLD7u4kykAURv495VigEAAAAAAAD4kQvuwKBVRT4Lyu1ALQv1NffbOP5cANjfvjWJ8zH+8FNQbgf+4Io7AAAAAAAA8FMK7sDQ/UMEwA/mcb5URT4XBcDLpZeF4lynP1PjnEsE+MFMBAAAAAAAAMDPjEQADFW6JhrqwhXAYzZxrkbL1VoUAM/as2bx8T642A487be4Zz2IAQAAAAAAAPje/4gAGLCZCIBfmMb5VBV5Kl6lonspEoDHxT8v05+bt3EyaQA7SF/UUnAHAAAAAAAA/sQFd2CwqiJP19snkgCe4SbOYrRcbUUB8Ke9ahzqi+1zaQDP9L//z94d3DZuBWEAJg0V4FQQpoJ1KjBz5SXuwNojT5EqsLcC7U1HuYP1SVe7A20HcgdRB8y8FbNIckliyDLJ933AgDz/gAZPwLyhsxUAAAAAAADwVxciAHLUbxetJAH8T2l4cxc9ZC4KgO/nqjTUni4OGm4HXsO5CgAAAAAAAPgbA+5Arm5FALxSFbXp2uapvywDkKXogXXULl5XUZcSAfw3AwAAAAAAAE6hFAGQo65t0pbRShLACTxELcv19iAKIJNzVDpDpaH2G2kAJ/JTnKVexAAAAAAAAAAkNrgD2ek3LleSAE5kHrWP3rIQBTDxM9Rl1H28pq3thtuBU9JTAAAAAAAAgO8MuAM5qkUAnNhl1Cp9HSJKjwEmJ3pbGj5Ng+13fc8DOKVbEQAAAAAAAAB/KkUA5KZrmzScdSUJ4A09Ri3L9fZFFMDIz01VPDaFC4LA2/shzk4HMQAAAAAAAAAG3IGsdG2TNo7+LgngTD5FfTasBYz0zJS2tS+kAZzJxzgzPYgBAAAAAAAAuBABkJkbEQBnlIZDd13bzEUBjEXfs/aF4XbgvH4VAQAAAAAAAJDMRABk5loEwJlVUZuubW7juSzX268iAYYo+lQdj1XUlTSAd1CLAAAAAAAAAEhKEQA56dombSOtJAG8o4fiOOh+EAUwkPPRZXEcbJ9LA3hnP7sMCAAAAAAAAFyIAMhF1zZVYbgdeH/zqH30pIUogAGcj+5TTyoMtwPDcCMCAAAAAAAAYCYCICO1CICB+LYtuWub3+L5sVxvn0UCnFP0n3Qu2hQu/wHDci0CAAAAAAAAwIA7kBPDEsDQVFFPXds8xnNZrrcvIgHeUv9Fm1VhSzIwTLUIAAAAAAAAgFIEQC66ttkXtpQCw/Yp6nO53h5EAZz4HJS+HLGIupMGMHC/+LoNAAAAAAAA5O1CBEAO+qGuShLAwKXB0130rLkogBOeg9K29l1huB0YhysRAAAAAAAAQN4MuAO5MCQBjEUVtena5ilK7wJeLfWQ1Evi9Uvhoh8wHtciAAAAAAAAgLzNRABkohYBMMK+lba5P8RzWa63B5EA/0X/5Zq0rX0hDWCEXPADAAAAAACAzNngDuTigwiAkZpH7bu2MagK/KvoFd96RmG4HRivqr+oAwAAAAAAAGTKgDuQC1sAgTFLQ16rrm3SoHstDuCfUm+IeorXTd8zAPx/AwAAAAAAAEZpJgIgE5UIgIn0sqeubR7juSzX2xeRQN76Lcer4vi1B4CpqKOexQAAAAAAAAB5ssEdmDzbjoEJuonaRX+774dbgTzPOIt47AvD7cD0/CgCAAAAAAAAyJcBdyAHlQiACUqD7XfFcdD9RhyQj3R5L2pXHDe3u+QC+A8HAAAAAAAATMpMBEAGKhEAE+9xX7q2eY7nslxvv4oEpil+5+n3nobaXWoBpq4WAQAAAAAAAOTLBncgBx9EAGSgLo7b3FdRNjrDxMTv+j79xgvD7UA+fc95BgAAAAAAADJlwB3IgcEIICeLqH3XNgtRwPjFb7mO2sfrnTMNkJkrEQAAAAAAAECe/hCAvbvXitzK+wUszfIFcK7g1CQEJMObkbmcKjFzBS5CRQNXAHUFQKSQ8hXAJEopZ5PBJBNMQr1XYM4V6OzdJWzc7qb5qA9J+3nW2ku0x+Pu/lFCu+Cnv74TAZCAsQiAxMQSbJzk/lM4nuRVPRcJ9Es4f0fxPM5MbAfS3s8AAAAAAAAACTLBHQBguOLk09umLK7asizQceFc3QnrLHwYp7YrtwOp72MAAAAAAACABCm4AwAM3ySsu7Y0C3RUOEdjof0urFNpAAAAAAAAAACp+k4EAABJ2AnrtCmLn8LxJK/qG5FAN7RPWLgKaywNAAAAAAAAACB1Cu4AAGkZhXXdlMU8HI/yql6IBLYjnIfxxpPjzMR2AAAAAAAAAIDf/EUEQAIWIgD4k3FYD01ZnLclW2CDwnl3GA53mXI7AAAAAAAAAMAfKLgDKViIAOCr4vToWHSfiALWL5xro7Buw4fX2fKJCgAAAAAAAAAAPPOdCIAELEQA8KI4wf2qKYufwnGaV/VcJLBa7ZMS4g0lJrYDvI79CAAAAAAAACTKBHcgBf8rAoBXGYd125TFVVvGBVagfULCXabcDgAAAAAAAADwTQruQAoWIgB4k0lYD01ZHIsC3i+cQ/th3YYPr8IaSQTA+zgAAAAAAADg23IRAEPXlMU4HG4lAfAui7CO8qqeiwJevfeIT0CI09rdJALwTmHv4XtWAAAAAAAAkCg/LASS0JRFIwWAD7kJ6ySv6oUo4MU9x2G2nNi+Iw2Ad7sPe47/EQMAAAAAAACk6TsRAIlYhDUSA8C7xdLuuCmLy3C8yKv6USTwu3BuxH1GLLaPpQGwkvdvAAAAAAAAQKL+IgIgEfciAPiwOJH6NKy7dko1JC+cCzthnYUPHzLldoBV+UUEAAAAAAAAkC4FdyAV/xYBwMqMwrpuyuK2nVoNSWpv9LjLljd+ALA6blAGAAAAAACAhCm4A6mYiwBg5cZhPbTTqyEZ8caOeINH+PA6W97wAcAK5VXt/RsAAAAAAAAkLBcBkIqmLBopAKxNnLR6lFe1iasMeS+xEw7HmYntAOt0E/YTfxcDAAAAAAAApMsEdyAlcxEArM1+WHdNWZy3JWAYlPC6Poyv8Uy5HWDdfhEBAAAAAAAApE3BHUiJogTA+sXp1ndtGRh6L7yWR2Fdhw/jGkkEYO1uRAAAAAAAAABpU3AHUqIoAbAZo7Cum7K4jeVgcdBX4fV7li2ntrthA2Az7vOqXogBAAAAAAAA0paLAEhJUxa/hsOOJAA2ahrWRV7Vj6KgJ/uFcTich7UvDYCNOgn7hQsxAAAAAAAAQNpMcAdSY4o7wOadhvUQp2GH5SYjOiu+PsO6Ch/eZsrtAN6vAQAAAAAAAFuh4A6k5p8iANiKWGyPRfe7piwOxUHXhNflJBwewppIA2Ar5nlVL8QAAAAAAAAA5CIAUtOUxa/ZsmgJwPbECa0nimx0YF8wCoc4tX0sDYCtOgr7gpkYAAAAAAAAABPcgRR57D3A9sUp7nGa+7Eo2Ibw2tsJ6yxbTm0fSwRgqx69TwMAAAAAAACeKLgDKfpZBACdEJ+mcd6URSy674uDTQmvt0k43IV1Kg2ATrjJq/pRDAAAAAAAAECUiwBIUVMWcVrrSBIAnXIR1lTBjTVe/yfZstRuDwDQLX8N1/+FGAAAAAAAAIBIwR1IUlMWx+FwLgmAzonl9lhyvxAFK7zuTzLFdoCumofr/g9iAAAYht29g8Nw+DGsePz7f//zr7lU4M3n0U57Dn06l8J55Gf6AAAAJOc7EQCJmmXLotuOKAA6JX5dPm/K4qdwPMmrei4S3kuxHaAXLkUAANBvn5Xafc8d3ncejdpzKH5fdF8iAAAApM7d3kCymrK4CoeJJAA6bZYti+6PouAN1/h4fVdsB+i+RbjG/1UMAAD98my69PfZy6X2H0xwhxfPpVH2ilK7Ce4AAACkyAR3IGXTTMEdoOvi1+nDpiwu86o+EwcvUWwH6OV7MgAAeuBZqf1pUjvwvnNplJnUDgAAAN+k4A4kK6/qRVMWs0zJHaDr4g9QT8PX7PhDn6Pw9XsuEr7ib5lyO0BfxKez3IgBAKC7lNphZefSKFNqBwAAgDdRcAdSZ4o7QH+MwrptyiKW4U7ijUoi4bnwmjgJr49/hw/Ps68/Hh2AbohPZ3kUAwBAtyi1w8rOpVGm1A4AAADvlosASF1TFleZkjtA38RCXCzGnYmCL1zb4w8NrzPT3AG67P8ouAMAdENbxB1nqy+1//Df//xrLmESO5dWXmoP55Gf6QMAAJAcb4aB5DVlESfSPGQmvQL00SJbTnO/EQVfuL7fZiZkAXTRLFy7j8QAALA9G5oureBOCufSfnsejdd1Lim4AwAAkCJvhgGyTyW4s3A4lQRAb83DOsqreiEKPrvGe1ILQPf81TUbAGDzNlRqf07BnaGeS0+l9ng+jdb9+ym4AwAAkCJvhgFaTVnEKe4jSQD02jSsi7yqH0XBs2v8cTicSwKgE0xvBwDYoC2U2p9TcGdI59JGS+3PKbgDAACQou9EAPCbWIq8EgNAr8WncfzUlMU0r+qZOIjCa+EivCbiTQ+x5L4jEYCtv+8CAGCNtlxqhyGdS1srtQMAAEDq3O0N8Iwp7gCDMg/rJK/qe1HQXufjDyVvMyV3gK1dm8N1+QcxAACsXkeLuCa441xaARPcAQAASJEJ7gB/ZIo7wHCMw7pryuIifn3Pq/pRJGmLNzuE18MP7bXeBDuAzTsSAQDA6pguDc4lAAAAGCp3ewN8xhR3gEGK5fY4zX0mCsK1Pk5wj5PcldwBNmcWrsMK7gAAH9SzIq4J7nT5XBqHw499OJdMcAcAACBFJrgD/Jkp7gDDEwvNV01ZxB8Ax2nuc5GkK07zbye5K7kDbPZ9FgAA72C6NKzsXIrn0FOpfUciAAAA0F3u9gb4AlPcAQZvli0nuj+KIunr/acbH7LlDzUBWON11/R2AIC3eVbEHWf9/V61Ce506VzqbandBHcAAABSZII7wJeZ4g4wbJOwDpuyiNPcL8SRpvYGh7+H18FV+5oAYPXi19oTMQAAfJvp0uBcAgAAAJbc7Q3wFaa4AyTjPltOc5+LIunrvpI7wHrEm8nOxAAA8GUDL+Ka4I5zaQVMcAcAACBFJrgDfF2cMngtBoDB2w/rtimLm2xZdF+IJD3h834UXgPxw4k0AFYmTm/3pBQAgM+YLg3OJQAAAOBl7vYGeEFTFrfhMJYEQDJiEe/SpNmkr/0muQOsTrxxTMEdAEje7t5BLN7GAu73WVpFXBPcWcf5lFyp3QR3AAAAUuTNMMALmrIYh8OtJACSswjrKK/quSiSvP4ruQOs4FoarqN/FQMAkKpnpfanIm6KFNxxLq2AgjsAAAAp8mYY4BtMcQdI2k22nD67EEVy138ld4CP+Xu4ft6IAQBIiSLunyi441xaAQV3AAAAUuTNMMA3NGUxCocHSQAkbRrWRV7Vj6JIag+g5A7wPvNwzfxBDABAChRxX6TgjnNpBRTcAQAASJE3wwCvoOAGQLDIltPcTaNNaw9wFw77kgB4kx/C9XIuBgBgqHb3DkbZ8qmfirjf2BcquPONc0mp/RUU3AEAAEjRdyIAeJU4uTd+c3VHFADJGoV13ZTFPByP8qpeiCQJcQLxbabkDvBaM+V2AGCI2lJ7/B7xT94jwofOJaV2AAAA4Jvc7Q3wSk1ZnIXDqSQAaF2ENc2r+lEUg98DxB+8KrkDvM5f3QQGAAyFUvuHmeDO07mk1P4BJrgDAACQIm+GAV6pLbc9ZKa4A/C7WG4/yat6JorB7wNG4XBnHwDwonjj15kYAIA+U2pfKQV351I8l77PlNo/RMEdAACAFHkzDPAGTVkch8O5JAD4zDxbFt3vRTHofUAsNsRJ7kruAH8Wb/r6qyebAAB9pNS+NgruziVWQMEdAACAFHkzDPBGTVnEKe4jSQDwBRfZcnqtct9w9wHjbFlyB+CP4o1eF2IAAPpid+8glm9jCTeWcUcSWQsF9zTOpVGm1L5WCu4AAACkyJthgDdqyiJ+o/ZaEgB8RSy3T5X8Br0XmITDlSQAfrMI172/igEA6Dql9o1TcB/uuTTKlNo3RsEdAACAFHkzDPAOTVnEya1jSQDwgvtsOc12LopB7gXOw+FYEgCf/D1c727EAAB0kVL7Vim4D+tcGmVK7Vuh4A4AAECKvBkGeIemLMbhcCsJAF5hli2L7o+iGNx+ID7R5VASQOLm4Rr3gxgAgC5Rau8MBff+n0ujTKl96xTcAQAASNF3IgB4uziNtymLOKFQqQ2Ab5nE60W4blyG68eZOAblKFsWJfyAF0jZiQgAgC7Y3TuI36v9MVs+eXMkEXj3ubTfnkdK7QAAAMDWuNsb4J2ashiFw4MkAHiDRVhH8UYpUQxmPxB/0Buf6rIjDSBBs3BNOxIDALAtz0rth96XdZIJ7v05lzz1oMNMcAcAACBF3gwDfEBTFufhcCwJAN4oPgXkJK/qhSgGsR+IP/y9lgSQmMew/se1DADYNKX2XlFw7/a5pNTeEwruAAAApMibYYAPaMoi/gAlTnH3gxQA3ioWAy/zqj4TxSD2BPHzeCoJICFT1zAAYFOU2ntLwb1755JSew8puAMAAJAib4YBPkihDYAPWmTLae43ouj9nuA2HMaSABK5dsXp7Y+iAADWYXfvIJbYYwH3+0ypvc8U3LtxPim195yCOwAAACnyZhhgBZqyiFPcR5IA4APmYR3lVb0QRW/3A7FwcWdPACQgXq9mYgAAVulZqf1pUjv9p+C+vfNJqX1AFNwBAABIkTfDACvQlEX8JvG1JABYgWlYF6bi9nZPEH+AfCcJYMDuwzXqf8QAAKyCUvvgKbhv9nxSah8oBXcAAABS5M0wwIo0ZXEbDmNJALACi7CmpuP2dk9wFg6nkgAG6odwfZqLAQB4L6X2tPaOCu5rP5+ezqVxptQ+WAruAAAApMibYYAVacpiHA63kgBgheZhneRVfS+K3u0L3PgGDNFNuCb9XQwAwHvs7h3E90j/yJTaU6Lgvr7z6ao9l3akMXwK7gAAAKToLyIAWI12iuFMEgCs0Disu6YszsPyA8t+iQXQRzEAA3MiAgDgg+9xldthNSaZcjsAAAAwYAruAKs1FQEAa3Ac1kNTFhNR9ENe1bHcfiQJYEjvdcLXtoUYAAAAAAAAgHVTcAdYobbwoeQOwDrEqVxXTVnchjUWRy/2BTfhcCEJYAAefT0DAAAAAAAANkXBHWD1YvHjUQwArMk4rFhyj2V3j6Luvnjj20IMQN+/lrVPpgAAAAAAAABYOwV3gBVrix8nkgBgzSZhPTRlcSyKzu8LjiQB9NgifC0zvR0AAAAAAADYGAV3gDXIq3qWmdYKwPrFCe7nTVnchTUWR2f3BfNs+YQXgD5ykw4AAAAAAACwUQruAOujCALApuyHdduUxXVYI3F00jRz8xvQP/P2Jh0AAAAAAACAjVFwB1iTtggylwQAG3QYVpzmfiaKzu0LHjM3vwH94+sWAAAAAAAAsHEK7gDrpRACwKbthHXalMVDWGNxdEd789tMEkBPXISvWwsxAAAAAAAAAJum4A6wRm0hZCYJALZgFNZtUxZxjcTRGSdhPYoB6Lj4dWoqBgAAAAAgVbt7BzthTcK6DmtfIgCwWQruAOunyAbANo3DitPcz8LaEcd25VX92O4NALps2n69AgAAAABIxu7ewSis41hqD7/8NayrsA6z5ROUAYANUnAHWLO2GHIpCQC27DSsu6YsDkWx9b3BLBzmkgA6ahG+Tl2IAQAAAABIwbNS+1345UNY59my1A4AbJGCO8AG5FV9Fg4LSQCwZaOwrpuyuA1rJI6tMsUd6KojEQAAAAAAQ/aVUvu+ZACgOxTcATZHkQ2ArhiH9dCUxXlYHqm4BXlV34eDCclA18zD16e5GAAAAACAodndO9gP6zysWGhXageAjlNwB9iQvKpvwmEuCQA65DhbFt0notiKaViPYgA6xE25AAAAAMBgfFZqj9Pa48/GRpIBgO5TcAfYLIURALomTnC/asriNixTKjYor+pHewOgQ2bt0yUAAAAAAHprd+/gUKkdAPpPwR1gg9rCyEwSAHTQOKy7pixi2X1HHBvbG8R9gUIpsG1uuAEAAAAAeqsttV+F9Wv45XWm1A4AvafgDrB502xZIAGALpqE9dCUxbEoNkapFNi2y/apEgAAAAAAvfCFUvskWz65GAAYAAV3gA3Lq3oRDpeSAKDD4jf/zpuyiBPdx+JY+95gHg5zSQBbsghfh87EAAAAAAB02e7ewU5Yk7Cuw2oypXYAGLTvRACwFRdh/ZR5JBYA3bYf1m1TFrNwPDHdd63iFPc7MQBb+voDAAAAANA5sdQeDodh/dgeAYBEmOAOsAVtQXAqCQB6YhLWQ1MWZ6JY297gPhxmkgA2bB6+/tyIAQAAAADoit29g1FYx3FSe/jlr2FdZcrtAJAcBXeALcmrehYOc0kA0BNxQsZpUxax6D4Wx1q4+Q3YNNPbAQAAAICte1Zqj0+7fQjrPFNqB4CkKbgDbJciGwB9MwrrtimL67BG4lidvKoXmSnuwObM2qdHAAAAAABs3FdK7fuSAQAiBXeALcqrep4psgHQT3Fqxl1TFmdh7YhjZdz8BmzCY2Z6OwAAAACwYbt7B/thnYcVC+1K7QDAVym4A2xfLLI9igGAHorF9tNsWXT3mMgVMMUd2JDL8PXGexAAAAAAYO0+K7XHae3H2fKJwQAAX6XgDrBlbZHtUhIA9NgorOumLG7DGonjw0xxB9ZpEd6DnIkBAAAAAFiX3b2DQ6V2AOAjFNwBuuEirIUYAOi5cVgPTVmchbUjjvcxxR1YsyMRAAAAAACr1pbar8L6NfzyOlNqBwA+QMEdoAPyqn7MTGsFYDhOw7prymIiinezLwDWYR7ee8zFAAAAAACswhdK7ZOwDEECAD5MwR2gI/KqnoXDvSQAGIhRWFdNWdyGtS+ON+8LFpkp7sDqmd4OAAAAALzb7t7BTliTsK7DajKldgBgTb4TAUCnnIR1KwYABmScLae5X4TjtH1qCa9zmS2/KQywChftzTMAAAAAAK8WS+3hcBjWj+0RAGDtTHAH6JC8qufhcCMJAAboOKyHpiwmonj1viA+2WUuCWAF4s1FUzEAAAAAAK+xu3cwCus4TmoPv/w1rKtMuR0A2CAT3AG658QbQwAGKk74uGrK4h/xetfe2MXL4hT3sRiAD/IEDQAAAADgRbHUni27Cj+FtS8RAGCbTHAH6Ji8qheZ6YoADFv8puhtUxax7L4jjhf3BfHJLgtJAB+wCF9LLsQAAAAAAHzu2aT2u/DLh7DOM+V2AKADFNwBuikWUExYBGDoJmE9NGVxLIoXufEN+IgjEQAAAAAAT3b3DvbDOg8rFtqV2gGATlJwB+igvKpjuf1EEgAkIE5wP2/K4i6ssTi+KE5xd+Mb8B7z8N5iLgYAAAAASNtnpfY4rT0OHxpJBgDoKgV3gI7Kq3oWDveSACARcTLIbVMW12GNxPGHPUEst99IAngH09sBAAAAIFG7eweHSu0AQF8puAN0mynuAKTmMKw4zf1MFH8wFQHwRhd5VS/EAAAAAADpaEvtV2H9Gn55nSm1AwA9peAO0GF5Vc8zE1sBSM9OWKdNWTyENRbHpz3BIhzmkgBeKT75wY0xAAAAAJCAL5TaJ9nyZy0AAL31nQgAOi9OcT8UAwAJGoV125TFPByPTCLOfg5r7GUBvMI0fM18FAMAAAAADM/u3kEsr8cOwY+ZLgEAMFAmuAN0XFvmM30RgJSNw4rT3M/CSnniSHyqi8Iq8C334T3EhRgAAAAAYDhiqT2sSVhxQnuc1H6VKbcDAAOm4A7QD7GgotAGQOpOw7pryiLJb9i205hvvAyAbzgRAQAAAAD03+7ewSisY6V2ACBFCu4APdAW2hRVACDLRmFdN2VxG9Yowb//pZcA8IKb8N5hLgYAAAAA6Kdnpfa78MuHsM4zpXYAIEEK7gA9kVf1LBzuJQEAn4zDemjK4jysnYT2A3EvsPDpB77CTbEAAAAA0DNfKbXvSwYASJmCO0C/KKwAwB8dZ8ui+yShv/PPPu3AF0zzql6IAQAAAAC6b3fvYD+s87BioV2pHQDgMwruAD2SV/U8HGaSAIA/iBPcr5qyuA0rhW/+2gsAn3sM60IMAAAAANBdn5Xa47T2OMRnJBkAgD/7TgQAvTMN6zBblvkAgN+Nw7prymIWjid5VT8O8S8ZJzSHv+N9ZpIL8LvBfs0DAAAAgD7b3TuIP9v/Plv+jH8kEQCA1zHBHaBnYqktHC4lAQBfNQnroSmL4wH/HX/2aQZa9+E9wkwMAAAAANANsdQe1lVYv4ZfXmcmtQMAvJkJ7gD9dBHWT94EA8BXxSednDdlEa+XcbLxfGB/v5v49/NpBuLXOBEAAAAAwHa1k9p/zDyNHQBgJUxwB+ihvKofw2EqCQD4pv2wbpuyuAprMN9Qbp/ocu/TC8mbDfAGHgAAAADovN29g52wJmFdh9Vky0ntk0y5HQBgJRTcAXoqr+pZOMwlAQCvMgnroSmLswH9nX72aYWkuekVAAAAALYnFtqvsuXEdgAAVkzBHaDfFFoA4PXi1JTTpixi0X08gL/PjU8pJO2yfZoDAAAAAAAAwKAouAP0WF7V83CYSQIA3mQU1m1TFtdhjXq8D1iEw8KnE5IUz/0LMQAAAAAAAABDpOAO0H9xivujGADgzeJjQ++asjgLa6enfwdT3CHR9wB5VXsPAAAAAAAAAAySgjtAz7XTWy8lAQDvEovtp9my6H7Ywz//P30KITnz8B5gJgYAAAAAAABgqBTcAYbhIqyFGADg3UZhXTdlcRvWqC9/6Lyq55knuUBqTkQAAAAAAAAADJmCO8AA5FUdi21TSQDAh43DemjK4iysnZ78mec+bZCMWdj734sBAAAAAAAAGDIFd4CByKt6lim4AcCqnGbLovukB3/WX3y6IAnxplbT2wEAAAAAAIDBU3AHGBaFFwBYnTjB/aopi9uw9jv857zxqYIkXLZPbgIAAAAAAAAYNAV3gAHJq/o+HGaSAICVGod115TFeVg7Hbz+L8Jh4dMEg7YI5/qZGAAAAAAAAIAUKLgDDE+c4m6yIwCs3nFYD01ZTDr4Z5v79MCgHYkAAAAAAAAASIWCO8DA5FUdy+2XkgCAtYgT3K+asogT3ccd+nP94lMDgzUPe/y5GAAAAAAAAIBUKLgDDFBe1WfhsJAEAKzNfli3TVnEsvtOB/48c58SGCzT2wEAAAAAAICkKLgDDNeJCABg7SZhPTRlcbzNP0Re1YtwePTpgMG5aM9vAAAAAAAAgGQouAMMVF7VN5lprgCwCXGC+3lTFrHoPt7in8N1H4Yl3rQyFQMAAAAAAACQGgV3gGEzxR0ANmcU1m1TFtdhjbbw+//iUwCDMs2r2pMZAAAAAAAAgOQouAMMWF7V9+FwIQkA2KjDsO6asjjb8O97L3oYjPuwl7ePBwAAAAAAAJKk4A4wfNOwTH4EgM3aCeu0KYuHsMab+A3zqp6LHQbDk5gAAAAAAACAZCm4AwxcXtWx3D6VBABsxSis26Ys4hpt4PczxR3678YNKwAAAAAAAEDKFNwBEpBX9UU4LCQBAFszDitOcz8La2eNv4+CO/Sf6e0AAAAAAABA0hTcAdJxJAIA2LrTsO6asjhc03//3yKGXpvmVb0QAwAAAAAAAJAyBXeARORVPQ+HuSQAYOtGYV03ZXEb1v6K/9smuEN/LcK6EAMAAAAAAACQOgV3gLSY4g4A3THOltPcz8PaWdF/U8Ed+itOb38UAwAAAAAAAJA6BXeAhORVvchMhQSArjkO66Epi8kKrvWxHLsQKfTOPJy/MzEAAAAAAAAAKLgDpGgalsmQANAtcYL7VVMWt2Htf/C/tRAn9M6JCAAAAAAAAACWFNwBEtNOdlWgAYBuGod115RFLLvvvPO/8YsYoVdmYY9+LwYAAAAAAACAJQV3gATlVT0LByUaAOiuSVgPTVkcv+P/60kt0B9uPgUAAAAAAAD4jII7QLoUaQCg2+IE9/OmLOJE9/Eb/n9uYoP+uGyfsAQAAAAAAABAS8EdIFF5Vc/D4UYSANB5+2HdNmVxFdboFf++gjv0wyLsyc/EAAAAAAAAAPBHCu4AaYtT3E2MBIB+mIQVp7mfvfQvmQYNvXEkAgAAAAAAAIA/U3AHSFhe1YtwuJQEAPTGTlinTVk8hDV+4d8zxR26bd4+UQkAAAAAAACAzyi4A3AR1kIMANAro7Bum7K4Dmv0hf/dFHfoNtPbAQAAAAAAAL5CwR0gcXlVxwLcVBIA0EuHYd01ZXEW1s6zf26CO3TXtH2SEgAAAAAAAABfoOAOQCy5z8JhLgkA6KVYbD/NlkX3w/af/T+xQCfFm0svxAAAAAAAAADwdQruADwxxR0A+m0U1nVTFreigM46aZ+gBAAAAAAAAMBXKLgD8Ele1fNwmEkCAHpvnC0nugPdct8+OQkAAAAAAACAFyi4A/DcSVgmSgIAwHr22gAAAAAAAAB8g4I7AL/JqzqW2y8lAQAAKzVrn5gEAAAAAAAAwDcouAPwB3lVn4XDQhIAALAS8SbSqRgAAAAAAAAAXkfBHYAvOREBAACsxGVe1QsxAAAAAAAAALyOgjsAf5JX9U04zCUBAAAfsmifkAQAAAAAAADAKym4A/A1RyIAAIAP8WQkAAAAAAAAgDdScAfgi/KqXoTDhSQAAOBd5u2TkQAAAAAAAAB4AwV3AF4yDetRDAAA8GaeiAQAAAAAAADwDgruAHxVXtWx3H4iCQAAeJOL9olIAAAAAAAAALyRgjsAL8qrehYO95IAAIBXiTeJTsUAAAAAAAAA8D4K7gC8hinuAADwyr1z+yQkAAAAAAAAAN5BwR2Ab8qreh4ON5IAAIAX3bdPQAIAAAAAAADgnRTcAXitOMXdJEoAAHh5zwwAAAAAAADAByi4A/AqeVUvwuFSEgAA8EWz9slHAAAAAAAAAHyAgjsAb3ER1kIMAADwB/FJR1MxAAAAAAAAAHycgjsAr5ZXteIOAAD82WX7xCMAAAAAAAAAPkjBHYA3yat6Fg5zSQAAwCeLsEc+EwMAAAAAAADAaii4A/AeJyIAAAB7YwAAAAAAAIBVU3AH4M3yqr4Ph5kkAABI3DzsjW/EAAAAAAAAALA6Cu4AvFecVPkoBgAAEnYkAgAAAAAAAIDVUnAH4F3yqo7l9qkkAABI1EXYEy/EAAAAAAAAALBaCu4AvFte1RfhsJAEAACJcbMnAAAAAAAAwJoouAPwUUciAAAgMSftE40AAAAAAAAAWDEFdwA+JK/qeTjMJQEAQCLmYQ88EwMAAAAAAADAeii4A7AKprgDAJCKqQgAAAAAAAAA1kfBHYAPy6t6kSn6AAAwfLP2CUYAAAAAAAAArImCOwCrchHWoxgAABiouNc9EQMAAAAAAADAeim4A7ASeVUr/AAAMGSX7Z4XAAAAAAAAgDVScAdgZfKqnoXDXBIAAAzMIux1z8QAAAAAAAAAsH4K7gCs2lQEAAAMzJEIAAAAAAAAADZDwR2Alcqreh4OM0kAADAQ83aPCwAAAAAAAMAGKLgDsA4nYT2KAQCAATC9HQAAAAAAAGCDFNwBWLm8qmO5/VISAAD03DTsbRdiAAAAAAAAANgcBXcA1iKv6rNwWEgCAICeinvZCzEAAAAAAAAAbJaCOwDrdCQCAAB6ato+mQgAAAAAAACADVJwB2Bt8qqeh8NcEgAA9Mw87GVnYgAAAAAAAADYPAV3ANbNFHcAAPrmRAQAAAAAAAAA26HgDsBa5VW9CIepJAAA6ImLsIe9FwMAAAAAAADAdii4A7AJF2E9igEAgI6Le1Y3ZwIAAAAAAABskYI7AGuXV3UsCp1IAgCAjpu2e1cAAAAAAAAAtkTBHYCNyKt6Fg5zSQAA0FH3Yc96IQYAAAAAAACA7VJwB2CTpiIAAKCjPHEIAAAAAAAAoAMU3AHYmLyq5+EwkwQAAB0za/eqAAAAAAAAAGyZgjsAmxYnYz6KAQCAjoh7U08aAgAAAAAAAOgIBXcANiqv6lggupQEAAAdcRn2qAsxAAAAAAAAAHSDgjsAG5dX9Vk4LCQBAMCWLdq9KQAAAAAAAAAdoeAOwLYciQAAAHtSAAAAAAAAAJ5TcAdgK/KqnofDXBIAAGzJvN2TAgAAAAAAANAhCu4AbJOJmQAA2IsCAAAAAAAA8BsFdwC2Jq/qRThMJQEAwIZN270oAAAAAAAAAB2j4A7Atl2E9SgGAAA2ZNHuQQEAAAAAAADooO9EAMA25VX92JTFSfjwShoAAGzASdyDigEAPm5372AUDqMP/Cce//uff91LEgAY0P5oPxx22rXf/uP/+9me6aN7qG+J+6vn3/tYhPW/T/uv9n//9O+FvZjvkQAAAJ2k4A7A1uVVPWvK4qfw4VgaAACs0TzsPW/EAAB/9pUy1t/aX2ef/fNV/r5f+seLdj355fn1vD0qZAEA29o3jbPfS+p/e7ZP2unIH3H/DX+X53uvuGIR/lNBPuy15j7bAADAtii4A9AV00zBHQCA9ToRAQAp60EZ68nTn/HJ+NnHp8/+PvGwyBSyAID17J322z1JPH6frX/yelf2Xs/3Wk8T3+P6d9xz2WcBAACboOAOQCfkVT1vymIWPpxIAwCANbgIe857MQCQgraM9VTIGnIZK8teLmQt2vVLe4xT3+0HAIAv7Z/iDX/j7PcyexdvAtyGp1zGn+2znpfe5/ZYAADAqim4A9AlcaLmYeYbhgAArFacNjYVAwBD9KzM/rf2OJbKb0btGj/LKx7m2e+FLKV3AEhzD/VU3P4++73YzuvtP8/s2R7rl3afFUvvj2ICAADeS8EdgM7Iq/qxKYtYPDqXBgAAK3QS95piAGAI2kL7OPu9jGVQwNuNsz+W3uM+YZ79PoF0LiIAGOQ+Kl7/f8wU2je1x7pv91i/hP3VjXgAAIC3UHAHoFPyqr5oyuIf2XAfmw0AwGbNwx5zJgYA+kqhfSNipoftOn02gfSf2bLwbsI7APRzH/V0jf/RPmornqa8H9tfAQAAb6XgDkAXHYV1KwYAAFbgRAQA9ElbxBpnvxexRlLZinG7nia8x6mjv8Tjf//zL0+GAYDu7qXi3ul5qZ1u7q8WT/sr090BAIAvUXAHoHPyqp43ZRG/mXUoDQAAPmAW9pYmggHQec+KWN9nvh/SRfGmg0m7rsLna54tp4/GsvtCPACw9b3U06T2+ITgfYn0Qtz/HmfL6e5PNxP+U9kdAAB4ouAOQFfFSZt+oAsAwHs9Zqa3A9Bhz0rtP2WKWH0zbtd5+DzGm+l+zpTdAWAb+6mnvZSfJ/XbbzcTKrsDAABPFNwB6KS8qhdNWUzDh6fSAADgHaZhT/koBgC6pJ0uOsmU2odkv11PZffLbFl2tw8BgPXsp0bZclJ73FPtSGRwvlR2/znsreaiAbbsp/B1aSyGTpu7XgAMi4I7AF12kS1/4DsSBQAAb3CfV/WFGADoit29g0k4/JiZLjp0seh+FVf4nD+VsUweBYDV7afiz4zG0kjG87L7Ils+NWfmqTnAlkxE0AtzEQAMh4I7AJ0VJ242ZXESPryWBgAAb3AiAgC2bXfvIJadYwlrkpkumqJ4M8OhMhYAfGg/NWr3Uv+wn0pefC3Epz6fupEQAADSoOAOQKflVX3TlMU8M5EDAIDXmYU95FwMAGyL6aJ8ZpT9sYx16ZHpAPDN/VS8UTCW2ifS4AvcSAgAAAlQcAegD+IEzjsxAADwDY+Z6e0AbIHporzS8zLWNKyb//7nX49iAYDf9lTjbHlj2FgavMIo+/1Gwlm2nOo+FwsAAAzDX0QAQNflVX0fDheSAADgG6Zh76gkBsDGxBJWWFfhw4dsWa5Rbuc1RmF9et2E189ZWF43ANhT7R3chg/jGkuEd5jE1098HbVPVAIAAHrOBHcA+iJOtZpkflAMAMCX3edV7aZIADbCdFFWZKd9Hf2jnTp6+d///GshFgDsqeDd4msp3jARX1eemAMAAD1mgjsAvdBO4jyRBAAAX2GvCMDaxWmQYcVp7aaLskqx6H6cLSe6X4U1EgkAA99TmdjOusX9lCfmAABAjym4A9AbeVXPwuFeEgAAfGYW9opzMQCwLs+K7bEkM5IIazTJfi+6K2IBMLQ9lWI7m/b0xBxFdwAA6BkFdwD6xmROAACei0/6mYoBgHVQbGeLJpkiFgDD2VMptrNtiu4AANAzCu4A9Eo7mXMmCQAAWpdhj7gQAwCr1Jaw7jLFdrZLEQuAvu+pRvGpJJliOx3dX4kDAAC6S8EdgD6KU9wfxQAAkLxFXtVnYgBgVT6bLrovETriqYh1F58qIA4AerCn2mnLw/FJOK5ddHZ/FZ/WZH8FAADdpOAOQO/kVR3L7ZeSAABI3pEIAFgF00XpiVFYV/EmjHgzhjgA6Oi+apIti+2n0qBH+6sH+ysAAOgWBXcAeqmd1LmQBABAsm7CnnAuBgA+4tl00bvMdFH6YxxWLLnHMtaOOADoyL5qv30STrxp0PWJvhm1+6u4RuIAAIDtU3AHoM9M7AQASFN8os+JGAD4iN29g8NsWWyP00WVsOijSVhx2uixKADY4p4q3jB43u6rxhKh58bt/urcjYQAALBdCu4A9FY7sfNGEgAAybkMe8GFGAB4jziRsZ0uep0tJzVCn8Xi1blpowBsaV81zpbFdjdbMTTxNR2L7hNRAADAdii4A9B3JncCAKRlkVf1mRgAeI/dvYN4DTFdlCGKr+mH9jUOAOveUz1NbY83DY4kwkDFGwmv2hsJ98UBAACbpeAOQK+1kzunkgAASMaRCAB4q1hICSsW20+zZVEFhuo0vtaVsABY475qnJnaTlo+vebdSAgAAJul4A7AEFyEtRADAMDg3eRVPRcDAG/xbGq7wi+piK/1OGlU8RCAdeyrTG0nVW4kBACADVJwB6D38qp+DIcTSQAADJo9HwBv8tnUdkhNfFLBeTgHYtHdUwsA+Oi+amRfBZ/Ecrtp7gAAsAEK7gAMQl7VN+EwlwQAwGBNw55vIQYAXqOdXB2ni5quSOrGYT2Ec2IsCgDeua86zDwNBz532t5IOBIFAACsh4I7AENioicAwDDd51V9IQYAviVOqg7rOnx4ni0nWAPLc+HWpFEA3rG3inuqa/sq+KJxtpzmPhEFAACsnoI7AIORV/V9OCg+AQAMjxsZAfimdkL1Q1iH0oAvepo0qqQIwLf2VfGmwfg0nGNpwIvivuoqnC9X9lgAALBaCu4ADM00rEcxAAAMxiyv6rkYAHhJO5k6lrCUSuBl42w5aXRfFAB8ZV8VrxF37TUDeJ2JPRYAAKyWgjsAg5JXdSy3m/AJADAM9nYAvOjZdNFTacCrjcKKk9wnogDgs71VfBLObXutAN6+x7qzxwIAgNVQcAdgcPKqnoXDXBIAAL03bW9gBIA/MV0UPiQ+7eAqnEfnogCg3VtNwuE680Qc+Ki4x4rLuQQAAB+g4A7AUJn0CQDQb/d5VV+IAYAvaQtYsdw+kgZ8yLECFgDtDU9XkoCVie9X4hNzvF8BAIB3UnAHYJDyqr4PB4UoAID+OhIBAF8Sy7iZAhas0iRbFrCU3AHS3VsdSwJW7tMTp8I5NhYFAAC8nYI7AEM2DetRDAAAvXPR3rAIAL+J5duw4tT2iTRg5WIBK5bc90UBkNTe6treCtZqp91jOc8AAOCNFNwBGKy8qmO5fSoJAIBesYcD4E/a0m0styvfwvoouQOks7f6VLoN61AasBFX7dMSAACAV1JwB2DQ8qq+CAfTPwEA+uOkvVERAD7Z3TsYZ8sC1kgasHZPU0aV3AGGu7d6Krf7Wg+bNQnn3217DgIAAN+g4A5ACk5EAADQC/O8qmdiAODJ7t7BJFsWsJRAYHOU3AGGu7dSboftGrf7rJEoAADgZQruAAxeXtXzcJhJAgCg845EAMCT3b2Ds3C4kgRsxVPJ/VAUAIPZWym3QzfEc/DOzYQAAPAyBXcAUhGnuD+KAQCgs6Z5VS/EAEC0u3cQi+2nkoCtikXI6/ZJCgD0e2+l3A7d22fFmwnHogAAgC9TcAcgCXlVx3L7VBIAAJ20CPu1MzEAEMtXbbl9Ig3ojHMTRgF6T7kduuep5O69DwAAfIGCOwDJyKv6IhzuJQEA0DlHIgDg2WTRiTSgU57KV4qRAP3cY8WbB30Nh+66UnIHAIA/U3AHIDUnIgAA6JSbvKrnYgBI27Nyu/IVdJOSO0A/91iejAP9oOQOAACfUXAHIClteWomCQCAznADIkDilNuhN5TcAfq1xzrLlNuhT2LJ/VwMAACwpOAOQIpiiepRDAAAWzfNq3ohBoB0KbdD78Rz9ro9dwHo7h5rEg6nkoDeOW6fvAAAAMlTcAcgOXlVx3L7VBIAAFsV92QXYgBIl3I79NYoW05yV3IH6OYeK+6tFGShvyZK7gAAoOAOQKLyqo5lqoUkAAC2ZtreeAhAgpTbofeUJwG6uccatXssoN+U3AEASJ6COwApOxEBAMBWLNobDgFIkHI7DMah4hX8f/buH7ttK/8bMDRn+tG7gmAaFmyidOyMtGyirCB0ycryCmSvQEmlUsoKIjdqQ3fsfnLDghWzA2UFfC9iKCM7EsU/AAnc+zzn8CAzk+SMP4LAL8jPvYDWzVi/hZcnbEAclNwBAEiagjsAyTq6vL0Jh4kkAAD27r0IANKk3A7RKYtXIzEAtMKFGQuinLXOxAAAQIoU3AFInXIVAMB+lbu3X4sBID3K7RCtq/D7XYgB4KBz1igcRpKAKF1YUAgAQIoU3AFI2tHl7SSzizsAwD69FQFAepTbIXq/hd/zXAwAB5mzyvnqShIQtSsldwAAUqPgDgBZ9loEAAB7MTm6vL0RA0CSytKVcjvEq1zE8psYAParWkTo+guJ3FMpuQMAkBIFdwCSd3R5uwiHa0kAADTuVxEApKfXH5Tl9lNJQPROwu/7hRgA9qqcs3IxQDIuqqc2AABA9BTcAeCz9yIAAGjU4ujy9loMAGmpyq4jSUAyzsLvvQUtAPuZs8oZyzUX0lI+teF3JXcAAFKg4A4AmV3cAQD2wIJCgMRUpaszSUByrsLvfy4GgEbnrPI666kZkKay5P5buA4ciwIAgJgpuAPA/yhdAQA0w+7tAImpdnC+kgQk6a/SlRgAGnVVXW+BNOXZ553cXQcAAIiWgjsAVKpd3CeSAAConYWEAAnp9QcnmXI7pO4kXAveiQGgkVmrfEJOIQkwb2We5AAAQMQU3AHgS8pXAAD1ug+vGzEApKHaQfD3zI6iQJadVwteAKhv1srL66skgMrIokIAAGKl4A4Ajxxd3k4yu7gDANTplzBj3YsBIH7K7cATrqprAwA1XVfNWsBXykWFIzEAABAbBXcA+KdfRQAAUJtrEQAk4yK87NYMPFZeE+w0DFCDXn9wGg6FJICn7sU8OQcAgNgouAPAV44ub6/DYSEJAICdXYfZylwFkIBef3AWDiNJAE84U7gC2HnWKndtv5IE8IzyGvGbJ+cAABATBXcAeNovIgAA2Jkn4wAkoNpN9EISwApKmQC7KZ+GobgKrJKH129iAAAgFv8WAQA86TrzgTHQTpPwuguvPx/9d99mnx/7nosHaJHF0eXtRAwAcev1B+UMqrgKvMQ9K8Bu89aZJIA1FOGa8W4+m74TBQAAXafgDgBPOLq8vV+OhzeZx6sD7XAdXh/Ctelm1d8Urlt5dd36KVMcAA7PE3EAItfrD8pF4eUOgRaHA+twrQDYjsWEwCbOw73aZD6bTkQBAECX/UsEAPAspSzg0MpC+3+PLm9fv1RuL4W/p9wt+V14/Tf8x7fhdS9C4ICuRQAQvYvs867MAAA0pxABsKHfqgXJAADQWQruAPCMo8vbu3C4kwRwAGUx/cdwHSpfiy2vYT+HQ1l0n4gTOIDr8ok4YgCIV68/GGWeegYAANBGD0/bAgCAzlJwB4DV7OIO7Fu5sOa7dXZsf0lZLg2v7zO7KAP790EEAPHq9Qflru0XkgAAAGitIty7vRMDAABdpeAOAKuVBVO7jwL7Upbbv9921/bnhH/f60zJHdifRR2LdABop+ox91fZ5x0BAQAAaK/zcA9XiAEAgC5ScAeAFcrdj7PPJXeApj2U2xtZVKPkDuyR2QkgbufhdSIGAACATriqFioDAECnKLgDwMs+iABoWKPl9gdK7sCe/CoCgDj1+oPTcDiTBAAAQGfk4XUhBgAAukbBHQBecHR5W+5CupAE0JC9lNsfXdOU3IEmLcJ15k4MAPGpdvy7kgQAAEDnjKoFywAA0BkK7gCwnhsRAA3Ya7n9gZI7YGYCYAtlud1j7QEAADp6T1ctXAYAgE5QcAeA9fwqAqBmBym3P1ByB8xMAKyr1x+chYPd/gAAALrLU7kAAOgUBXcAWMPR5W1ZRF1IAqjJQcvtj65tSu5AnRbVzARARHr9QR4O55IAAADovNNwj2fxMgAAnaDgDgDruxEBUINWlNsfKLkDZiUAXlDu8Ocx9gAAAJHc4/X6A/d4AAC0noI7AKzvVxEAO2pVuf2BkjtgVgLgKb3+4CwcCkkAAABEoyy3e0oXAACtp+AOAGs6urwti6kLSQBbamW5/dE1Tskd2MWimpUAiESvP8gzpQcAAIAYnYV7vkIMAAC0mYI7AGzmRgTAFlpdbn+g5A7sYCICgOhcZJ939gMAACDOez4AAGgtBXcA2MxHEQAb6kS5/YGSO7ClDyIAiEevPzgNh1NJAAAAROsk3Pu9EwMAAG2l4A4AGzi6vC13cL+XBLCmTpXbH13rlNyBTU1EABCHXn9Q7tpuJz8AAID4vQn3gLkYAABoIwV3ANjcRATAGjpZbn+g5A5sMht19VoHwJPOwysXAwAAQPSOq3tAAABoHQV3ANjcBxEAL+h0uf2Bkjuwpo8iAIhDrz84CYczSQAAACRjFO4FCzEAANA2Cu4AsLmJCIAVoii3P1ByB9ZwIwKAaFyIAAAAIDl2cQcAoHUU3AFgQ0eXt4twWEgCeEJU5fZH1z0ld+A59+EacScGgO7r9QejcCgkAQAAkJyiuicEAIDWUHAHgO1MRAB8Jcpy+wMld8BMBBCvXn9wnNmxDwAAIGXn1b0hAAC0goI7AGznowiAR6Iutz9Qcgee8EkEAFE4C69cDAAAAMnKq3tDAABoBQV3ANjORARAJYly+wMld8BMBBCXXn+Qh8MbSQAAACTvjV3cAQBoCwV3ANjC0eXtIhwWkoDkJVVuf3QNVHIHHq4HEykAdN55eCkwAAAAUN4b2sUdAIBWUHAHgO1NRABJS7Lc/kDJHTALAXRfrz84CYeRJAAAAKjYxR0AgFZQcAeA7X0SASQr6XL7AyV3cC0UAUDnXYgAAACAR47dKwIA0Ab/FgEAbG0iAkiScvsjZcl9OR6WfzmSBiTnowgAuqvXHxThUEgCAIDITapj+bnun9VfL6rXKuXTjlbtYv3to/89r14Qi1G4Z3w/n00XogAA4FAU3AFgS0eXt3dVqRNIh3L709dDJXdI95oIQHedi4COu6/mkfL46dF88vf92nw2nTz1D/b6gzxbr4RWltZOqr/+pvpnHv93AEC75oJyMf6ifD03B2xgq3++WkhaKo//qeaGdWcPaNs942sxAABwKAruALCbSWbHO0iFcvsKSu6QnPvwe78QA0A32b2djt6PTcLrj+qv7+az6db3ZtVOlOvOMjfP/B7l2eeiWvm7VJbfTzLFdwDYl0U1G5SF9kmbdpl+VKyffDU7HD+aF76tZojcj5IWs4s7AAAHpeAOALspv1QtxABJ/K4rt79AyR2Suy4C0F0XIqDlJtn/CmuTNv4ffFSS/+L/36MFJA/FtWM/TgDY2X31nvsha1mhfYPZ4eHPMHk0NxxX88Kr8DrNFN5pn1F4vRMDAACHoOAOALv5JAKInnL7BpTcIalrIwAd1OsPyjnNLtO0zSL7vFP6x/lsetPlP0hVyJ88+p0rf9/KwtoPfvcAYCP31XzwoevzwYq54eHPWL7eVk+IKaq54dQpQAu8Ceflz7s8PQkAALal4A4Au1Hugvh/x5XbN6TkDkmwyA+gu96IgJZYZJ/LXL/OZ9NoP1+p/mzl653SGgCs5aHUfp3aH7zamb78c19Xu7ufmhs4sPI8PMvs4g4AwAEouAPADo4ub++qEicQH+X23a6PSu4Qt4UIALqn1x8UmR2kOayHXUp/ibnU/pwnSmvl/dJPfi8B4K/PGX4t3yOr98vkVTtmmxtog3KR9DsxAACwbwruALC78gtZHyhCfL/Xyu07UnKHqH+/J1IA6KRzEXDAe6xfwuumKmslr8rh5/LV6w/Kz5XK4lC5O+uxdABIyCT7/DSXa1FsPDeMJMOeHIfzbuT3FACAffuXCABgZwsRQFSU22tUltyzzzsNAfFwfQTooGr39kIS7Fl5L/D9fDb9rizEKLc/rdzNPrzKe6f/hld5XEgFgMhNqhnhe6XZreeG/xde7zOf07AfFksDALB3dnAHgN19yj7vsAV0n3J7A+zkDlFeKwHonjciYI+uw+v9fDZdiGJ91QKAMrvrXn9wWv3eFpIBICKTakaYiKKWueFdmBnKnd3PqrnBk2BoSl4umva7S+LeZj4bb7uFCADiouAOALtzIwvx/C4rtzdEyR3MPgAcTq8/yDMLs9mP60yxvRYhw5twuKmevlDumFlIBYAOKz9LeKsc28jMoOjOvpQzqd9hkn4v8z4GAPv1LxEAwM6UYaH7lNv3oCy5Z58LL0C3/SkCgM7xOHmaVs75/53Ppq+V2+tVFijC6/vynjWz0BCA7ik/by3ng++UAhufGe7D6105k4XXzxKhAUW1eBoAAPZCwR0AdnR0eTuRAnSacvt+r5lK7tB9Zh+ADun1B+XujXZvp8m54HvF9uZVRffvwl+W91SyBqAL3mefF8Bdi2KvM0NZdH+bfS66TyRCzSyeBgBgbxTcAQBImXL7ASi5AwDs1Si8jsVAzR52Y/3ebqz7VZUEy6L7e2kA0FLlZ67lju3vyrK1OA42Myyqp8D8mHkSMfU5rRZRAwBA4xTcAaAeExFA5yi3H5CSO3T699fcA9Atb0RAzco53m6sB1TtzPouszMrAO1Sfs76tnziSHjdiaM1c8NNNTPcSIMalOX2kRgAANgHBXcAAFKk3N4CSu4AAM3q9Qen4ZBLgposyvuo+Wz62m6s7fBoZ9a3mZ1ZATisu2pO+FkUrZwZysVx5U7udnOnDhZRAwCwFwruAFCPjyKAzlBubxEld+jkNRSA7vhJBNSknNnL3Vgnomifqkz4XWY3dwAO42e7tndmZnjYzd3MwC7yXn9QiAEAgKYpuAMAkBLl9hZScodOcf0E6Ihef5CHw6kkqOG9/0e7trffV7u5A8C+5oRy13bvPd2aGe6rmeG9NNiBXdwBAGicgjsA1MPOJNCN31Pl9pZScofOcA0F6I6RCKjhHuq7aqdPOuLRbu4+qwJgH3PCRBSdnRnehcOPmc962M5ptagaAAAao+AOAPXwASC0m3J7Byi5Qyd8EgFAZ9hRj138PJ9Ny9LaQhTdE35uf90Du78CoCHX5oRoZoabamawMI5teGIYAACNUnAHACB2yu0douQOALC7Xn9QFg2OJcEWyvum1/PZ9K0oui38DO/Dq7y/8rMEoE5vq/cX4pkZHhbGKbmzKYuqAQBolII7ANTg6PJ2IgVoJeX2bl5TldyhvVxPAbrhJxGw5fv89/PZ1CwekfDz/Dn7XFozxwGw65zwunpfIb55oVwY913mM1k2k/f6g0IMAAA0RcEdAIBYKbd3mJI7tPraCkCL9fqDPPOoeLZ7j/9vtYMnkQk/10n2ueS+kAYAW7AILp2ZwWeybMriagAAGqPgDgBAjBaZcnvnKbkDAGxFuZ1N/bU4uNy5UxTxqhYvfJdZsAjAZh7K7d4/0pkZfCbLRvefvf7gWAwAADRBwR0A6uMDXmiH8kuXH5Xb41CV3CeSAABY2xsRsIHr+Wz6nXJ7Gqqfc7mTu8+wAFjHIlNuT3VmUHJnXWW53SJrAAAaoeAOAPXxZTC0w/ujy1tfusTlR9dYAICX9fqDk3DIJcGarqvyEglRcgdgTX89+UO5PemZQcmddf0kAgAAmqDgDgBATBZHl7c/iyEu1W787yUBreCLbYB2s3s761JuT5iSOwAv+OsJmZ7wgpI7ayp6/UEuBgAA6qbgDgBATJSgI1UtXFhIAg7+u+jLbYB282h41qHcjpI7AM/56/0hvE8sREE1Myi5414UAICDUHAHACAW5e7t12KI2q8iAAB4Wq8/KAsFx5LgBcrt/E3JHYCvPJTbvS/w9cxQzo8TSbCCp4kBAFA7BXcAqM9CBHBQNyKI3rUIAACe9ZMIeGmeVm7na0ruADyi3M4qP5oXWCHv9QcnYgAAoE4K7gBQnz9EAAf1UQRxO7q8XWQWEwEA/EOvPyh3bvdIeFYpy0hvxcBTHpXc76UBkKzXyu2sMS/8aF5gBYuuAQColYI7AACxmIggCb5oAwD4J+V2Xpqhv69KSfAkJXeApL0P7wPXYmCNeWFRzQvgvhQAgMYpuAMAEIWjy1tfwqfhkwgAAP7hBxHwjPI+6bVyO+uodu59LQmApNyE6/87MWBeoAZ5rz84EQMAAHVRcAcAAAAA6Khef3Cc2SmP572uSkiwlnC+3ITDe0kAJGGRKSqz3bxwHQ7XkuAJP4kAAIC6KLgDAAAAAHSXcjvPeV+VlWEj1U6+zh2A+P3oKS/s4G14WUiJ+1MAABqj4A4AAHTJf0QAAPCFH0TAEyZVSRm2Ve7ouxADQLTeesoLu6gWR3gCAF/Le/3BiRgAAKiDgjsAAFFYjoc+NE2DnzMAQKXXHxxndsjjn5SN2FlVWvtREgBRKhfC/SwGapgXykUSbyXBV9yjAgBQCwV3AABiofichkIEAABmI1Z6PZ9NF2JgV1Vp7b0kAKJiIRx1zwvlYomJJHjEU8YAAKiFgjsAALHwoWnkluOhnV8AAMzArHYzn01vxEBdwvn0LlNaA4jJewvhaEC5aOJeDFROev1BLgYAAHal4A4A9fmPCOCgTpfjYS6GqClwAQB8NQOLgEfsyEpTlNYA4jCpdtuGWlWLJn6RBO5VAQCok4I7ANTnRARwcCMRxKlavODnC4f/XSykANAOvf6gvCYfS4JHXs9nUyVkaleV1t5LAqD7s4IIaHBeeBcOd5Kg8koEAADsSsEdAICYvLGLe7QuRAAA8AVPt+Gxm/lseiMGmlLt+Ku0BtBd76sFS9CktyKgctrrDyzIBgBgJwruAADEpPzA9EoMcVmOh+XjTD3SFADgS+YjHpS7tisTsQ92/gXopkV4/SwGmjafTSfhcC0JKoUIAADYhYI7AACxKZbj4TsxxCH8LE8yixYAAL7Q6w/ycMglQeUXO7KyD+E8K3dwV5AE6J634Rp+Lwb2db5lnxdggqeOAQCwEwV3AKiPR+1Be5wvx8ORGLot/AwfduR3fYX2OBEBQCvYvZ0Hi/ls+k4M7NH7TGkNoEsmYVa4EQP7Ui2m+EUSZHZwBwBgRwruAFAfhS9olysl9+6qyu2/u7ZC61hwAtAOr0RA5a0I2KeqtOa8A+iO9yLgAMonvizEkLy81x/4fB8AgK0puAMAEDMl9w5SbgcAeJEd3CnZkZWDCOfddaa0BtAF1+GaPREDB5gVygVxFldQKkQAAMC2FNwBAIidknuHKLdD630jAoDD6vUHhRSoKA1xSHZxBzArwLMsiKPi6WMAAGxNwR0AarAcDxUxod2U3LtxLVVuh/bLRQBwcD+IgOzz7u0TMXAo1dMDnIMA7VXu3r4QAwdmkQWePgYAwNYU3AGgHscigNZTcm8x5XYAgLUVIiB4LQJaQGkNwDUanmUXd0qeQgYAwLYU3AEASImSewspt0OnFCIAOJxef3BsZiKzIystUT1FYCIJALMCrGCxBYUIAADYhoI7ANSjEAF0hpJ7iyi3AwC492Rjv4qAFlFaA3BthmdVu7jfSyJpr0QAAMA2FNwBAEiRknsLKLdDZ393/c4CHI5iAJNq12xohep8XEgCoFWzgusybfOLCJJWiAAAgG0ouANAPb4VAXSOkvsBKbdDpx2LAOBgChEkz46sOC8BcE2ma34WQdp6/YF7WQAANqbgDgD1UPSCblJyPwDldug8v7sAB9DrD45dg5N3Z/d22iicl9eZXdwB2mBhVqCls8J9OFxLImmFCAAA2JSCOwDUQ8kAukvJfY+U2yEKFvYBHEYhguT9IgJa7FcRAByc3dsxy9JWr0QAAMCmFNwBoB6KXtBtSu57oNwO0fCFFMBhmKHSdl/tkg1t9bMIAA47K4TXjRhoqzDL3oXDnSTczwIAwLoU3AFgR8vxsJACREHJvdlrpXI7xMPCPoDDsMAobdcioM3ms+m98xTgoG6qazG0mV3c03Xc6w98NwAAwEYU3AFgd0peEA8l9wYot0N0/C4DHEYhgqQpA9EFv4oAwKwAK3jKQNp8pggAwEYU3AFgdz6QgbgouddIuR2i/d32Ow2wR73+oJBC0ibz2XQhBtounKeTcHCuAuzfXbgG34mBDswKnviSNk8lAwBgIwruALC7b0QA0VFyr4FyO0QtFwHAXpmn0mZXbJyvALj2EosPInBfCwAA61BwB4Dd5SKAKCm570C5HaLndxtgv74VQbLu57PptRjoEOcrgGsvPCvMtjfljCuJJPk8EQCAjSi4A8DuChFAtJTct6DcDklQtARw38l+3IiALpnPpotwuJMEwP5mhXDtVRbGjEsn9PoD97YAAKxNwR0AdrAcD5U3IX5K7ptdF5XbIQ1+xwH2pNcflPNVLolkfRABHfSrCADMCuC85QmFCAAAWJeCOwDsJhcBJEHJfQ3K7ZDWDFT9zgPQPLNVuu7ns6ndLeki5y2Aay48q5pxPXkgTZ4KCQDA2hTcAWA3igaQDiX3FZTbwRwEQGMKESTrWgR00Xw2XYTDnSQAGncTrrlKwnT2/BVBknIRAACwLgV3ANjNKxFAUpTcn6DcDskqRACwF3a4S9dHEdBhv4oAoHEfRIDzl47xHQIAAGtTcAeA3fggBtKj5P6IcjskTeESYD9yESTpfj6b2tWSLnP+AjRvIgKcv3RNrz8opAAAwDoU3AFgS8vxMA+HY0lAkpTcM+V2wA7uAHti1kqTcjCdNp9NF+FwJwmAxtxV11ro6qxwnym5u8cFAIAVFNwBYHuFCCBpSZfclduB4DhcC1wDABpkZ7ukfRABEZiIAMCsAM5jvvKNCAAAWIeCOwBs71sRQPKSLLkrtwOPuA4ANCsXQbImIiACSmsAZgVwHvM1nycCALAWBXcA2F4hAiBLrOSu3A585ZUIABqViyBJk/lsei8Gui6cxxMpADTi3jWWSGaFu/J8lkRyfLcAAMBaFNwBYAtVwdMHMMCDJEruyu3AEwoRADTKQqI0fRQBEbkRAUDtJiLA+UyHHff6g2MxAADwEgV3ANhOIQLgK1GX3JXbgWfk4fqQiwGgueusCJKkEExMLNgAcG0F5zNf8z0DAAAvUnAHgO3YRQ94SpQld+V24AWFCAAak4sgOffz2fRODERkIgIA11ZwPvMV3zUAAPAiBXcA2E4hAuAZUZXclduBNfwgAoD69foD951pmoiAmFiwAVA7i+EwKxCDYxEAAPASBXcA2FBV9lT0BFaJouSu3A6sqRABQCNyESTpkwiI0EQEALVRBsasQAw8KRsAgBcpuAPA5k5FAKyh0yV35XZgA8fhmlGIAaB2uQiSNBEBEfooAgDXVHBe434XAIBNKLgDwObsKgCsq5Mld+V2YAs/iACgdt+KID3z2XQiBSLkvAZwTYVVPJkgPbkIAAB4iYI7AGzODu7AJjpVclduB7ZUiACgdsciSM5EBERKaQ3ANRWc13yh1x/4DgIAgJUU3AFgA8vxsPywRckA2FQnSu7K7cAOTsI1JBcDQK0KESRHsYcozWfT+3BYSAJg91mhuqZCbLNCOSc4t9Pj+1YAAFZScAeAzfwkAmBLrS65K7cDNfCUGwDYzScREDELOABcS8H5zWO+iwAAYCUFdwDYTCECYAetLLkrtwM1sRAQoCa9/sC9Z5qUeoiZBRwAu/tDBETsowiSYwd3AABWUnAHgDUtx8M8U/4EdteqkrtyO1Cjk2peAgC2MJ9NFdyJ2UQEAK6lsMJCBMn5VgQAAKyi4A4A6zsVAVCTVpTcldsB8xJAaxUiSM5EBETOAg4A11JwfvOYHdwBAFhJwR0A1veTCIAaHbTkrtwOmJcAoFUUeojafDa9D4d7SQBs7b66lkKss4J5OD25CAAAWEXBHQDWsBwP80wJFKjfQUruyu1Ag06quQmA3bwSQXL+EAEJUFwDcA2FVRYiSEouAgAAVlFwB4D1nIoAaMheS+7K7YC5CQBaSWkN5zkArqGkbiGCtPT6g2MpAADwHAV3AFjPGxEADdpLyV25HTA3AXSGeS09Smuk4E8RAGzN015IwUcRuPcFAIAHCu4A8ILleFh+uJJLAmhYoyV35XZgj/JqfgJge3axS8x8Nr2XAgmYiABgaxbDkQIzMQAA8DcFdwB42U8iAPakkZJ7+HfmmXI7sF92cQeA9U1EQCKU1gC2txABCbCQIz2+swAA4FkK7gDwspEIgD0qS+4Xdf3Lwr/rNBz+L/NBMbBfp9WTIwDYUK8/KKSQnIUISMF8NlVaA9j+GmpeIAUWw6XH54cAADxLwR0AVqh2UvbhCrBvZ+H683/hVexw/SrCq9y1/TfXMeAAyuvOqRgAYC1/iICELEQA4NoJT7EYDgAAeOzfIgCAlX4SAXAg5Y7rvy/Hw/JD/V/Ca3J0ebtY9Q+EvzfPPhdKf8rs2A4c3pvwuhYDwMYsTkzPQgQkdr7nYgAwK8Az7t0TJeWVCAAAeI6COwA8oyqKFpIADqwsql9V16VF9vkLrY9f/T3lh8B5piQAtOz6Fa5bJ0eXt3bfAth8/iMtCxHgfAfAtRP+Un6OVIgBAABQcAeA570RAdAyefUqRAF0aJ56LQYAWGkhAhLyhwgAXDsBAADgJf8SAQA8ayQCAIDd5qnleOix0gCwwnw2XUiBhNyLAGBjZgVS8lEESfEEMwAAnqXgDgBPWI6Ho3BQxgIA2N2ZCAA28koESVH2JTV3IgDY2EIEQKR8FwsAwLMU3AHgaW9EAABgrgKAhin7AgDA/1gACgAA/EXBHQC+shwPi8wj8QAA6nJcPR0HAAAs6gDY0Hw2nUgBswIAAJAaBXcA+Ce7jAIA1OtcBADwJAUekjKfTe3KCgDA33r9gU3HAAB4koI7ADyyHA/zcDiVBABArXK7uAOsrRBBUv4UAQCwgoVBOOeJ3bEIAAB4ioI7AHzJ7qIAAM3wlBwAAEoTEQCszdNeSMp8NnXOAwAAf1FwB4BKtXv7SBIAAI04CfNWIQYA+MJEBAAAAAAA8CUFdwD4H7u3AwCYtwAAAAAAAAA4IAV3AMjs3g4AsCeFXdwBAJJ3JwIA10xYYSECAABAwR0APrObKADAflyJAOBpvf4gl0Jy7kVAgv4UAYBrJqywEEFSChEAAPAUBXcAkmf3dgCAvcrD/GX2AnjmGimCtMxnU7uyAgAAAADAVxTcAcDu7QAA5i8AAAAAAAAAWkHBHYCk2b0dAOAgyl3cz8QAAJCkhQgAXDMBAABgFQV3AFJ3IQIAgIM4X46Hx2IAAEjOQgQArpmwwr0IAAAABXcAkrUcD4twOJUEAMBBlOV2u7gDkDLFHQAA+KdPIgAAABTcAUjZuQgAAA47jy3Hw1wMACTqTgQAAAAAAPBPCu4AJGk5Ho7CoZAEAMDBXYkAAAAAAAAAgAcK7gAkZzkeHmd2bwcAaIsizGeFGAAAAAAAAAAoKbgDkKKz8MrFAADQGlfVIkQAAAAAAAAAEqfgDkBSluNhntm9HQCgbcoZ7UwMAABJuBcBAAAAALCKgjsAqbkSAQBAK51XixEBAIjYfDa9kwLA2hYiAAAAIEUK7gAkYzkenoZDIQkAgNayGBEAAAAq89l0IQUAAABSpOAOQBKW4+FxpjAFANB2RZjbRmIAAAAAAAAASJeCOwCpOA+vYzEAALTeRbU4EQAAAAAAAIAEKbgDEL3leHgSDmeSAADohLLcfi4GAAAAAAAAgDQpuAOQgisRAAB0ytlyPCzEAAAAAAAAAJAeBXcAorYcD8ud208kAQDQORciAAAAAAAAAEiPgjsA0VqOh8fhcC4JAIBOOqkWKwIAAAAAAACQEAV3AGJW7vp5LAYAgM46rxYtAgAAQHJ6/UEuBQAAAFKk4A5AlJbjYREOI0kAAHRaWW6/EAMAAACJykUAAABAihTcAYjVlQgAAKIwqhYvAgAQgV5/4Ak9AAAAAMBKCu4ARGc5Hr7L7GoCABATu7gDAMTjRAQAAAAAwCoK7gBEZTke5uHwRhIAAFE5qRYxAgAAABC3b0QAAAAouAMQm3J3T485BgCIz5tqMSMAxKIQAQAA/EMuAgAAQMEdgGgsx8MiHE4lAQAQpXIR44UYAAAAAAAAAOKm4A5ATK5EAAAQtdNqUSMAAAAAAAAAkVJwByAKy/HwXeaRhQAAKbCoEQAAgFQciwCI3L0IAAB4ioI7AJ23HA/zcHgjCQCAJOTV4kYAALpJWRNgfSciACJ3JwIAAJ6i4A5ADC4yX4wBAKTkTbXIESAq89l0IoW09PoDpTVS5LwHAFYpRAAAACi4A9Bpy/GwCIdTSQAAJKVc3HghBgAieU8DAAAAAAAeUXAHoOuuRAAAkKTTarEjAAAAAAAAABFRcAegs5bj4btwyCUBAJAsu7gD0HV2cCdF/xEBwNq+FQEAAAApUnAHoJOW42EeDm8kAQCQtJMwF56JAYAuv5eJAOc9ACtYDEdSev1BIYXkLEQAAMBTFNwB6Kpyt04f7AIAcL4cD82FQEwWIgAAACAF89nUPTAAAE9ScAegc5bjYREOp5IAACD7vOjxQgxARBYiSMp/RAAAvHDPCwAAAMlRcAegi65EAADAI6NqESQAdM2JCEiQuQ3ArADmBAAAYCUFdwA6ZTkenoVDLgkAAL5iF3cAAAAA6I57EQAA8BwFdwA6Yzkelo/iPJcEAABPOKkWQwJ03UIEab1/iYCU9PqDYykAbHztzKVAQv4jgqTciQAAgOcouAPQJeWunL4EAwDgOefVokiALvtDBEnxvkVqLOoA2FwuAswKAABAahTcAeiE5XhYhMNIEgAArFCWBC/EAECX2JUVAAAAAAC+pOAOQFcoKgEAsI5RtTgSoKvuRZCcXAQkxK6sAJtzj4vznVh9FAEAAM9RcAeg9Zbj4Vnmyy8AANZ3LgKgw+5EkJxjEeB8BwAAAAD4HwV3AFptOR6WX3opKAEAsIkizJEjMQDQERb1k5JvRACwsW9FQAp6/YG5OD2eYAYAwLMU3AFou4vMzk4AAGwxR1aLJQG6xhf86VH4JSW5CAA25t4W5zqx8gQzAACepeAOQGstx8Nyp4aRJAAA2IInAQGdNJ9NfcGfnlwEJMTOrACuneBcBwAAXqTgDkCbXYgAAIAdnFWLJgGgzbxXkRI7swK4doJznQcWeAMA8CwFdwBaaTkejsKhkAQAADuyaBLoIl/yp0WRhyT0+gOLOQBcQ2GVVyJIy3w2vZcCAADPUXAHoHWW42H5xa4iEgAAdSjCfHkqBqBjfMmfmF5/UEiBBFjMAeAaCs5z3PcCALAWBXcA2ug88yEWAAD1uagWUQJ0xUIEyclFQAIKEQC4hsIKnlSQFk8uAwBgJQV3AFplOR7m4XAmCQAAamTGBLrmDxEk+V4FsftGBACuofCUXn9gHk6PHdwBAFhJwR2AtrkSAQAADTivFlMCdMFCBMl5JQISYBYDcA0F5zgPPokAAIBVFNwBaI3leHiaecwmAADNsZgS6IqFCJJzIgISUIgAwDUUnONU7OAOAMBKCu4AtMJyPDwOhwtJAADQoCLMnYUYgA5YiCA5x73+4FgMxCqc37kUAFxLYYVvRZCcOxEAALCKgjsAbXGWefwgAADNs4s70Hrz2XQhhSTZxR3nNwCr5CLA+U1E7OAOAMBKCu4AHNxyPMzD4VwSAADsQR7mz3diADpgIYLkFCIgYgruAGYFMCvwt/lsagd3AABWUnAHoA0uRAAAwB69qRZZArTZQgTJ+VYEOL8BcC0lNb3+oJCC+10AAPiagjsAB7UcD4twOJUEAAB7dJx5ghDQfnazS49dK3F+A+BainObFCxEAADASxTcATi0KxEAAHAAo2qxJUBb/SmC5OS9/iAXA7EJ53W5uNC5DVDPrHAsBiLk6QTpsaAbAIAXKbgDcDDL8fBd5sstAAAO50IEQItNRJAku1cSo0IEAGYFcF7ziAXdAAC8SMEdgINYjoflLiNvJAEAwAGdhLn0TAxASy1EkKRXIiDGmUsEALUpREBMqqcSmBXSMxEBAAAvUXAH4FDK3TI9ShMAgEM7rxZfArTKfDZdSCFJhQiIkIUbAK6p8Bzl9jS53wUA4EUK7gDs3XI8LMJhJAkAAFqgLLefiwFoqTsRJOek2sUSYlKIAKC+WUEEmBPoOgu6AQBYh4I7AIdwIQIAAFrkbDkeKgkAbbQQQZIKERCLXn/gfAao13G4trp/JSaeSpCeiQgAAFiHgjsAe7UcD0eZHUYAAGgfizCBNvokgiQp+RCTQgQArq3gfOaRhQgAAFiHgjsAe7McD8tHbCsOAQDQRkWYV0/FALTMRARJ8n5ETCzYAHBthSd50kuy/hABAADrUHAHYJ/Ow+tYDAAAtNRFtSgToC0WIkhS3usPcjEQiUIEAK6t8IwfRJCkiQgAAFiHgjsAe7EcD/NwOJMEAAAtZmYFWmU+my6kkCy7uNN5dmUFaMxxuMaeiIEImBXSdCcCAADWoeAOwL5ciQAAgA44rxZnArTFRARJeiUCImBXVoDmWAxHp/X6g/IJehZqpGcxn03vxQAAwDoU3AFo3HI8LD9oLSQBAEBHXIgAaBG726VJaY0YFCIAaIxFRJh36aKFCAAAWJeCOwCNWo6H5Q4MCkIAAHTJaZhjCzEALfFJBGnq9QdKP3T5/M0zu7ICNOmk2gEbusoTi9L0UQR0mPddANgzBXcAmnYWXrkYAADomCsRAC1hB/d02ZmVLrNAA8C1Fpy/uL8lJhbwAsCeKbgD0JjleJiHwxtJAADQQXmYZ8/EABzafDZVAEiX0g9dZldWgOZZDEcnVU8qshNymtzfAgCwNgV3AJp0kfmACgCA7jpfjofmWaANJiJI0nFV/oFOCedtOT85dwGa51pLV1mckab7+Wy6EAMAAOtScAegEcvxsMh8uAoAQLeV5awLMQAtYJe7dCn/0EU+EwTYE4vhMCvQIRP36nScp1QBwJ4puAPQFEUgAABiMFqOhydiAA7sowiSdVrthg1dYmEGgGsuPKlalGG+TdOnCP9Mf/qxAgA0R8EdgNotx8OzcFACAgAgFhZvAodmV7h0leUfO1zSGdWCDOcswP6MLIajYyzKSNdEBHRcLgIA2C8FdwBqtRwPyw9SzyUBAEBEijDnjsQAHMp8Nl2Ew0ISyfpJBHSIcjuAay84X3nqvnYiBTouFwEA7JeCOwB1K8vtdgsBACC6ObdazAlwKHZxT1fR6w9yMdARFmQAuPbCk8JMO8p8h+h+Frp9HXNvDgB7pOAOQG2W4+FJOJxJAgCACOVmXeDAPoogaSMR0HZV2aOQBMDeWQxHV/wggmRNREAkvN8CwB4puANQpwsRAAAQsXIX91wMwIFMRJA0O7PSBSMRALgGw1OqRRinkkiWBdvE4kQEALA/Cu4A1GI5HpYfShWSAAAgchZ1Agcxn0090j1tea8/GImBlrMQA8A1GJ5jlk1brPezEz/a5HwjAgDYHwV3AHa2HA+PM0UfAADScBrm30IMwIFMRJA0xTVaq9cflJtf5JIAOJi8uhaDWZa2Wcxn04UYiIQd3AFgjxTcAajDWeYLLAAA0nElAuBAPNY9bUWvP/BlOm2ltAZweG9EQBtVTyLKJZGsiQiIiHtyANgjBXcAdrIcD/PMh6YAAKQlD3PwmRiAA5iIIHk+g6F1ev1BHg52DQY4vKK6JkPbWAiXNgu1icmx91oA2B8FdwB2dVHeyIkBAIDEnC/HQ3MwsFfz2XQiheSNfJlOG+ciEQC4JsNTwuxahEMhiaTFfB9758ebJNc0ANgTBXcAtrYcD8ubN7szAQCQorLcfiEG4ABuRJA8u7jTGr3+oJyJfD4I0B4Ww9E2dm9P2918Nl3E+ocLf7Z7P+IkfSsCANgPBXcAdqHQAwBAykbL8fBEDMCeebw7o6pUDG1wlnm6I0DrZgUR0AbVYgvnY9omIiBChQgAYD8U3AHYynI8LL+8UuYBACB1Fn0C+zYRQfLKMvGZGGgJTxQAaOG12WI4WuJcBMlLYYG2XdzTc+J9FgD2Q8EdgI0tx8Pyhs2HUgAAkGVFmI9HYgD2ZT6b3mW+QEdxjRYI52A5AzkPAdrHYjjaMCfkmd3bSWOB9p0fc5JORQAAzVNwB2AbZbndl1cAAFDNx9UiUIB9uRFB8hTXaMUMJAKA1rIYDnMChzaZz6YWZxOrVyIAgOYpuAOwkeV4eJL5AhUAAB7LzcjAnn0UAcF5tTMm7F21e7vzD6C9PImXQ84J5YwwkkTyPiTy51TiT5Md3AFgDxTcAdjUhQgAAOAfyl3cczEAe2IHd/5+/xEB+1btCOwzQoD2O7MYjgMxJ1CaJPLn/ORHnaTj8B6r5A4ADVNwB2Bty/GwvEkrJAEAAE/yBS6wF9Vj3u8kQTDq9QcnYmDPyifXHIsBoBMshmOvwmxaZHY2JssW4b7VPSux+0EEANAsBXcANqGwAwAAzztdjoeFGIA9+SACKj6vYW+q3dvfSAKgM0ZV4Rj2xaIKSpOE/qyK/OmymAcAGqbgDsBaluPhu3DIJQEAACspGQL7ciMCKkWvPxiJgT0pS2t2bwdwnwr/UM2khSTI0lqQfe/Hnaxj9+IA0CwFdwBetBwP88zOTAAAsI6TMD+fiQFoWvW494UkqFxUO2tDY8I5dhIO5hyADt6nhmu46zdNzwnlLGoxBaX7cL+a0oJs9+Vp+0kEANAcBXcA1mFnJgAA2GB+Xo6H5mdgH+zizoPyfedcDDRMaQ2gw/epvf4gFwNNnmOZ7xL5bJLSH3Y+my78yJNWeH8FgOYouAOw0nI8LMJhJAkAAFibkiGwLx9FwCNnvf6gEANNCOfWKBycXwDdvk+1UImm5oRyRvCUAB58SPDPfO/HnjSfAwNAQxTcAXiJDzwBAGBzZ8vx8EQMQJOqx777Ip3HfI5D7Xr9gVIkQBxOwzX9VAyYQWlYik8au/NjT/791RMsAKABCu4APGs5Ho7CQSkHAAC24wteYB9uRMAjJ73+4J0YqNlV9nnnXwAiuKYr4VGnavb0XSJ/35/OZ9MUF2FbeJ628n3VUywAoAEK7gA8aTke2pkJAAB2U4S52u54QNM+iICvnPf6g0IM1KE6l8wzAPEov/v5TQzUNCeUxfZzSeD+NPvkR5+8NxaQAUD9FNwBeE65ythNGAAA7MaiUaBR89m03MHdbnF8ze6s7Kw6h5QgAeJThGu8nWYxJ9CEVJ8wtvCjT57NAwGgAQruAPzDcjzMMzsuAABAHfIwX78TA9CwGxHw9ftPeF2JgR2V55CFEgBxuqh234atz6Fq5oS/70vns2mqi68XfvwEo/De6roIADVScAfgKb4ABQCA+rypFpECNOWDCHjCaa8/GImBbVTnzqkkAKL2uye+sMOcYM7Efen/3PnxU9GzAIAaKbgD8IXleFiEQyEJAACoTVkY8IQkoDHz2bTcwf1eEjzB7qxsrDpnLiQBkMS96m9iwJxATZJ9sljCO9fzT4WF5gBQHwV3AL5mVTEAANRvVC0mBWjKjQh4wl/FNbuzsq7qXLmqzh0A4lcW8ZSV2WRO+M2cwFP3o0re2cRpQOXCPTgA1EPBHYC/LcfDs3DIJQGtshABAETDLu5Akz6IgGfkmd1ZWV9ZcrTrP0Bazuw2y5p+y3yPiPvR5yxEQMUTUgCgJgruAPxlOR6WN1oKN9A+34XXezEAQBSKMHePxAA0YT6blju4eyw6z74H9foDT+1jpXCOvAsHswpAmq7C+4AFTqyaE8pZspAETyjvQz1RLMv+EAFf3YOfiQEAdqPgDsCDcncmj8qC9jk5urx9F47/zTzeEACimLurxaUATbgWASuMfMHOc6qde21+AZC235XcWTEnjCTBM27ms6nF1r7D458uwvWzEAMAbE/BHYBy9/byA8uRJKCV/irAHV3eLsLr+/CX5WshFgDo9Hu7ciHQlF9FwAsuqoIS/K0qM15IAsD9anj9Ft4XLMrm8ZxQzo6eBIT70JctRMATfrN4DAC2p+AOQMkXWNBeX3zocXR5Owmvcjf399nnxz4CAN1zvhwPczEAdZvPpneZL9V52ZWSOw+qssXvmSc7AvBZea/6u5I71Zxwmim3s9oi3IdOxPDX/bh7cZ5yXN2De18FgC0ouAMkbjkelh9OFZKA1vrmqf/y6PL2XTh8F143IgKATrLIFGjKLyJgDUruZFXJQrkdgK/9tfhJGS/5OaE8D5TbeYnd2780EQHeVwGgPgruAAlbjoflTZRiDbRb/tz/cHR5uwivH8Nffh9ed6ICgE45DfN4IQagARbBsi4l94QptwPwAmW8tOcET3hhXdci+ILv6vC+CsD/Z+/u0Ro51r8BV/ty/uIVHJE4cHIgc2aRKjGswChUNLACYAXgSOFoVmCcdOp2RmZOQkBinRVY/xXorRo1ZzBmGD700d1139dVp3U8/pj5IZWqu596miVS4A6Qt6PwRPEs0Ag7X/obinFZxZG6uR/HMRMZALSGTmjA0tWPRVfkzrO/ixS55+decfuONAB4gmK8PNcJ/aC4neep6vNPPvmPCPC9CgDLo8AdIFPz0aAXD+8kAY23VT9t4YuKcXkRD9tBxwwAaIte/J4/EgOwAr+KgBdQ5J4Rxe0AvJBivLzWCYdBcTvP90EE/6CDO8/5Xv2zflIGAPAFCtwB8nUSXKCCtnj2RY5iXM7iGMaXe8GFNABoxbr8uZvZAJ7r9uZqEjzdiZdJRe6nYui2uojij6C4HYCX+fj9oRiv8+uEw+BJczzfrD7v5O/n4u7L8RwfNx3baA4AX6bAHSBD89GgHw9OmKA9XnzjoBiXVRy78WUqdlfYAgDNlW5onIgBWIGJCHihk2+/+15RU0fVRYmpI2tPGgC8Qvr++E2Re2fXCedBcTvON5elEgHPkK4Jp43m7z0lBQA+T4E7QJ7ORQCt8u/X/oPFuJzEw3YcF2IEgMY6mo8GPTEAS/azCHiFw2+/+/4PN9i7pe4MmIrb/VwBeIv0PfKHjrOdWiNs1Rscj6SB882l0cWdF52DBxvIAOCzFLgDZGY+GqSTJCdI0C69t/zDxbicxXEcX6aO7pU4AaCRdEoDlur25mpq/c8rpetGf7jB3g3x53hUrzMUtwOwtPPXuuM37V4j9MJiA9yhNHihqj7f5HG/i4BXnoOfigIA/k6BO0BG5qNBupHloiO0T38Z/5JiXF7HsRdfDuOYihUAmvV9H9fr+2IAluyDCHilXtChtdXqjqy/BNcCAViNI099afU6IV1/+CNoiMXr6N7+NB3cea2T+ru1LwoAWFDgDpCX1LHJxUZooflosLQLzcW4nIRFN/czyQJAoyhAA5bq9uYqrf1nkuANUofWXxSvtUvdfT91ZLV5DoBVSt83f9bF0rRnnZCuPaRNcNZ3vMY0nmdeiuHJ8/Bp0GSKt323/hbn6vf1kzYAIGsK3AEyMR8N0gnQiSSgtZbaSaUYl7M4TuPL7Tgq8QJAI/Tiuv1UDMCS6a7HW33s8KmLXDvEn1NqcJGK23VkBWAdUpF02gx3bkNc49cIvdQZOCyaYcFreUrY81Qi4I0O6/PwU9+vAORMgTtAPnSDhHb79yr+pcW4nMaxF18eBB0lAKAJ3s1HAzctgGWaiIAl6IVFFznFaw2Vfi6p235YXAP0MwJg3Y7qtYINVs1cJ6SfTypu9/PhLdLTwS7E8Cy/i4AlSOd1qYHhnwrdAciVAneADMxHg37wSGJou/4q/+XFuLyMI3VzPwuLi5QAwGakGxU2pwJLUz8e3SPkWZaPxVG6uTdL/HkcxsOfwfU/ADZrp14n2BDXnDVC6tqenuxiAxzLcBnPL90/ep5KBCzRw0L3nkge/c7bkg1A9yhwB8jDexFA662ls0oxLk/jYTcogAGATTqcjwa6qgHL9LMIWKJeWHRofa94bbPuFa2la39+FgA0xd2GOBuvNrdGSEV+p2GxAa4vEZbkTATPU280n0qCJbtf6P4+943n9fnwYZ1FekrJX3EcepsAdEshAoBum48G6UKiDpDQDXvFuKzWOH/0w+ImeU/0ALB2Vfze3xMDsCz1zT6bZ1i21MHx59ubq1NRrPXznAob0jW/E2nQcHtxfqjEsJJ5YC4F2nJuG8ewLvZkPfND2liQ7gv2pMEyP8vxc+w61cs+i+n+2qEkWLH0/Zqaln2In9Hrjp8Dp2ta/Tj+XR8f2+R95voEQLcocAfosPlokBb1fwYdnKArzuoO6+ueS9J/8525BADWbhi/+ydiAJYhdbUKnvDG6kzD4kay7631fJbPnaPTEgrcVzcXKHCnbdIa4TjOCTNRrGxe6IfF5re+NPCd3ojPZNps8oskWPN5eSp2/7XNn9fUmT0sNmml77NUzL4Tnr9pS4E7QMcocAfosPlokG52HUkCOmNjnVzrDTNpTjn0YwCAtZnGsRu//xUAAEvx7Xffp03wPUmwyvPWsLihXIli6Z/fdD5+4jNMyyiGW92coMCdNvr45Jc4LhS6L3U+SGuDtJG1Lw1WtcbXvf1Vn810X+0vSbDB79y0Dv89jusmrsnrjVl3ndn/FT4Vtb+FAneAjvlaBADdNB8N0gmA4nbolp1N/YfrwrphnFs+hEWh+44fBwCs3N2a/lQUwJKk9fyJGFihfhrffvd9FY8/395cXYrkbRS2A9AhW/V32rv4/ZYK3SdxrTAVy6vXCGnd9VPQlIb1nEfyQmkjT/ycXgf309jcd+5+PdJ3Rjpc1+O/9XG2qsL3+jvq7vdx9xn4973/74lkADyLDu4AHTUfDX4LujVAF6UurtcNmGNSsV26GeECBACs1qz+/p+KAniruoPcn9bxrFH6/kod1CaiePFn9TCOd0FhO+2mg/vq5gkd3OmKtEZIm+KuRfHsz/9+vUboS4N1rOfj53NbDK/+vJ4Gm8xph48F7w/+2u/18f+FL2/U6DXk3FUHd4CO0cEdoIPmo0G6uNWXBHRS+mxv/GJ/MS4v4lwzCYsLc54WAQCrc9fhbigK4K3qDnI/BzfYWZ9eHO/j+y49CUyn1i+IOaWigVSwth9sRAEgD4dp1E9/+WBT3GfXCDa/sSlnIniTS+fftMRjBex9sQCwaTq4A3TQfDRI3dh6koBOuizG5UHD5px00SMVK/T9eABgZfbiGqASA/BWurjThPPaOH5VwPa3z+RhHD+FL3fFg9atYXVwX9ncoYM7XTWr1wq6uof/dWtPa4R9bw02QPf25XyO3beH9dHBHaBjdHAH6Jj5aHDqJBk6rXEXsotxmW407MX55zAsCt0VygDA8qVuT5UYgLfSxZ2GnNfu113d74rdL3MKoC5qTzn8GBSsAcB9dxu/Ulf3ab1W+JBTsXtd1H63RnCtnU3SvX05qnpeAwDghXRwB+iQ+WigCxvkobEdXOt56CgolgGAVRjGNcBEDMBb6eJOA911a/01jiptxOjg5y51Z+8HndrJiw7uq5tTdHAn17XC7+nYpbVC/Dz36jXCj/XRGp0m0L19eZ/xtFnlF0nAWujgDtAxCtwBOmQ+GrwPdoBDDi6KcXnc8PmoFw9pTur7cQHA0qQb+NtxHTATBfBW3373/WmwMZXmqsKigK1qa3HsvYL2H4JiNfKlwH11c4wCd3J3Xa8X/lOvF6YtWyPs3Fsj9Pw4aaBh/FxNxLC0z/1fzgdgLRS4A3TM1yIA6Ib5aJAuhh1KArLQb/pvsBiX03jYi3NT6kyRHjvf82MDgDe7e1LKqSiAJbiI411wk53mnvemcfLtd9+n/1+FRSFbKmK7vr25um7Sbzb+Hvv1ee+/w6Jgre9HCAArdVckfvddPKvXCmn8tz5ON1n4Xndm79W/z39ZI9AileL2pUtPoDgUAwDAy+jgDtAR89Hgt+DCGORkuy4ib8P8dFeMpzskAGS2DgCaTRd3Wu5j4VpYFL1P6zFbRfF7XcCe9Orxr3uve34U8Fk6uK/uO1wHd3i+u3XC3frh/5749VSEvvXE2uPuiWr9R379hwfrBfD9zd33dmoG9YskYOV0cAfoGB3cATqg7pDclwRkJX3mJ234jRbjMl30P41zVfr9pm7u+358APAm6fv0QAzAEqQu7j8FBTi0013n1r+dY9Yd35O7Tq6v/Xd7ugEAdEPv3nq3Lw54UqW4fflippf1kyacYwAAvIACd4BuOBcBZOfH0JIC9zt1p9mD+WjQj8f3QRENALzWfvo+jd+tlSiAt7i9uZp9+933Z/X6HLomFY/0xQAAAM92LIKVuYzjUAwAAM/3lQgA2m0+GpwGRaKQo1TY1spOD6kYL47t+DIV0sz8KAHgVWxyBZbi9uZqEg9TSQAAAGRtEs8Pr8WwMh9EAADwMgrcAVpsPhr04uGdJCBb/Tb/5otxeRoPu6FlnegBoCF24vnAoRiAJRmKAAAAIFupGdGZGFbn9uaqCjaXAwC8iAJ3gHY7CYvHLQN5+rHtf4BiXE7jSMU0e3HoDAIAL3Pe1ie6AM1S32ivJAEAAJCln+N54VQMK6eLOwDACyhwB2ip+WjQj4dDSUDW9rvyBynGZRVH6uZ+HBadQgCAL0vF7UdiAJZEF3cAAID8TOO4EMNaTEQAAPB8CtwB2utEBJC9rflosN+lP1AxLtNF1O3gIh8APPu8IK4HemIA3qru1qeoAQAAIC/H8XxQ46H1nXdXkgAAeB4F7gAtNB8NDuOhLwkg+rFrf6BiXM7iSN0jU0f3yo8YAL7oXATAkpwFT1QCAADIRXV7c3UphrX6IAIAgOdR4A7QMvPRYCvo3g58st/VP1gxLq/j2IsvU7G7IhsAeGI9EM8T+mIA3qru2ncsCQAAgCwMRbD28+5JcM8LAOBZFLgDtM9RHD0xALWt+qkOnVWMy0k8bMdx4ccNAJ/1XgTAMtQ32ytJAAAAdNpZPP+bimEjJiIAAPgyBe4ALTIfDXrx8E4SwAM/dv0PWIzLWRypk+RuUGwDAI/pxfOFIzEAS6KLHwAAQHdNb2+uTsWwMT+LAADgyxS4A7TLSRxbYgAe2J+PBlnMDcW4vI5jL748iGPqRw8Afz9fyGVNAKxW3cXvTBIAAACdZFPz5s+5LyUBAPA0Be4ALTEfDfrxcCgJ4DOymh+KcZku/KVu7opuAOCTVNx+IgZgGepuflNJAAAAdMpFPN+rxLBxurgDAHyBAneA9lCoAjzlp9z+wMW4nMVxGl9ux1F5CwDAR0fz0aAnBmBJdPUDAADojlnQOKgR6k0G15IAAPg8Be4ALTAfDQ7joS8J4Ak7ca7YyfEPXozLaRx78WUaU28FAAjvRQAsQ33D/UISAAAAnTCM53kzMTSGLu4AAE9Q4A7QcPPRYCvo3g48z7uc//DFuKziSN3cU/cRF2gByFk/nkf0xQAsSVpfT8UAAADQape3N1eXYmiO+POYON8GAPg8Be4AzXcUR08MwDPs15tislaMy9N42I3DhVoAcqaLO7AUdXe/oSQAAABaa+q8rrHORAAA8DgF7gANNh8NeiHzjszAi6Ti9n0xfCxyn8ZxEF/uBd0vAMhTL55PHIkBWIbbm6sqHi4kAQAA0ErDevMyzTvfngT3sQAAHqXAHaDZTsKiYBXguWyKuacYl1Uc2/HlcRwu3gKQ3fmEp7sAS5S6yk3FAAAA0CoX9aZlmn2+DQDAAwrcARpqPhr04+FQEsAL7dTzB/cU4zJ1m0yF7hNpAJCRVNx+IgZgGepufweSAAAAaI3roHi6Defbk2BDOQDAPyhwB2guhSjAa/0kgn8qxuUsjmF8uRcWF3UBIAdH89GgJwZgGW5vrhRHAAAAtEPapDysNyvTfM61AQAeUOAO0EDz0eAwHvqSAF7pUCHb5xXjsopjN75Mxe4u7AKQg/ciAJbl9ubqNB4qSQAAADTaWb1JmXaca0+CLu4AAH+jwB2gYeajwVbQvR14u0MRPK0Yl5N42I7jQhoAdFw/nmf0xQAs0UGwWRQAAKCpLm9vrtz7aB9d3AEA7lHgDtA8R3H0xAC80bt6wwxPKMblLI7j+DJ1dK8kAkCH6eIOLE39iPuhJAAAABpn6nyttefak3jQdR8AoKbAHaBB5qNBLx7eSQJYglTcvi+G5ynG5XUce2Fx0XcqEQA6qBfPN47EACzL7c3VZfA0JAAAgKY5qDcl007HIgAAWFDgDtAsJ2FRlAqwrDmFFyjG5SQsurl7DCQAnVwbeMILsEy3N1fpxrvucgAAq2NDIfASw3ie5hyt3efZVfDEYQCAjxS4AzTEfDTox8OhJIAlSp1azSsvVIzLWRyn8eV2cBERgG5Jxe02wAHLlp6EpDsg8BJTEQA825m1FvBMk9ubq4kYOmEoAgAABe4ATaLQBDC3NEgxLqdxpGKdg+DmOwDdcTQfDXpiAJbl9uZqVq+ZAZ7rWAQAL1predok8CXX1lidmvun5n4AAAXuAI1Qd1juSwJYAV3c36gYl5fxsBt0SwKgO96LAFim+hHqiimA56jinHEpBoAXrbUuwqJ4FeAxHzcd1xti6I6L4J4UAJA5Be4AGzYfDbaCDsvAav0kgrcpxuUsjtOwKHR3Ix6AtuvH85C+GIBlqguvJpIAnpAKdIZiAHgVmwmBz9mrO37TrXNsa2cAIHsK3AE27yiOnhiAFVLEtiTFuJzGcRBf7sUxlQgALaaLO7B0tzdX6ea77qLA55wpvgJ49TqrCotuvgD3DeP84Bysu3N/arhUSQIAyJUCd4ANmo8GvXh4JwlgDRSxLVExLqs4tuPLs+ARkQC0Uy+ejxyKAViBPWtk4BHX9ZMeAHi9dC1yKgagdhHXVxMxdN7QOTYAkCsF7gCbdRLHlhiANVDEtgLFuDyNh1ToPpEGAC10HtcHzkeApaofo67IHXhoKAKApayzzKdAchnnhGMxZDH3T8NigxMAQHYUuANsyHw06MfDoSSANToRwfIV43IWR7qxlIp4PAoUgDZJxe1HYgCW7fbmKq2LFV8Bd47reQGAt6+zqnjwRAzIm/Ot/Ob+NO9XkgAAcqPAHWBzFJoC66aL+woV47KKYze+TF1TdKsEoDXnJXF90BMDsGy3N1eXQdEFEEJVF+QAsDypk+9UDJCl9Nnfq5/oQF7S+bWfOwCQFQXuABtQF5j2JQFsQCpi2xLD6hTjMt243w46KQHQHuciAFbh9uZqYl0MWUsFODa6ACx/jWV+hXzXVgeK27Od+6dhscEJACAbCtwB1qwuLNW9HdiUXhxHYlitYlzO4kid3FNH90oiADTcfjxP6YsBWIXbm6u0Lp5IArI0rAtxAFj+GqsKCh0hJ6moPXVuvxZF1nN/2kBeSQIAyIUCd4D1S4WlPTEAG/ROF/f1KMbldRx7waMjAWg+XdyBlbm9uUrr4UoSkJVJ/OxfigFgpWus03hQ7Ap5OFDczt17IbjfBABkQoE7wBrNR4NePLyTBLBhqbhdEdsaFeNyEg/bcVxIA4CG2onnK4diAFYo3YRXkAF5SJ/1YzEArG2NpdARum1YP7UB0uamNOcPJQEA5ECBO8B6nYRFYSnAph3OR4MdMaxPMS5ncaQb/KnQvZIIAA107ikvwKrUN+HT040UuUO3fSy4qT/zAKx+jTUNCh2hy9K6aiIGHsz96UlJGioBAJ2nwB1gTepC0kNJAA2ii/sGFONyGkcq7EndlaYSAaBBUnH7kRiAVVHkDlk4jp91n3GA9a6xUqHjmSSgcxS389Tcf+zcGgDoOgXuAOujkBRomv58NDgUw2YU4zLdeNoNbj4B0CwncX3QEwOwKorcodMuFGEBbGyNdRoPl5KAzlDcznOkc2tPTgIAOkuBO8AazEeD/XjoSwJooPM4R22JYTOKcTmL4zS+3A5uQAHQHCciAFapLnIfBjfioUuquoskAJuT1lc2EUIHPsuK23nBufWBJACArlLgDrAeurcDTZWK2xWxbVgxLqdxpIuQqdvGVCIAbNjhfDToiwFYpdubq+ug2xx0Rfo8K6wB2Pz6yiZCaD/F7bx07q/iwUZTAKCTFLgDrNh8NDiNh54kgAY7inPVjhg2rxiXVRypm/tZcCMKgM2yAQ5YOUXu0AkfiynrokoAmrG+sukI2klxO6+d+y/iwXsHAOgcBe4AKzQfDVJn5HeSAFrgvQiaoxiXp/GwG1yQBGBz+vF85lAMwKrVRVhp7XstDWilvfpzDEBz1ldVWHRyB9pDcTtvnfuHzqsBgK5R4A6wWudxbIkBaIGd+okTNEQxLqdxpAuSqaOli5IAbMJJvWkXYKVub66m1r3QSkPF7QCNXV9N4uFYEtCaNdVEDCyB82oAoFMUuAOsyHw06MXDoSSAFnlXz100SDEuqzhSR8t0Q8oj3wFYp7QuOBIDsA63N1dpretmPLSHQiyA5q+vLoInRII1FbmdV6fGSe4lAQCdoMAdYHXeiwBomS1zV3MV4zLdkNoObkoBsF7vdHEH1kWRO7TGRCEWQGvWV6nQ0ZwNzZPOfXatqVjBvH9dn1crcgcAWk+BO8AKzEeDfjz0JQG0UD/OYTq1NlQxLmdxpJtS6eJkJREA1iAVt5+LAViXe0Xul9KARprUxZIAtGd9pcgdmuXjOU9diAyrmPfTe+tAEgBA2ylwB1gNHZCBNjuZjwY7YmiuYlxWcaSiH4+aBGAdDq0NgHVKRe5xpJvxE2lAoyhuB2jv+irN3zYQwuZ97K6tuJ01zPtVWNxDAgBoLQXuAEtWdz7uSQJosdSp1UadFijG5SQetuO4kAYAK6aLO7B2dSHWmSSgERS3A7RfmscV1cLmKG5n3efUk6DIHQBoMQXuAEs0Hw1SUeiJJIAO2Ilz2qkYmq8Yl7M4juPL3TgqiQCwIv24NtgXA7ButzdX6bzEDXnYLMXtAN1YV6UnQaanQk6kARtZT+3Wn0NY59w/cU4NALSVAneA5Urd27fEAHTEyXw06IuhHYpxeR1HukF1EMdUIgCsgC7uwEbUN+TTWlcxCKyf4naAbq2rZvW8PpEGrM2Z9RQNOKf2HgQAWkeBO8CSzEeDXtC9Heie9/XTKWiJYlxehkU39zNpALBkvbguOBIDsAm3N1dVWBS5T6UBa6O4HaC7aytF7rB6aYPusH4qFWx63k9zvrU9ANAqCtwBlkc3Q6CLenG8F0O7FONyFsdpfLkdRyURAJboxOY3YFNub66uw2IzpzUurJ7idoDur60UucPqpOL2vbqoGJoy76f3ozU+ANAaCtwBlmA+GvTjYV8SQEft69baTsW4nMaRulweBJ0uAViOVNzuyVXAxtzeXM3iSGvciTRgZRS3A+Sztkrz/bEkYKnSxtzteoMuNG3eT+fS1voAQCsocAdYDgUeQNedz0eDHTG0UzEuL+NI3dzPwqJzDAC8xVFcF/TEAGxSXYzlpjws31BxO0B266oL6ypYmov4mdpNG3NFQYPn/UlYPB3N+xQAaDQF7gBvNB8NDuOhLwkgA7/EOW9LDO1VjMvTsLhoeSkNAN7oXATApt27KT+VBrxZKm4Z1p8rAPJdVyl2hLetpTwRgbbM++kJA3vmfQCgyRS4A7xBXeipezuQi14cv4ih3YpxOY3jICwuXE4lAsAr7cfzob4YgE2rb8qnYqxKGvBqqahlT3E7gHVVva66lga8yLW1FOZ9AIDlU+AO8DZHYVHwCZCL/nw00LG1A4pxWcWxHV+mjjI6dADwGjb7Ao1we3M1iyNt4DyTBrzYx6KWurgFAOuqaVg0xvAESHieSVgUt1tL0fZ5v5IGANA0CtwBXqnu3v5OEkCGjuIceCiGbijG5UU8pEL3iTQAeKG+NQHQJLc3V6fBI9bhJVLx4l5d1AIAd2uqtHkwPQHyWBrwWemc4yB+VobpMyMOOjDvp3PpC2kAAE2iwB3g9VIH4y0xALnOgfPRYEcM3VCMy1kcw7AoBtJpBoCXOKk3/wI0wu3NVRUWGzh1HYWnnaXiRQVZADyxrkqFjjYPwj/dPQHHOQddm/fTxqahJACAplDgDvAK89GgFw+HkgAylgrZflPQ1i3FuKzi2A2LC5huXAHwHOnc6EgMQJM86DpqXQt/lz4Te/UTDwDgS+uqKiw2D1bSgI/SJsFdT8Chw/P+JB7SfSLvcQBg4xS4A7zOexEAKHLvqmJcTsLixpXHUQLwHO+sB4Amutd11FOKYOGu22glCgBesKZKmwfTmupMGmRsWq+jTkVBBvP+x/OG4MloAMCGKXAHeKH5aNCPh74kAD7aCTb9dFIxLmdxpI6X6SJmJREAnpCK28/FADRRujGfOiwGBVmg2ygAb11XnYbFtUKbB8lN2ji7Wxf9Qi5z/v0nowEAbIQCd4CXU8gJ8Hf789HA3NhRxbi8jiN1aBqGxaPsAeAxh3E90BMD0FQKssjYNI493UYBWNKaKq2l0rVCT34kp3XUcSr2FQeZzvsX9bn0VBoAwLopcAd4gflocBgPPUkA/EMqajsSQ3cV43ISD9tB50sAPs+GN6DRFGSRocuw6DZaiQKAJa6pUlff43pdNZUIHZWefrNtHQX/O5fedS4NAKybAneAZ5qPBlvxcC4JgM86rzcC0VHFuJzFcRoWhe6VRAB4oB/XAn0xAE2mIItMpA6jB/G9fqDbKAArXFdVYVHwqCEGXZLe19uefgNPnks7xwAA1kKBO8Dzpc7EW2IAeNJ7Re7dV4zLaRzpIuZBUBQEwN/ZFAy0QirISh0Zg4Isuid1bU9FWZeiAGANa6pZXQicCt0ridBiqWB3GN/Pe3FMxQGfP5cOiyZIurkDACunwB3gGeajQS8e3kkC4Fne696ah2JcfnzcfVgUBenYAUCyY7Mb0CYKsuiQaRx7urYDsKE11XUqDI4vh8F1QtonXd9OGwQnooBnzfmejAYArIUCd4DnOQm6twO8xC/z0WBHDN1XjMtZHKdhURSkQyAAd+dPAK2hIIsOSEVZu3U3RQDY5LpqEhadfT0lhza4e/LNqQ2C8Ko5P51/7JrzAYBVUeAO8AV19/ZDSQC8SNoU9Jsi93wU43Iax0HQsQOAEHpxDXAqBqBt7hVkedQ6baEoC4Amrqlm9VNy0rpqIhEaqAqfnnwzFQcsbc6vJAIALJMCd4Avey8CgFdR5J6hYlxWcdx1aVJgAZCvd3EN4ClYQOvce9R66kJXSYSGug6KsgBo/rpqGsfQuooGSeumYXp6kyffwErm/NQASRMkAGBpChEAfN58NOjHw2+SAHiTVOS8V4zLa1Fk9z2aChvPgyehAOTqIn7/H4sBaLNvv/t+v17T9qRBA0zjOKufNtD2z9bcjzMLCgh9hnij+BkqOvS+7cfDSRx9P1msoaDza5Wjes7XAIN1OqufKPDa9+1raoOO43/zOv6zqeHb+b2/fl03UHjqv5c+H788WPvt+TECfKKDO8DTzkUA8GY6uWeqGJezOFKXpnQxxgYHgPwcxe//nhiANru9ubqMIz2hKK1rpxJhQ9LG8XTTfFthFgAtXldV97r7VhJhDdL6fWgNBRuZ8y/iwdN+aZv+K8bdJo6tB3/96Nvvvu994b+3/8i/D4B7FLgDfMZ8NDiMB8WYAMuhyD1jxbis4kiPIk6dClzIBMjLiQiALqgLYtKa1s151mlWv+e26wIRAOjCukqhO6s2DQrboQnz/azupq3QnVztf+HX34kI4GkK3AE+TyEGwHIpcs9cMS7vOnZMpAGQjUPf/UBXuDnPGk3D4qkBqSjrNL33RAJAB9dWCt1ZyRpKYTs4l4ZX2ntk3Hf8yK8/9QTrnz73C3V3d9fNAb6gEAHAP81Hg6N4OJcEwEp8fLR6MS4nosj6u3an/q7tSwOg89KTPPbEAHTNt999nzbxpmtIqePWlkRYgmkcZzkUZMXPz9yPOwt7qYBVDD5DvF78DBUZva/7YdF8qu8nzwtV9RrKdw44lyZvZ/VmilWtuz97flOvY3575Jd24z9z/cjffxoeabqZ09oP4Dl0cAd4YD4abAXd2wFWKc2z7+N8eyiKfBXj8roudkxdCXXrAOi2fvze74sB6JoHXehSF6+pVHilKo4D3UYByHxtddfR3RMgeY5Z/T5J6ycbqqCF59JxfBMW94icS9NlP73wrwNwjwJ3gH9Ku4XtFAZYPUXuhLqTf7ppdSENgE6ziRjorPrm/EUqTg6Lm/PXUuGZ0vnQbl2UdSkOAPi4tprGkdZUqfDxLCh85O/S+yFtLk2F7cP0fhEJtHrOn9Tn0mmDk3MiuvZ9lew//IVvv/s+PeW69+DvA+ARCtwB7qm7t7+TBMDapCL3czHkrRiXszg+3pQIi86FAHSPLu5AFuqb87vBzXk+bxoWRVnf1EVZNkQAwOPrqrsOv3ebCCupZG2S1tj1E2/S5lJPBYVuzfnpKR4H4VNDJJ9x2u7umlDv2+++f1jkfr8m6WdRAXyeAneAv0tdBXVvB1ivo/lo8F4MFONyGkcqBEoXMacSAejk+RZAFh7cnE+dR92cZxIUZQHAa9dWaRPhXvhU+DiVShbSRsCP3fzrjYGVSKDz8316isdxHOkpHumc2sZxXqJJ64MP917/+ODX9u/9fm16B3iCAneA2nw06MXDkSQANuIwzsN/1E/SIHPFuEwXLFPXyzNpAHSKLu5Aduqb86f1zflUnOPmfF4UZQHA8tdWx3VX91T4OJFK50zDYhND2hS4W29usDEQ8pzzL+uN4+l8+jgoBOZxl/fOuycNev9eh08F9//r4F53c9+693sH4AlfiwDgf3QTBNisnTh+m48Gw2JcukiVufgeSDctTuP7YRKP5+HexR8AWn/eVYkByFF9o3Xy7Xff9+r1bXokdU8ynTMNi5vUP6ciPHEAwMrWVun79jKurY7rtdWPwTXEtq+fPtQFgQD35/t0vyhtfLm4dz79U1jcVyRP6Tvj13Rs+Cao1MU9XQ/fiu/dw/q60I8Pfl3zN4AnFCIA+F/39j8lAdAI6ULEQTEuK1Fw77u6Hw/vgwIggC7Y8z0PsPDtd9+nG/Lpxvy+tW6rTYOirJe+9+dSyGPd58kFPkO8TfwMuZ//ss/GVlDs3hZpzVRZPwFvmPN7QbF7LmbhU1F7tc6i9gfr7s+e38S/rx8Pv91fw9Xv0bs6pLtO83/dfQ+mJ5U89s/5cQN8ooM7wMJ7EQA0RroJkTq5Hxfj8kIcJHUh5HZ8X5yGRadLHQ0A2ksXd4BaXcyTxnH9mOpUjNUPit3bYBoUtQObYz0Nj6+tUsHbJCyemnNX7P5DfXQ9cfPS2un3sOi4OxUH8MY5P80jd53dzfndXO/efWdct/U9Gt+b6fe+U78vf7/3yx/8iAG+zK4fIHt1R9jfJAHQSJM4UqH7TBTc++7uxcN50IUJoM224/f7VAwAj9PZvbGq8Okx6L7H3vYeP5VCFiY+K0DD1ld3xY99iazFXZf23+P3waU4AHM+z/nOCGvu0v6F99KrO7jXf/0oLO5pJunPdLf5YrsugH/0nwNgwaQIZG8+GqRHAvUkAdBY6YLGgSI4HvkO74fFRSGPngRon0n8bh+KAeDL7j12/a4THes9H61Cw26wAwBvXl+l4rJ++FT46PqitRPQ7Xm/f2/eT3O+Du++M5773nlrgXt6r/314G9Pf969p/45ABZMikDW5qPBYTy8lwRA46WLGsNiXOrywmPf56n7wUlwQRKgbXRxB3iFBzfm+xJZqut63N1g9z0FAPmtsf5dH11rfNq0Xjf9p143VSIBWjTnpyL3nfCp4N1Gp9VK93mrNn5nvLXAvf61X8LfGxYM469PvvTPARDC1yIAMnciAoBWSDcTfpmPBgeK3Hkovicu4ntjEhbd3A8lAtAa7+I4FgPAy9Q3U6u7/6/g/U1SjqmY/WPnOF1GAcAa694aqxc+FT3+uz72Ml4zTeP4b/362roJaPmcf7e5efLg3Lp3b87X6f11pvW4O9e+tnk8/Br+XuDuXjfAM9n1A2RrPhqkBeQvkgBohXSi/3MxLitR8IXv935YbGDrSwOg8dLN8NTF3U1xgCW614nu7qa8tfHiO+eugCF1jLuuCxoAAF661kprq6176627120vgryu10y/1/+/imOqKBHIfM6/m+Pv5vkf7s37uZuGT0/z+G/4VMw+69h7YBkd3NN75s/6vXMZf+3gOf8cADq4A3l7JwKAxpvEcVaMy6koeI56E0Q1Hw0Ow6Kju+4aAM2V5ug0X1+IAmB57nWi+5+66L0XPhVi3b3umvuF7P8XFGYBAMtfa1X1y390X63XXFv1WqtX/+W7Ivi78+B1rsHuitbv1kn/ebBmCp8r1APg4xw5q88rq0fm/PsbnO7m9h/q4/3vgbafXyf3Nz/NMtswfnbv9VPXFqYP/t6/vY/i++W4fk9cPvefA0AHdyBT89EgnWD8IQmAxpoEhe28/fv+rnAybWrrSQSgkabx+35bDACb8e133/fCpxvvafyrPja1I920HvcLtKr0P4qzAIAWr8meWnv9r5DwXgH9fZ3rlgvQ0fPu8Jlz7X+FL9/D6r/xt3F/w9P9v/Z/D861P762SRyAplDgDmRpPhq8D4uCNwCaZRIUtrOa7/70vX8SFLoDNNEwfvdPxADQTA8KqXqPrKnvdyV9qfs31O+r7r12cx0AAAAAIDMK3IHs1N1c/wyvv/EGwPJNgsJ21rMGOAqLju7WAQDNUcU1wJ4YAAAAAAAAgESBO5CduoPre0kANEIVx3ExLq9FwRrXAr14OI9jXxoAjbFtoxsAAAAAAACQfCUCIEPvRACwcdM4DlK3VsXtrFsqoIzjIL7cq9+LADhPAwAAAAAAABpCB3cgK3XH1j8lAbBRF3GcFeNyJgoasj44jIeTOHrSANiYWVwbfCMGAAAAAAAAQAd3IDf7IgDYmNSpPXVsP1bcTpPE9+MkHnbDYvMFAJuxNR8NnK8BAAAAAAAACtyB7PwoAoC1S8XsqWP7bhyVOGiitOkibb4Ii0J371OAzfhJBAAAAAAAAEAhAiAX89FgKx7+kgTAWl3GkTq2T0VBy9YNR/FwEseWNADW6htPegEAAAAAAIC86eAO5MTj7gHWZxrHXjEuDxS300bxfXsRD9txTKQB4LwNAAAAAAAAWB8F7kBOfhABwFqcxbFbjMtKFLRZ6iAcxzC+3IvjWiIAztsAAAAAAACA1StEAORiPhr8GQ89SQCsTBXHUMd2OryWOIqHkzi2pAGwMmlz0TdiAAAAAAAAgHwpcAeyMB8NevHwpyQAVmIax3ExLi9FQQZrilTcfh7HoTQAViY9CcaTMwAAAAAAACBTX4kAyMSOCABW4iwsitAUt5OF+F5PnYWH8eVeHIovAVajLwIAAAAAAADI19ciADLxgwgAlqqKY1iMy6koyFF876fPwO58NDgMi47uW1IBWJp/iwAAAAAAAADypYM7kAsd3AGWYxrHQTEu9xS3w8dC90k8bMdxIQ2ApemJAAAAAAAAAPKlwB3IhQJ3gLc7i2O3GJeXooBP4mdiFsdx+nyExdMNAHibvggAAAAAAAAgX4UIgK6bjwa9ePhTEgCvVsUx1LEdnr322I+H86ADMcBbbFt7AAAAAAAAQJ50cAdy0BMBwKtM4zgoxuWeAjN4vvopB6mb+5k0AJzHAQAAAAAAAC+jwB3IwY4IAF4sFebu1oW6wAvFz84sjtP4cjsOnyMAAAAAAAAAgGf6WgRABrZEAPBsVRxDHdthOerP0sF8NOjH4/ugIzHAc/XrdQkAAAAAAACQGQXuQA5+EAHAF03jONaxHVYjfraqeNiejwZH8XgSbMADAAAAAAAAAHjUVyIAAMjeWRy7itth9eLn7CIetuO4kAYAAAAAAAAAwD/p4A7kYEcEAI+q4hgW43IqClif+JmbxcPxfDT4EI/ncfSlAgAAAAAAAACwoMAdyMGWCAD+ZhoWhe2VKGBz4mfwOh725qPBflgUuvekAgAAAAAAAADkToE7AEA+Utfon4txeSoKaI74mbyMh8v5aJA+m++CzXkAAAAAAAAAQMa+EgEAQBZSAe2u4nZorvrzuRvHRBoA4VoEAAAAAAAAkCcd3AEAum0ax7AYl5UooPniZ/XjZ3Y+GnyIx5M4+lIBMjUTAQAAAAAAAORJB3cgB1MRABlKRWHHxbjcVtwO7ZM+t3HsxZdDaxkgUzq4AwAAAAAAQKYUuAM5mIoAyMwkjlTYfiEKaLf4OU6f5904zoJuxkBe8585DwAAAAAAADKlwB3Igc5/QE7z3V4xLoeKwqA70uc5jtOwKHS/lAiQgUoEAAAAAAAAkK+vRQBk4P9EAHRcKmY/rjs9Ax0VP+PTeDiYjwb9eDyPY0cqQEdNRQAAAAAAAAD50sEdyEElAqDDLuLYVtwO+Yif9yqO1M19GBYbXAC65r8iAAAAAAAAgHwpcAdyMBUB0EFVHLvFuEyd2xW4QobqjS3bcZxJA+jgOgcAAAAAAADIVCECIAfz0WAuBaAjpnGkovZLUQD31jq9eDiPY18aQAd8YwMfAAAAAAAA5EsHdyAXlQiADkhdmncVtwMPxXlhGsdBfLkXx7VEgBabKW4HAAAAAACAvH0tAiATqdCrLwagpVJBe+raPhUF8JQ4T1TxsDsfDQ7DoqP7llSAFp67AQAAAAAAABnTwR3IxX9EALTQNI691JVZcTvwEnHOmMTDdlg8+UEnZKBNfhcBAAAAAAAA5E2BO5CLSgRAi6Ri1NSxfbvuxgzwYnH+mMVxGl/uxjGRCODcDQAAAAAAAGiDQgRALuajwV/xsCUJoOEmYVHcruMysOy1UD8eTuLoSwNosG+sgwAAAAAAACBvCtyBbMxHg1/iYV8SQENVcZzp2A6sYU10GBaF7j1pAA1zHddCu2IAAAAAAACAvH0lAiAjv4sAaKDUoXRYjMs9xe3AOsS5ZhIPqYD0rJ6DAJrCWggAAAAAAABQ4A5kpRIB0DCpuHS7LjYFWJs478ziOA2LQndzENAUNiUDAAAAAAAAoRABkJP5aPBXPGxJAtiwKiy6tk9FATRkjbQTD+dx9KUBbNA3aQOOGAAAAAAAACBvCtyBrMxHg1/iYV8SwIZMw6KwvRIF0NC1UlonpUL3njSANaviGmlPDAAAAAAAAMBXIgAy86sIgA1InUjPinG5rbgdaLI4R12muSrNWfXcBbAuv4sAAAAAAAAASBS4A7mpRACs2SSOVNh+KgqgLeo5a7uewwDW4VIEAAAAAAAAQFKIAMjNfDT4Ix52JAGsWBUWXdsrUQAtXzv14uF9HH1pACsyrZ8eAQAAAAAAABC+FgGQoSoocAdWZxbHcTEuJ6IAuiDOZ9N42JuPBv2wKHTvSQVYwTkaAAAAAAAAwEdfiQDI0AcRACtyFse24nagi9ITKeoOy8Ow2MwDsCy/igAAAAAAAAC4U4gAyNF8NPgz6D4KLE8Vx7DucgyQw1pqKx6O4jiRBvBGs7iG+kYMAAAAAAAAwB0d3IFcXYoAWIJpHHvFuNxT3A7kJM55qSD1NL7ctq4CnJsBAAAAAAAAy6TAHcjVBxEAbzCL46wYl9txVOIAcpU298RxEF/uhcXTLACcmwEAAAAAAABvUogAyNV8NPgzHnqSAF5oEsdx6l4sCoB/rK8O4+HEGgt4prRJZlsMAAAAAAAAwH06uAM5+1kEwAtUcewV43KouB3gcXF+nMTDbhxnYfG0C4CnXIoAAAAAAAAAeEgHdyBb89GgFw9/SgL4gmkcZ3XRJgDPX2ttxcN5HIfSAD5jO66xpmIAAAAAAAAA7lPgDmRtPhr8Eg/7kgA+I3UgvtCxHeBN662dsCh070sDuKeKa6w9MQAAAAAAAAAPfS0CIHO/BgXuwD9dxnGsoyjA28W59Doe9uajQT8e38fRkwoQfRABAAAAAAAA8Bgd3IHszUeDv+JhSxJANI1jWIzLShQAK1t7HYZFR3frL8jXLK63vhEDAAAAAAAA8JivRAAQfhYBZG8WFh3btxW3A6xWnGcn8bAdx5k0IFsTEQAAAAAAAACfo8AdQHEF5O4ijlTYfiEKgPWIc27q3nwaFoXu1mKQH5uMAQAAAAAAgM8qRAAQwnw0eB8Ph5KArFRh0bX9WhQAG1+L9ePhJI6+NKDzJnH9NRQDAAAAAAAA8Dk6uAMsfBABZGMax0ExLvcUtwM0Q5yPqzQvx5fDep4GnHsBAAAAAAAAmfr/ArB3N8dtZFcYQB9U3pshgBGYjMDQtjemIjC47BXJCChGQHKFJTERCN5gy54IBo7A7QyQQfu96aal0YgzIIif/jmn6lazZiV9lKg7VV9fuOAO0Kjy7Dm4Ggp9to7zOJotP4sCoPV7WfpZfRXnRBrQKy8vswAAAAAAAAC8ygV3gK/uRAC9NY9zrtwO0A3Nz+vTOA/SAP/PBQAAAAAAAAyLC+4A33DFHXqniHM3mi0LUQB0dj8bx8eTHQ26v5e53g4AAAAAAABs4i8iAPiNn4LyFPTBOs7NaLaciwKg2+LP8jI+PlZ5lna0+zhnUoFOcr0dAAAAAAAA2IgL7gDfqfLsl6A4BV2WylMPo9lyLQqAXu5q0/i4jTOWBnSG6+0AAAAAAADAxj6IAOB3bkQAnbSIczqaLT8rtwP0V/PpHOehfqHJz3voBtfbAQAAAAAAgI254A7wA1WePcfHRBLQCWWcy9FsWYgCYHA720l83MeZSgNay/V2AAAAAAAA4E0U3AF+oMqzSXw8SwJaLV3tvRvNlg+iABj87jaOj6fgBUVoo/O4r63EAAAAAAAAAGxKwR3gFVWefYmPC0lAK6VSeyq3r0UBwDf72yTURfexNKAV5nFfuxQDAAAAAAAA8BYK7gCvaC6B/kcS0CpFnMvRbFmKAoA/2OOm8XEf50QacDTpRcRTLyQCAAAAAAAAb/VBBAA/1hRoHyQBrZD+Pn6Kfy8/KrcDsMEeN4+P0zh3oS7ZAof3qNwOAAAAAAAAbMMFd4A/UOVZuvqZrri7/gnHkUpRqRz1WRQAbLnPjePjNs5UGnAwZdzfTsUAAAAAAAAAbMMFd4A/0FwcvJEEHMU8zqlyOwDv3OdS0fYyfnkep5AIHMSlCAAAAAAAAIBtueAOsIEqz57jYyIJOIgizs1otlyJAoA97HVpp3uKM5YG7MW8eakEAAAAAAAAYCsK7gAbqPLsLD5+kQTsVRnqYvtCFAAcYL+bxsd9nBNpwM6kT8A6bT4JCwAAAAAAAGArH0QA8OeaS9J3koC9WDd/v86V2wE44H43j4/T5t8gZVzYjUvldgAAAAAAAOC9XHAHeIMqz9IV9zNJwM7M49yNZstSFAAccccbx8dtnKk0YGuLuNN9EgMAAAAAAADwXgruAG9Q5Vkqt/8iCXi3ItTF9kIUALRs17uPM5EGvEm62n7qejsAAAAAAACwCwruAG9U5dnnUF/4BN6uDHWxfS4KAFq8703i4ynOWBqwkY9eXAQAAAAAAAB2RcEdYAtVnqUr7meSgI2la56PcR5c9gSgQzvfNNQX3U+kAa9K+92NGAAAAAAAAIBdUXAH2EKVZ6nc/hyUnWATizg3o9myFAUAHdz70r53HefK7ge/s4o73rkYAAAAAAAAgF1ScAfYUnPR80kS8KpVqIvthSgA6MHuN46P2zhTacCv0qfynHuJEQAAAAAAANg1BXeAd6jy7Et8XEgCfiOVnVKxfS4KAHq4/6VP8rmPM5EGA/cp7nsLMQAAAAAAAAC79kEEAO9yGeor1UDtLs6pcjsAfRX/jVvF+Ri/TFNKhKHufMrtAAAAAAAAwL644A7wTs0Vz+c4J9JgwFLBKV1tL0UBwMB2wWmoL7rbBRnM3hd3vk9iAAAAAAAAAPZFwR1gB5pi05MkGKD0CQap2F6IAoAB74Kp3H4d5yooutP/3e9j3P3WogAAAAAAAAD2RcEdYEeqPEuXO68lwUCkUlMqts9FAQD/3wdTuT3thFNp0NP979wn9gAAAAAAAAD7puAOsENVnj3Hx0QS9NxdnAeXOwHg1Z1wHOpP97EX0hdp70uX21eiAAAAAAAAAPZNwR1gh5qrnankfiYNemgR6qvtpSgAYKPdcBLqi+52Q7ruU9wBF2IAAAAAAAAADkHBHWDHqjxLBaZUcj+RBj2RLnWmYnshCgDYaj+cxsdtnLE06KDLuAfOxQAAAAAAAAAcioI7wB4oudMT61AX2+eiAIB374dpL7yOc2VHpEOU2wEAAAAAAICDU3AH2JPmUueTJOiouzgPo9lyLQoA2OmOmMrt6Zr7tTRoOeV2AAAAAAAA4CgU3AH2SMmdDlqE+mp7KQoA2OueOI6P+zgX0qCF0ouON2IAAAAAAAAAjkHBHWDPqjxL1znvJUHLrUJdbC9EAQAH3RUnob7oPpEGLaHcDgAAAAAAAByVgjvAAVR5lq64TyVBC61DXWyfiwIAjrovpl0xFd3H0uCILu2FAAAAAAAAwLEpuAMciJI7LXQX6guda1EAQGt2xvTpP6nofiINDky5HQAAAAAAAGgFBXeAA1JypyUWob7aXooCAFq5M6Zy+0vRHQ5BuR0AAAAAAABoDQV3gANTcueIVqEutheiAIBO7I3jUJfc7Y7sk3I7AAAAAAAA0CoK7gBHoOTOgZVx7hSXAKCzu+NZfNzHmUiDHVNuBwAAAAAAAFpHwR3gSJTcOYB1nMc4D6PZci0OAOj8/jiJj7RDjqXBDii3AwAAAAAAAK2k4A5wREru7NE81FfbS1EAQO92yLQ/3gZFd7an3A4AAAAAAAC0loI7wJEpubNjRaiL7YUoAKDXO+RJfFzHuYpzIhE2lD7V50a5HQAAAAAAAGgzBXeAFlByZwfKUBfb56IAgEHtkancnq65X0uDP5HK7R/jvrgSBQAAAAAAANBmCu4ALaHkzpZSUelxNFt+FgUADHqXHMfHfZwLafADZZxPyu0AAAAAAABAFyi4A7SIkjtvNI9zM5ot16IAAJp9chLqi+4TadBIpfaPdkYAAAAAAACgKxTcAVqmyrPrUF/fhNcUoS62u8AJALy2U140O+VYGoM2D16IBAAAAAAAADpGwR2ghao8m8bHkyT4ThnqgtJCFADAG/bKVHQ/kcbg3MW98bMYAAAAAAAAgK5RcAdoqSrPJvHxJSgjEUK6uJkKSg+iAAC22CvTPpk+JejKbjmY3fHSS5EAAAAAAABAVym4A7RYlWdnoS65j6UxWKnUnsrta1EAAO/cLVO5PV1zn0qjt1ahLrevRAEAAAAAAAB0lYI7QMs1RaRUcp9IY1DSxc2b0WxZigIA2PF+OQ510f1CGr0yb/ZHL0YCAAAAAAAAnabgDtARVZ6lEtK1JHovXdtMxaRCFADAnvfLSXzcBi9Sdt262R/nogAAAAAAAAD6QMEdoEOqPEtXNp/inEijd8o4d4pJAMCRdsz0MuVYGp2TXo68jDvkShQAAAAAAABAXyi4A3RMlWfj+PgS50wavZAubj7GeRjNlmtxAABH3DOnoS66e5myG9LLkZ/FAAAAAAAAAPSNgjtAR1V5lspH15LotHmcG8V2AKBFO+ZJs2NeBUX3tnK1HQAAAAAAAOg1BXeADqvybBIfT3HG0uiUItSlpFIUAEBL98xUbk8vVE6l0SqutgMAAAAAAAC9p+AO0HFN+SiV3C+k0Xrpyma62F6IAgDoyK45jo/boOjehj3S1XYAAAAAAABgEBTcAXrCNfdWK0N9bXMuCgCgw7tmKrpPpHFQ62aPfBAFAAAAAAAAMBQK7gA90lxzT8Wja2m0QiokPcZ5GM2Wa3EAAD3YNyfxcR/nTBp7Nw/1p//YIwEAAAAAAIBBUXAH6KEqz1LhKBWPJtI4mnlQSAIA+rtvTkP9YuVYGjtXNHvkShQAAAAAAADAECm4A/RYUzxKRfcTaRxMEedyNFuWogAABrBvpk8OurVv7kTZ7JGFKAAAAAAAAIAhU3AH6Lkqz1LZ6KV4xP4Uce4UkgCAAe+bV0HRfRtls0fORQEAAAAAAACg4A4wGFWejUNdcp9KY6fKODej2XIhCgBg4Pumovvb90jFdgAAAAAAAIDvKLgDDIyi+86UQSEJAOBH+6aiuz0SAAAAAAAAYGsK7gADpei+tXWcxzgPo9lyLQ4AgFf3TUX33ypCXWwvRAEAAAAAAADwOgV3gIFTdN+YYjsAwHb75pCL7mlvXIS62F760wAAAAAAAADw5xTcAfiVC5uvKuPcxVkotgMA2Dc3tAr1y5F2SAAAAAAAAIA3UnAH4HeqPJvGxz/jTAYcQxnqS5tzfyIAAPayb6ZPERr3bH9M19ofXWsHAAAAAAAA2J6COwCvqvLsLNRF92kYzlX3ItSlpIU/AQAAe983L0J90X3S0d9CGepS+09xf1z5jgIAAAAAAAC8n4I7ABtpykep7H7R09/iPNTFpMJ3GwDg4LvmONRF92lo/4uVqcheBKV2AAAAAAAAgL1QcAfgTao8S4WjVHL/R+h+2X0d6mJ7uthe+u4CALRi32zbi5VpTyzi/Jye9kYAAAAAAACA/VJwB2Br35Td/948TzryS0+XNh/jLEaz5dp3EgDArvndrphGoR0AAAAAAADgCBTcAdiZKs/OwtcS0qRlv7xUZF+E+lr7yncLAKCTu+ak2TXT1+Md7IcvZfb/pmfcEwtJAwAAAAAAAByXgjsAe9Fc3Py2hDQ5wi/jpdT+r9FsufBdAQDo3c75smO+PP/a7KDf74T/br5OZfa1IjsAAAAAAABAeym4A3AwzdXNNH8LX8vvu1bE+TnOwqV2AAAAAAAAAAAA6BYFdwCOqsqzcXykmYSvFzdf/ttrymZernGmr1cK7QAAAAAAAAAAAAAAAAAAAAAAAAAAAAAAAAAAAAAAAAAAAAAAAAAAAAAAAAAAAAAAAAAAAAAAAAAAAAAAAAAAAAAAAAAAAAAAAAAAAAAAAAAAAAAAAAAAAAAAAAAAAAAAAAAAAAAAAAAAAAAAAAAAAAAAAAAAAAAAAAAAAAAAAAAAAAAAAAAAAAAAAAAAAAAAAAAAAAAAAAAAAAAAAAAAAAAAAAAAAAAAAAAAAAAAAAAAAAAAAAAAAAAAAAAAAAAAAAAAAAAAAAAAAAAAAAAAAAAAAAAAAAAAAAAAAAAAAAAAAAAAAAAAAAAAAAAAAAAAAAAAAAAAAAAAAAAAAAAAAAAAAAAAAAAAAAAAAAAAAAAAAAAAAAAAAAAAAAAAAAAAAAAAAAAAAAAAAAAAAAAAAAAAAAAAAAAAAAAAAAAAAAAAAAAAAAAAAAAAAAAAAAAAAAAAAAAAAAAAAAAAAAAAAAAAAAAAAAAAAAAAAAAAAAAAAAAAAAAAAAAAAAAAAAAAAAAAAAAAAAAAAAAAAAAAAAAAAAAAAAAAAAAAAAAAAAAAAAAAAAAAAAAAAAAAAAAAAAAAAAAAAAAAAAAAAAAAAAAAAAAAAAAAAAAAAAAAAAAAAAAAAAAAAAAAAAAAAAAAAAAAAAAAAAAAAAAAAAAAAAAAAAAAAAAAAAAAAAAAAAAAAAAAAAAAAAAAAAAAAAAAAAAAAAAAAAAAAAAAAAAAAAAAAAAAAAAAAAAAAAAAAAAAAAAAAAAAAAAAAAAAAAAAAAAAAAAAAAAAAAAAAAAAAAAAAAAAAAAAAAAAAAAAAAAAAAAAAAAAAAAAAAAAAAAAAAAAAAAAAAAAAAAAAAAAAAAAAAAAAAAAAAAAAAAAAAAAAAAAAAAAAAAAAAAAAAAAAAAAAAAAAAAAAAAAAAAAAAAAAAAAAAAAAAAAAAAAAAAAAAAAAAAAAAAAAAAAAAAAAAAAAAAAAAAAAAAAAAAAAAAAAAAAAAAAAAAAAAAAAAAAAAAAAAAAAAAAAAAAAAAAAAAAAAAAAAAAAAAAAAAAAAAAAAAAAAAAAAAAAAAAAAAAAAAAAAAAAAAAAAAAAAAAAAAAAAAAAAAAAAAAAAAAAAAAAAAAAAAAAAAAAAAAAAAAAAAAAAAAAAAAAAAAAAAAAAAAAAAAAAAAAAAAAAAAAAAAAAAAAAAAAAAAAAAAAAAAAAAAAAAAAAAAAAAAAAAAAAAAAAAAAAAAAAAAAAAAAAAAAAAAAAAAAAAAAAAAAAAAAAAAAAAAAAAAAAAAAAAAAAAAAAAAAAAAAAAAAAAAAAAAAAAAAAAAAAAAAAAAAAAAAAAAAAAAAAAAAAAAAAAAAAAAAAAAAAAAAAAAAAAAAAAAAAAAAAAAAAAAAAAAAAAAAAAAAAAAAAAAAAAAAAAAAAAAAAAAAAAAAAAAAAAAAAAAAAAAAAAAAAAAAAAAAAAAAAAAAAAAAAAAAAAAAAAAAAAAAAAAAAAAAAAAAAAAAAAAAAAAAAAAAAAAAAAAAAAAAAAAAAAAAAAAAAAAAAAAAAAAAAAAAAAAAAAAAAAAAAAAAAAAAAAAAAAAAAAAAAAAAAAAAAAAAAAAAAAAAAAAAAAAAAAAAAAAAAAAAAAAAAAAAAAAAAAAAAAAAAAAAAAAAAAAAAAAAAAAAAAAAAAAAAAAAAAAAAAAAAAAAAAAAAAAAAAAAAAAAAAAAAAAAAAAAAAAAAAAAAAAAAAAAAAAAAAAAAAAAAAAAAAAAAAAAAAAAAAAAAAAAAAAAAAAAAAAAAAAAAAAAAAAAAAAAAAAAAAAAAAAAAAAAAAAAAAAAAAAAAAAAAAAAAAAAAAAAAAAAAAAAAAAAAAAAAAAAAAAAAAAAAAAAAAAAAAAAAAAAAAAAAAAAAAAAAAAAAAAAAAAAAAAAAAAAAAAAAAAAAAAAAAAAAAAAAAAAAAAAAAAAAAAAAAAAAAAAAAAAAAAAAAAAAAAAAAAAAAAAAAAAAAAAAAAAAAAAAAAAAAAAAAAAAAAAAAAAAAAAAAAAAAAAAAAAAAAAAAAAAAAAAAAAAAAAAAAAAAAAAAAAAAAAAAAAAAAAAAAAAAAAAAAAAAAAAAAAAAAAAAAAAAAAAAAAAAAAAAAAAAAAAAAAAAAAAAAAAAAAAAAAAAAAAAAAAAAAAAAAAAAAAAAAAAAAAAAAAAAAAAAAAAAAAAAAAAAAAAAAAAAAAAAAAAAAAAAAAAAAAAAAAAAAAAAAAAAAAAAAAAAAAAAAAAAAAAAAAAAAAAAAAAAAAAAAAAAAAAAAAAAAAAAAAAAAAAAAAAAAAAAAAAAAAAAAAAAAAAAAAAAAAAAAAAAAAAAAAAAAAAAAAAAAAAAAAAAAAAAAAAAAAAAAAAAAAAAAAAAAAAAAAAAAAAAAAAAAAAAAAAAAAAAAAAAAAAAAAAAAAAAAAAAAAAAAAAAAAAAAAAAAAAAAAAAAAAAAAAAAAAAAAAAAAAAAAAAAAAAAAAAAAAAAAAAAAAAAAAAAAAAAAAAAAAAAAAAAAAAAAAAAAAAAAAAAAAAAAAAAAAAAAAAAAAAAAAAAAAAAAAAAAAAAAAAAAAAAAAAAAAAAAAAAAAAAAAAAAAAAAAAAAAAAAAAAAAAAAAAAAAAAAAAAAAAAAAAAAAAAAAAAAAAAAAAAAAAAAAAAAAAAAAAAAAAAAAAAAAAAAAAAAAAAAAAAAAAAAAAAAAAAAAAAAAAAAAAAAAAAAAAAAAAAAAAAAAAAAAAAAAAAAAAAAAAAAAAAAAAAAAAAAAAAAAAAAAAAAAAAAAAAAAAAAAAAAAAAAAAAAAAAAAAAAAAAAAAAAAAAAAAAAAAAAAAAAAAAAAAAAAAAAAAAAAAAAAAAAAAAAAAAAAAAAAAAAAAAAAAAAAAAAAAAAAAAAAAAAAAAAAAAAAAAAAAAAAAAAAAAAAAAAAAAAAAAAAAAAAAAAAAAAAAAAAAAAAAAAAAAAAAAAAAAAAAAAAAAAAAAAAAAAAAAAAAAAAAAAAAAAAAAAAAAAAAAAAAAAAAAAAAAAAAAAAAAAAAAAAAAAAAAAAAAAAAAAAAAAAAAAAAAAAAAAAAAAAAAAAAAAAAAAAAAAAAAAAAAAAAAAAAAAAAAAAAAAAAAAAAAAAAAAAAAAAAAAAAAAAAAAAAAAAAAAAAAAAAAAAAAAAAAAAAAAAAAAAAAAAAAAAAAAAAAAAAAAAAAAAAAAAAAAAAAAAAAAAAAAAAAAAAAAAAAAAAAAAAAAAAAAAAAAAAAAAAAAAAAAAAAAAAAAAAAAAAAAAAAAAAAAAAAAAAAAAAAAAAAAAAAAAAAAAAAAAAAAAAAAAAAAAAAAAAAAAAAAAAAAAAAAAAAAAAAAAAAAAAAAAAAAAAAAAAAAAAAAAAAAAAAAAAAAAAAAAAAAAAAAAAAAAAAAAAAAAAAAAAAAAAAAAAAAAAAAAAAAAAAAAAAAAAAAAAAAAAAAAAAAAAAAAAAAAAAAAAAAAAAAAAAAAAAAAAAAAAAAAAAAAAAAAAAAAAAAAAAAAAAAAAAAAAAAAAAAAAAAAAAAAAAAAAAAAAAAAAAAAAAAAAAAAAAAAAAAAAAAAAAAAAAAAAAAAAAAAAAAAAAAAAAAAAAAAAAAAAAAAAAAAAAAAAAAAAAAAAAAAAAAAAAAAAAAAAAAAAAAAAAAAAAAAAAAAAAAAAAAAAAAAAAAAAAAAAAAAAAAAAAAAAAAAAAAAAAAAAAAAAAAAAAAAAAAAAAAAAAAAAAAAAAAAAAAAAAAAAAAAAAAAAAAAAAAAAAAAAAAAAAAAAAAAAAAAAAAAAAAAAAAAAAAAAAAAAAAAAAAAAAAAAAAAAAAAAAAAAAAAAAAAAAAAAAAAAAAAAAAAAAAAAAAAAAAAAAAAAAAAAAAAAAAAAAAAAAAAAAAAAAAAAAAAAAAAAAPyvPTggAQAAABD0/3U/QgUAAAAAAAAAAAAAAAAAAAAAAAAAAAAAAAAAAAAAAAAAAAAAAAAAAAAAAAAAAAAAAAAAAAAAAAAAAAAAAAAAAAAAAAAAAAAAAAAAAAAAAAAAAAAAAAAAAAAAAAAAAAAAAAAAAAAAAAAAAAAAAAAAAAAAAAAAAAAAAAAAAAAAAAAAAAAAAAAAAAAAAAAAAAAAAAAAAAAAAAAAAAAAAAAAAAAAAAAAAAAAAAAAAAAAAAAAAAAAAAAAAAAAAAAAAAAAAAAAAAAAAAAAAAAAAAAAAAAAAAAAAAAAAAAAAAAAAAAAAAAAAAAAAAAAAAAAAAAAAAAAAAAAAAAAAAAAAAAAAAAAAAAAAAAAAAAAAAAAAAAAAAAAAAAAAAAAAAAAAAAAAAAAAAAAAAAAAAAAAAAAAAAAAAAAAAAAAAAAAAAAAAAAAAAAAAAAAAAAAAAAAAAAAAAAAAAAAAAAAAAAAAAAAAAAAAAAAAAAAAAAAAAAAAAAAAAAAAAAAAAAAAAAAAAAAAAAAAAAAAAAAAAAAAAAAAAAAAAAAAAAAAAAAAAAAAAAAAAAAAAAAAAAAAAAAAAAAAAAAAAAAAAAAAAAAAAAAAAAAAAAAAAAAAAAAAAAAAAAAAAAAAAAAAAAAAAAAAAAAAAAAAAAAAAAAAAAAAAAAAAAAAAAAAAAAAAAAAAAAAAAAAAAAAAAAAAAAAAAAAAAAAAAAAAAAAAAAAAAAAAAAAAAAAAAAAAAAAAAAAAAAAAAAAAAAAAAAAAAAAAAAAAAAAAAAAAAAAAAAAAAAAAAAAAAAAAAAAAAAAAAAAAAAAAAAAAAAAAAAAAAAAAAAAAAAAAAAAAAAAAAAAAAAAAAAAAAAAAAAAAAAAAAAAAAAAAAAAAAAAAAAAAAAAAAAAAAAAAAAAAAAAAAAAAAAAAAAAAAAAAAAAAAAAAAAAAAAAAAAAAAAAAAAAAAAAAAAAAAAAAAAAAAAAAAAAAAAAAAAAAAAAAAAAAAAAAAAAAAAAAAAAAAAAAAAAAAAAAAAAAAAAAAAAAAAAAAAAAAAAAAAAAAAAAAAAAAAAAAAAAAAAAAAAAAAAAAAAAAAAAAAAAAAAAAAAAAAAAAAAAAAAAAAAAAAAAAAAAAAAAAAAAAAAAAAAAAAAAAAAAAAAAAAAAAAAAAAAAAAAAAAAAAAAAAAAAAAAAAAAAAAAAAAAAAAAAAAAAAAAAAAAAAAAAAAAAAAAAAAAAAAAAAAAAAAAAAAAAAAAAAAAAAAAAAAAAAAAAAAAAAAAAAAAAAAAAAAAAAAAAAAAAAAAAAAAAAAAAAAAAAAAAAAAAAAAAAAAAAAAAAAAAAAAAAAAAAAAAAAAAAAAAAAAAAAAAAAAAAAAAAAAAAAAAAAAAAAAAAAAAAAAAAAAAAAAAAAAAAAAAAAAAAAAAAAAAAAAAAAAAAAAAAAAAAAAAAAAAAAAAAAAAAAAAAAAAAAAAAAAAAAAAAAAAAAAAAAAAAAAAAAAAAAAAAAAAAAAAAAAAAAAAAAAAAAAAAAAAAAAAAAAAAAAAAAAAAAAAAAAAAAAAAAAAAAAAAAAAAAAAAAAAAAAAAAAAAAAAAAAAAAAAAAAAAAAAAAAAAAAAAAAAAAAAAAAAAAAAAAAAAAAAAAAAAAAAAAAAAAAAAAAAAAAAAAAAAAAAAAAAAAAAAAAAAAAAAAAAAAAAAAAAAAAAAAAAAAAAAAAAAAAAAAAAAAAAAAAAAAAAAAAAAAAAAAAAAAAAAAAAAAAAAAAAAAAAAAAAAAAAAAAAAAAAAAAAAAAAAAAAAAAAAAAAAAAAAAAAAAAAAAAAAAAAAAAAAAAAAAAAAAAAAAAAAAAAAAAAAAAAAAAAAAAAAAAAAAAAAAAAAAAAAAAAAAAAAAAAAAAAAAAAAAAAAAAAAAAAAAAAAAAAAAAAAAAAAAAAAAAAAAAAAAAAAAAAAAAAAAAAAAAAAAAAAAAAAAAAAAAAAAAAAAAAAAAAAAAAAAAAAAAAAAAAAAAAAAAAAAAAAAAAAAAAAAAAAAAAAAAAAAAAAAAAAAAAAAAAAAAAAAAAAAAAAAAAAAAAAAAAAAAAAAAAAAAAAAAAAAAAAAAAAAAAAAAAAAAAAAAAAAAAAAAAAAAAAAAAAAAAAAAAAAAAAAAAAAAAAAAAAAAAAAAAAAAAAAAAAAAAAAAAAAAAAAAAAAAAAAAAAAAAAAAAAAAAAAAAAAAAAAAAAAAAAAAAAAAAAAAAAAAAAAAAAAAAAAAAAAAAAAAAAAAAAAAAAAAAAAAAAAAAAAAAAAAAAAAAAAAAAAAAAAAAAAAAAAAAAAAAAAAAAAAAAAAAAAAAAAAAAAAAAAAAAAAAAAAAAAAAAAAAAAAAAAAAAAAAAAAAAAAAAAAAAAAAAAAAAAAAAAAAAAAAAAAAAAAAAAAAAAAAAAAAAAAAAAAAAAAAAAAAAAAAAAAAAAAAAAAAAAAAAAAAAAAAAAAAAAAAAAAAAAAAAAAAAAAAAAAAAAAAAAAAAAAAAAAAAAAAAAAAAAAAAAAAAAAAAAAAAAAAAAAAAAAAAAAAAAAAAAAAAAAAAAAAAAAAAAAAAAAAAAAAAAAAAAAAAAAAAAAAAAAAAAAAAAAAAAAAAAAAAAAAAAAAAAAAAAAAAAAAAAAAAAAAAAAAAAAAAAAAAAAAAAAAAAAAAAAAAAAAAAAAAAAAAAAAAAAAAAAAAAAAAAAAAAAAAAAAAAAAAAAAAAAAAAAAAAAAAAAAAAAAAAAAAAAAAAAAAAAAAAAAAAAAAAAAAAAAAAAAAAAAAAAAAAAAAAAAAAAAAAAAAAAAAAAAAAAAAAAAAAAAAAAAAAAAAAAAAAAAAAAAAAAAAAAAAAAAAAAAAAAAAAAAAAAAAAAAAAAAAAAAAAAAAAAAAAAAAAAAAAAAAAAAAAAAAAAAAAAAAAAAAAAAAAAAAAAAAAAAAAAAAAAAAAAAAAAAAAAAAAAAAAAAAAAAAAAAAAAAAAAAAAAAAAAAAAAAAAAAAAAAAAAAAAAAAAAAAAAAAAAAAAAAAAAAAAAAAAAAAAAAAAAAAAAAAAAAAAAAAAAAAAAAAAAAAAAAAAAAAAAAAAAAAAAAAAAAAAAAAAAAAAAAAAAAAAAAAAAAAAAAAAAAAAAAAAAAAAAAAAAAAAAAAAAAAAAAAAAAAAAAAAAAAAAAAAAAAAAAAAAAAAAAAAAAAAAAAAAAAAAAAAAAAAAAAAAAAAAAAAAAAAAAAAAAAAAAAAAAAAAAAAAAAAAAAAAAAAAAAAAAAAAAAAAAAAAAAAAAAAAAAAAAAAAAAAAAAAAAAAAAAAAAAAAAAAAAAAAAAAAAAAAAAAAAAAAAAAAAAAAAAAAAAAAAAAAAAAAAAAAAAAAAAAAAAAAAAAAAAAAAAAAAAAAAAAAAAAAAAAAAAAAAAAAAAAAAAAAAAAAAAAAAAAAAAAAAAAAAAAAAAAAAAAAAAAAAAAAAAAAAAAAAAAAAAAAAAAAAAAAAAAAAAAAAAAAAAAAAAAAAAAAAAAAAAAAAAAAAAAAAAAAAAAAAAAAAAAAAAAAAAAAAAAAAAAAAAAAAAAAAAAAAAAAAAAAAAAAAAAAAAAAAAAAAAAAAAAAAAAAAAAAAAAAAAAAAAAAAAAAAAAAAAAAAAAAAAAAAAAAAAAAAAAAAAAAAAAAAAAAAAAAAAAAAAAAAAAAAAAAAAAAAAAAAAAAAAAAAAAAAAAAAAAAAAAAAAAAAAAAAAAAAAAAAAAAAAAAAAAAAAAAAAAAAAAAAAAAAAAAAAAAAAAAAAAAAAAAAAAAAAAAAAAAAAAAAAAAAAAAAAAAAAAAAAAAAAAAAAAAAAAAAAAAAAAAAAAAAAAAAAAAAAAAAAAAAAAAAAAAAAAAAAAAAAAAAAAAAAAAAAAAAAAAAAAAAAAAAAAAAAAAAAAAAAAAAAAAAAAAAAAAAAAAAAAAAAAAAAAAAAAAAAAAAAAAAAAAAAAAAAAAAAAAAAAAAAAAAAAAAAAAAAAAAAAAAAAAAAAAAAAAAAAAAAAAAAAAAAAAAAAAAAAAAAAAAAAAAAAAAAAAAAAAAAAAAAAAAAAAAAAAAAAAAAAAAAAAAAAAAAAAAAAAAAAAAAAAAAAAAAAAAAAAAAAAAAAAAAAAAAAAAAAAAAAAAAAAAAAAAAAAAAAAAAAAAAAAAAAAAAAAAAAAAAAAAAAAAAAAAAAAAAAAAAAAAAAAAAAAAAAAAAAAAAAAAAAAAAAAAAAAAAAAAAAAAAAAAAAAAAAAAAAAAAAAAAAAAAAAAAAAAAAAAAAAAAAAAAAAAAAAAAAAAAAAAAAAAAAAAAAAAAAAAAAAAAAAAAAAAAAAAAAAAAAAAAAAAAAAAAAAAAAAAAAAAAAAAAAAAAAAAAAAAAAAAAAAAAAAAAAAAAAAAAAAAAAAAAAAAAAAAAAAAAAAAAAAAAAAAAAAAAAAAAAAAAAAAAAAAAAAAAAAAAAAAAAAAAAAAAAAAAAAAAAAAAAAAAAAAAAAAAAAAAAAAAAAAAAAAAAAAAAAAAAAAAAAAAAAAAAAAAAAAAAAAAAAAAAAAAAAAAAAAAAAAAAAAAAAAAAAAAAAAAAAAAAAAAAAAAAAAAAAAAAAAAAAAAAAAAAAAAAAAAAAAAAAAAAAAAAAAAAAAAAAAAAAAAAAAAAAAAAAAAAAAAAAAAAAAAAAAAAAAAAAAAAAAAAAAAAAAAAAAAAAAAAAAAAAAAAAAAAAAAAAAAAAAAAAAAAAAAAAAAAAAAAAAAAAAAAAAAAAAAAAAAAAAAAAAAAAAAAAAAAAAAAAAAAAAAAAAAAAAAAAAAAAAAAAAAAAAAAAAAAAAAAAAAAAAAAAAAAAAAAAAAAAAAAAAAAAAAAAAAAAAAAAAAAAAAAAAAAAAAAAAAAAAAAAAAAAAAAAAAAAAAAAAAAAAAAAAAAAAAAAAAAAAAAAAAAAAAAAAAAAAAAAAAAAAAAAAAAAAAAAAAAAAAAAAAAAAAAAAAAAAAAAAAAAAAAAAAAAAAAAAAAAAAAAAAAAAAAAAAAAAAAAAAAAAAAAAAAAAAAAAAAAAAAAAAAAAAAAAAAAAAAAAAAAAAAAAAAAAAAAAAAAAAAAAAAAAAAAAAAAAAAAAAAAAAAAAAAAAAAAAAAAAAAAAAAAAAAAAAAAAAAAAAAAAAAAAAAAAAAAAAAAAAAAAAAAAAAAAAAAAAAAAAAAAAAAAAAAAAAAAAAAAAAAAAAAAAAAAAAAAAAAAAAAAAAAAAAAAAAAAAAAA4CwXhu11/Xpl2AAAAAElFTkSuQmCC;" vertex="1" parent="SieIvqfDEVxvewcRxORI-3">
          <mxGeometry x="244" y="210" width="80" height="45" as="geometry" />
        </mxCell>
        <mxCell id="SieIvqfDEVxvewcRxORI-11" style="edgeStyle=orthogonalEdgeStyle;rounded=0;orthogonalLoop=1;jettySize=auto;html=1;entryX=0;entryY=0.5;entryDx=0;entryDy=0;" edge="1" parent="1" source="SieIvqfDEVxvewcRxORI-2" target="SieIvqfDEVxvewcRxORI-6">
          <mxGeometry relative="1" as="geometry">
            <Array as="points">
              <mxPoint x="170" y="315" />
              <mxPoint x="170" y="315" />
            </Array>
            <mxPoint x="230" y="310" as="targetPoint" />
          </mxGeometry>
        </mxCell>
        <mxCell id="SieIvqfDEVxvewcRxORI-12" value="Analytics/BI Tools" style="swimlane;whiteSpace=wrap;html=1;" vertex="1" parent="1">
          <mxGeometry x="660" y="130" width="200" height="290" as="geometry" />
        </mxCell>
        <mxCell id="SieIvqfDEVxvewcRxORI-14" value="Dashboard" style="sketch=0;outlineConnect=0;fontColor=#232F3E;gradientColor=none;fillColor=#8C4FFF;strokeColor=none;dashed=0;verticalLabelPosition=bottom;verticalAlign=top;align=center;html=1;fontSize=12;fontStyle=0;aspect=fixed;pointerEvents=1;shape=mxgraph.aws4.opensearch_dashboards;" vertex="1" parent="SieIvqfDEVxvewcRxORI-12">
          <mxGeometry x="50" y="130.5" width="78" height="59" as="geometry" />
        </mxCell>
        <mxCell id="SieIvqfDEVxvewcRxORI-21" value="Looker Studio" style="sketch=0;html=1;verticalAlign=top;labelPosition=center;verticalLabelPosition=bottom;align=center;spacingTop=-6;fontSize=11;fontStyle=1;fontColor=#999999;shape=image;aspect=fixed;imageAspect=0;image=data:image/svg+xml,PHN2ZyB4bWxucz0iaHR0cDovL3d3dy53My5vcmcvMjAwMC9zdmciIGlkPSJzdmc4OTgwMSIgdmVyc2lvbj0iMS4xIiB2aWV3Qm94PSIwIDAgMjA4LjA1NjU1IDMzNC42MTMxNiIgaGVpZ2h0PSIzMzQuNjEzMTZtbSIgd2lkdGg9IjIwOC4wNTY1NW1tIj4mI3hhOyAgJiN4YTsgIDxkZWZzIGlkPSJkZWZzODk3OTgiLz4mI3hhOyAgPGcgdHJhbnNmb3JtPSJ0cmFuc2xhdGUoLTQuMjQ2MjUyNCwxNS42NzE5MTEpIiBpZD0ibGF5ZXIxIj4mI3hhOyAgICA8cGF0aCBpZD0icGF0aDkxODAyIiB0cmFuc2Zvcm09InNjYWxlKDAuMjY0NTgzMzMpIiBkPSJtIDQwOS4yMjI2Niw0MTkuMDk5NjEgYyAtMzYuNjA4MTEsMCAtNzIuMDc2NjcsNS4wNzUzIC0xMDUuNzUzOTEsMTQuNTMxMjUgbCA0OS4wMzUxNiwxMjAuMDQxMDIgYyAxOC4yNjE3MiwtMy45Mzg5OSAzNy4yMjE5NiwtNi4wNjgzNiA1Ni43MTg3NSwtNi4wNjgzNiAxNDYuOTM1MTQsMCAyNjQuNjc3NzMsMTE3LjczNDc3IDI2NC42Nzc3MywyNjQuNjY5OTIgMCwxNDYuOTM1MTQgLTExNy43NDI1OSwyNjQuNjY5OTYgLTI2NC42Nzc3MywyNjQuNjY5OTYgLTE0Ni45MzUxNiwwIC0yNjQuNjY5OTEsLTExNy43MzQ4MiAtMjY0LjY2OTkzLC0yNjQuNjY5OTYgMCwtOTkuMTg3NjMgNTMuNjg5ODMsLTE4NS4wMDU5NiAxMzMuNzU1ODYsLTIzMC4zNDc2NiBMIDIyOS42MjY5NSw0NjIuNzUgQyAxMDMuMDI0Nyw1MjguMjI0NzQgMTYuMDQ4ODI3LDY2MC41MDUyMyAxNi4wNDg4MjgsODEyLjI3MzQ0IGMgMi4zZS01LDIxNi4zODM3NiAxNzYuNzkwMDYyLDM5My4xNzM4NiAzOTMuMTczODMyLDM5My4xNzM4NiAyMTYuMzgzNzMsMCAzOTMuMTgxNjQsLTE3Ni43OTAxIDM5My4xODE2NCwtMzkzLjE3Mzg2IDNlLTUsLTIxNi4zODM3OCAtMTc2Ljc5Nzg3LC0zOTMuMTczODMgLTM5My4xODE2NCwtMzkzLjE3MzgzIHoiIHN0eWxlPSJjb2xvcjojMDAwMDAwO29wYWNpdHk6MTtmaWxsOiM1OTg2ZjI7ZmlsbC1vcGFjaXR5OjE7c3Ryb2tlLXdpZHRoOjMuNzc5NTM7c3Ryb2tlLWxpbmVqb2luOnJvdW5kOy1pbmtzY2FwZS1zdHJva2U6bm9uZSIvPiYjeGE7ICAgIDxwYXRoIGQ9Im0gMTg5Ljk0MzM2LDg2LjI1IGMgLTk1LjEzMDMzMSwwIC0xNzMuMTc5Njg4LDc4LjA1NTIyIC0xNzMuMTc5Njg4LDE3My4xODU1NSAtNmUtNiw5NS4xMzAzMyA3OC4wNDkzNTMsMTczLjE3OTY4IDE3My4xNzk2ODgsMTczLjE3OTY4IDkuMDE2MTgsMCAxNy44NzU4LC0wLjcwODMyIDI2LjUzMzIsLTIuMDU4NTkgbCAtMzQuODI4MTIsLTg1LjI2NTYyIGMgLTQ0LjE1NzMsLTQuMDg2NjkgLTc3Ljk1NTA4LC00MC41MDcwNSAtNzcuOTU1MDgsLTg1Ljg1NTQ3IDAsLTQ4LjE1MDM5IDM4LjA5OTYyLC04Ni4yNTU4NiA4Ni4yNSwtODYuMjU1ODYgMTMuMTU5NzcsMCAyNS41NTg4OCwyLjg2MjQ2IDM2LjY0NDUzLDcuOTgyNDIgbCA2NC41NTQ2OSwtNjEuOTE5OTIgQyAyNjIuNjA4MzcsOTguNTMzOTEgMjI3LjYyOTI5LDg2LjI1IDE4OS45NDMzNiw4Ni4yNSBaIG0gMTM4Ljg4ODY3LDcwLjE2MjExIC02My40Mjc3Myw2MC44MzU5NCBjIDYuODc2MzgsMTIuNDI2NzggMTAuNzg5MDYsMjYuNzg4MTUgMTAuNzg5MDYsNDIuMTg3NSAwLDIxLjc2NzEyIC03LjgwNDE1LDQxLjQ2NTQgLTIwLjc4NTE2LDU2LjUzMzIgbCAzNC41MjM0NCw4NC41MTk1MyBjIDQ0LjE3Mzg3LC0zMS40ODc1MSA3My4xOTE0MSwtODMuMDc4OTIgNzMuMTkxNDEsLTE0MS4wNTI3MyAwLC0zOC40ODM1NSAtMTIuNzgyLC03NC4xNjUzMiAtMzQuMjkxMDIsLTEwMy4wMjM0NCB6IiB0cmFuc2Zvcm09InNjYWxlKDAuMjY0NTgzMzMpIiBzdHlsZT0iY29sb3I6IzAwMDAwMDtvcGFjaXR5OjE7ZmlsbDojNmY5OGY0O2ZpbGwtb3BhY2l0eToxO3N0cm9rZS13aWR0aDozLjc3OTUzO3N0cm9rZS1saW5lam9pbjpyb3VuZDstaW5rc2NhcGUtc3Ryb2tlOm5vbmUiIGlkPSJwYXRoOTE3OTgiLz4mI3hhOyAgICA8cGF0aCBpZD0icGF0aDg5OTI4IiB0cmFuc2Zvcm09InNjYWxlKDAuMjY0NTgzMzMpIiBkPSJtIDQwNi4xMzY3MiwtNTkuMjMyNDIyIGMgLTU4LjgxNTQ3LDhlLTYgLTEwNy4xMDM1Miw0OC4yODgwNDUgLTEwNy4xMDM1MiwxMDcuMTAzNTE2IDAsMTguNDk0NDUxIDQuNzgxMDEsMzUuOTQ1MDE3IDEzLjE1NjI1LDUxLjE4MzU5NCBsIDQ0LjMxMjUsLTQyLjUwMzkwNyBjIC0wLjQ3NTY3LC0yLjgyMDc3NSAtMC43NzUzOSwtNS43MDc1NjQgLTAuNzc1MzksLTguNjc5Njg3IDAsLTI4LjE3NjM4IDIyLjIzMzc4LC01MC40MTAxNTI1IDUwLjQxMDE2LC01MC40MTAxNTY1IDI4LjE3NjM4LC00ZS02IDUwLjQxMDE1LDIyLjIzMzc3MDUgNTAuNDEwMTYsNTAuNDEwMTU2NSAwLDI4LjE3NjM4MSAtMjIuMjMzNzgsNTAuNDEyMTEzIC01MC40MTAxNiw1MC40MTIxMDkgLTUuMDY4NjksLTEwZS03IC05LjkzNDE3LC0wLjc0NTYzMSAtMTQuNTIzNDQsLTIuMDg5ODQ0IGwgLTQzLjM2MTMzLDQxLjU5MTgwMSBjIDE2LjczMjIzLDEwLjg0Nzk1IDM2LjYxMTIzLDE3LjE4OTQ1IDU3Ljg4NDc3LDE3LjE4OTQ1IDU4LjgxNTQ5LDEwZS02IDEwNy4xMDM1MSwtNDguMjg4MDQgMTA3LjEwMzUxLC0xMDcuMTAzNTE2IDAsLTU4LjgxNTQ4MyAtNDguMjg4MDIsLTEwNy4xMDM1MjMgLTEwNy4xMDM1MSwtMTA3LjEwMzUxNiB6IiBzdHlsZT0iY29sb3I6IzAwMDAwMDtvcGFjaXR5OjE7ZmlsbDojZDZlM2ZiO2ZpbGwtb3BhY2l0eToxO3N0cm9rZS13aWR0aDozLjc3OTUzO3N0cm9rZS1saW5lam9pbjpyb3VuZDstaW5rc2NhcGUtc3Ryb2tlOm5vbmUiLz4mI3hhOyAgPC9nPiYjeGE7PC9zdmc+;" vertex="1" parent="SieIvqfDEVxvewcRxORI-12">
          <mxGeometry x="80" y="70" width="26" height="42" as="geometry" />
        </mxCell>
        <mxCell id="SieIvqfDEVxvewcRxORI-16" style="edgeStyle=orthogonalEdgeStyle;rounded=0;orthogonalLoop=1;jettySize=auto;html=1;" edge="1" parent="1" source="SieIvqfDEVxvewcRxORI-4" target="SieIvqfDEVxvewcRxORI-14">
          <mxGeometry relative="1" as="geometry" />
        </mxCell>
      </root>
    </mxGraphModel>
  </diagram>
</mxfile>
